<svg xmlns="http://www.w3.org/2000/svg" width="72" height="116" fill="#fff"  xmlns:v="https://vecta.io/nano"><path d="M68.43 69.305l.225.84c.082.042.225.101.353.182.246.156.504.302.719.495.175.157.323.251.575.21.322-.052.654-.057.981-.055.522.004.827.37.679.871-.209.707-.181 1.42-.166 2.139l.001 2.297c-.171 1.723-.896 3.198-2.186 4.367-.477.432-1.069.64-1.71.664h-1.593c-.14-.001-.285-.007-.418-.045-.51-.144-.641-.317-.596-.789l.1-1.545c.005-.086-.018-.173-.036-.327-.13.08-.228.116-.293.184-.839.876-1.889 1.086-3.041.973-.108-.01-.214-.044-.318-.078-.422-.137-.564-.38-.489-.817.023-.133.032-.268.054-.456-.578-.041-1.121-.045-1.569-.426s-.606-.887-.709-1.452h-1.294l-.099.519c-.044.358-.037.356.336.459.562.155 1.027.44 1.296.986.499 1.013-.006 2.319-1.18 2.589-.121.028-.246.041-.37.051-.19.015-.279.113-.28.302l-.007.751c-.005.726-.22.954-.927.989-1.152.057-2.236.348-3.254.906-.215.118-.336.271-.434.458l-.793 1.59c-.062.125-.118.261-.212.359-.164.171-.363.331-.619.213-.234-.108-.421-.282-.417-.572l.03-.985c.002-.166-.014-.332-.022-.496-1.431.038-1.876-.26-2.377-1.761-.151 0-.322.017-.487-.004l-.87-.153c-.365-.103-.51-.407-.406-.766l.204-.719c.046-.222-.024-.286-.241-.281-1.144.024-1.793-.49-2.043-1.617-.01-.045-.029-.088-.066-.196-.193 0-.405.002-.616 0-.265-.003-.533.01-.796-.02-.504-.059-.72-.308-.71-.808l.063-1.594.115-2.061c.008-.149.001-.3.001-.51-.148.067-.242.085-.301.141-.82.772-1.822.899-2.876.79-.605-.063-.869-.397-.82-.964.209-2.433.303-4.873.253-7.313l-.237-4.919c-.041-.703.261-1.103.995-1.199.426-.056.843-.003 1.228.194.3.153.483.388.45.751l-.065.915.562.141a1.71 1.71 0 0 1 1.421 1.472l.02.139c.062.4.065.376.467.421a3.93 3.93 0 0 1 .944.221c.278.105.442.333.426.662l-.002.778c1.3.066 2.016.711 2.062 2.068l.605-.001c.392-.006.776.003 1.137.199.339.184.52.437.468.832l-.032.28c-.023.219.047.353.288.393.792.132 1.471.882 1.443 1.864-.001.031-.011.062-.012.093-.008.312.052.353.345.311.307-.044.62-.09.926-.073.24.013.49.09.71.193.34.16.505.441.465.838-.024.245-.005.495-.005.754l.709.239c.461.182.758.534.957.975.164.362.157.347.576.289.276-.038.561-.019.842-.023h.611l.065-.979c.005-.268-.193-.271-.396-.264-.709.024-1.236-.296-1.563-.909-.151-.283-.215-.613-.342-.994-.143 0-.328.016-.508-.004-.292-.033-.589-.064-.871-.142-.373-.104-.502-.298-.497-.687.003-.25.044-.498.056-.748l.002-.609c-.531.014-1.034.019-1.488-.281-.462-.305-.652-.774-.857-1.28-.227 0-.444.013-.659-.004s-.438-.036-.642-.103c-.474-.156-.58-.36-.482-.857l.174-.777c.021-.116.004-.239.004-.413-.595.018-1.155.025-1.644-.386-.467-.392-.541-.955-.751-1.48-.482 0-.933.017-1.383-.004-.523-.025-.752-.288-.728-.815l.094-1.122.1-2.72c.002-.043-.025-.087-.053-.177-.1.035-.214.044-.281.104-.701.63-1.541.775-2.44.724l-.515-.032c-.474-.038-.654-.234-.657-.722l.015-.657c0-.091-.019-.183-.031-.29-1.194-.197-1.894-.835-1.859-2.147-.44-.098-.869-.036-1.336-.079-.09.565-.035 1.093-.044 1.617l-.002 1.62-2.201.187-2.202.026c-.816-.004-1.436.367-1.91.998l-1.453 2.008c-.211.292-.254.637-.284.979-.043.482.081.636.578.75-.172.439.07.808.22 1.192l.629 1.511a.68.68 0 0 1-.037.666l-.631 1.2c-.357.721-.509 1.503-.648 2.287-.008.046-.01.093-.015.14-.113.956-.168 1.024-1.068 1.262l-1.357.339-1.911.433-.528.142c-.025-.095-.066-.206-.084-.321l-.3-1.943a2.65 2.65 0 0 1 .045-.877c.179-.791.415-1.567.455-2.388.016-.335.125-.674.239-.995.128-.359.064-.662-.124-.976l-1.673-2.814c-.135-.222-.164-.39-.06-.645l.719-2.028c.098-.31.131-.642.18-.966.01-.069-.039-.146-.057-.209-.042-.022-.068-.043-.097-.05-.473-.118-.48-.145-.253-.575l1.32-2.47c.382-.573.678-1.181 1.007-1.777l.5-1.005c.129-.243.246-.481.492-.664.171-.127.22-.426.308-.654.053-.137.075-.285.125-.482.56.245 1.138.188 1.642.477.306.176.78-.101.883-.469.125-.45-.316-.927-.775-.892-.286.022-.583-.045-.87-.095-.213-.037-.42-.113-.652-.177l-.223-.487c-.083-.147-.17-.308-.296-.412l-1.24-.944c-.309-.22-.313-.248-.28-.615.082-.903.663-1.516 1.185-2.194.467.285.973.272 1.463.311.32.026.586-.114.842-.334.656-.563.965-1.285 1.07-2.117.08-.633-.228-1.036-.858-1.091a1.8 1.8 0 0 0-1.074.23c-.806.452-1.409 1.066-1.727 1.944-.042.117-.128.253-.101.354.104.377-.131.619-.305.887l-.451.654c-.27.358-.43.748-.46 1.204-.033.506-.482.76-.964.583l-.618-.2c-.08-.02-.184.004-.261.041l-.876.438c-.326.161-.672.207-1.06.183-.118-.497-.052-.975-.049-1.495l.384.085c.264.065.404-.012.412-.267.027-.772-.073-1.53-.303-2.267-.066-.213-.25-.288-.434-.171-.101.064-.186.167-.252.27-.312.487-.445 1.027-.449 1.601 0 .062-.006.136.024.184.332.544.202 1.147.111 1.693-.136.824-.615 1.484-1.382 1.888-.488.256-.527.296-.408.84.072.331-.05.617-.12.915-.125.532-.03.654.502.652l1.261.058c.336.028.394.16.273.579-.44-.262-.847-.196-1.251.099-.223.163-.486.272-.645.358l-.707-.12-1.399-.113a.67.67 0 0 0-.522.142l-1.122.915c-.06.051-.076.155-.132.279l1.344.245-.286.224c-1.245.78-2.428 1.643-3.365 2.789-.931 1.14-1.523 2.46-1.91 3.875a1.33 1.33 0 0 0-.036.325c-.004.226.103.364.339.346.315-.025.574.04.763.324.052.077.18.125.28.145.306.06.616.133.925.139.363.008.667.126.945.341.17.131.335.267.481.469l-.465-.053-1.735-.366c-.489-.121-.926-.104-1.398.134l-2.755 1.255c-1.24.6-2.366 1.373-3.31 2.389-.157.169-.296.355-.438.527.1.23.266.243.443.226l2.141-.216 2.642-.354 2.314-.333c.324-.055.576.03.828.213l1.462 1.031.265-.194c-.135.513-.298.627-.678.459-1.232-.546-2.529-.682-3.846-.567-1.994.173-3.762.928-5.269 2.258-1.077.95-1.945 2.064-2.509 3.394-.699 1.647-.962 3.354-.628 5.13.066.35.148.697.161 1.094l-.56-.699c-.55-.817-.847-1.742-1.026-2.694-.242-1.29-.431-2.597-.378-3.913.043-1.075.185-2.146.3-3.217.259-2.419 1.265-4.592 2.284-6.75 1.578-3.343 3.433-6.538 5.287-9.732l5.093-8.772 6.725-11.561 7.909-14.219 6.187-11.808L37.438.251c.034-.069.089-.127.178-.251l.621 1.091 3.026 5.694 2.321 4.587c.285.576.008.98-.639.968-.248-.005-.5-.033-.743-.085-.407-.087-.587-.356-.572-.779.008-.228.065-.487-.019-.679-.109-.249-.422-.112-.639-.175-.458-.135-.822-.409-1.028-.827-.149-.302-.341-.393-.656-.399-.355-.007-.709-.078-1.064-.12-.108-.013-.218-.021-.327-.029-.211-.016-.326.077-.331.294-.002.078 0 .157-.003.235-.011.237.101.314.335.343.4.049.797.137 1.189.236.139.035.31.123.374.238.111.196.281.288.457.376.681.341 1.019.889 1.024 1.648 0 .078.005.156.015.233.004.027.031.05.066.101.091-.03.195-.052.288-.097.619-.301 1.232-.256 1.844.016a.61.61 0 0 1 .394.629l-.035.75c-.006.181.068.298.265.316.835.075 1.498.859 1.532 1.743.003.073.035.145.061.248.184-.05.343-.101.506-.138.4-.091.614-.006.822.351.204.35.392.709.581 1.067l3.02 5.705.937 1.831c.078.161.102.36.104.541.002.198.061.338.242.409.253.099.377.307.5.53l4.916 8.984c.11.201.174.428.259.643.023.058.031.126.068.172.736.9 1.197 1.966 1.771 2.962l3.292 5.864.446.823c.287.547.064.977-.543 1.018-.358.024-.718.009-1.077.015-.06.001-.119.025-.204.044v1.209c.001.266.188.279.388.29.706.04 1.204.408 1.484 1.037.116.262.142.572.167.864.021.237.108.326.346.33.357.006.714.041 1.07.073.091.008.183.041.269.077.375.159.604.401.57.854-.029.387.006.369.363.513a.86.86 0 0 1 .402.352c.257.462.479.944.712 1.42l.791 1.631 1.494 3.12c.108.234.151.504.188.763.032.222.046.398.3.52.172.083.296.314.39.504l1.466 3.032c.186.392.103.795.008 1.192-.202.844-.644 1.586-1.014 2.359-.114.239-.227.479-.353.712-.316.578-.745.998-1.454 1.013-.044.001-.086.032-.168.065zM48.925 35.388l.044-1.038.06-1.124c.013-.236-.098-.336-.335-.341-.185-.004-.389-.006-.549-.083-.677-.325-1.119-.827-1.131-1.629-.006-.379-.041-.394-.401-.4a6.43 6.43 0 0 1-.699-.045c-.749-.096-.901-.29-.858-1.032.01-.175-.022-.353-.034-.528-1.398.065-2.133-.539-2.255-2.045-.095-.021-.197-.054-.301-.065l-1.024-.094c-.35-.042-.56-.264-.58-.613-.011-.186.011-.375.019-.562.018-.429.02-.448-.42-.485-.487-.041-.903-.253-1.133-.648-.265-.456-.602-.578-1.075-.499-.061.01-.125.001-.187.002-.463.008-.502.041-.504.518v4.131c0 .101.025.202.037.29.07.014.102.03.129.024.044-.009.093-.023.126-.052.357-.311.794-.413 1.242-.486.108-.018.231-.012.319-.064.321-.189.675-.177 1.005-.121.789.134 1.137.385 1.104 1.065-.001.029.019.059.043.127.422.168.858.37 1.161.774.312.415.322.916.374 1.382.06.014.077.023.09.019.044-.013.091-.023.128-.048.402-.275.857-.279 1.308-.227.675.077 1.191.448 1.016 1.148-.053.214-.008.452-.008.682.572.082 1.007.295 1.358.684s.374.903.505 1.388c.268-.033.498-.085.727-.083.242.002.483.054.699.082zm4.257 22.681c.206-.01.343-.021.48-.022.343-.001.689-.023 1.029.01.697.068.99.425.957 1.11-.005.109-.008.219-.017.328-.021.251.102.36.342.41.919.19 1.444.838 1.464 1.78.002.12.014.24.024.393l.717-.001c.376-.008.738.022 1.09.191.334.16.514.385.497.763-.01.231-.002.463-.002.732 1.267.234 1.848 1.038 1.793 2.325.156.013.263.04.366.028.445-.051.86.045 1.267.216.396.166.727.37.693.876-.012.186.094.28.276.312.688.122 1.069.589 1.302 1.203.151.4.141.403.547.38.187-.011.376-.005.561-.028.096-.011.187-.067.28-.102-.258-.671.238-1.265.088-1.935l-.511.039c-.565.054-1.054-.113-1.424-.544-.169-.198-.322-.432-.404-.676-.089-.264-.24-.33-.484-.334a7.36 7.36 0 0 1-.793-.054c-.536-.068-.734-.336-.657-.862l.172-1.168c-1.413.09-2.15-.611-2.327-1.981l-.47-.023c-.326-.025-.657-.028-.977-.086-.654-.118-.838-.497-.527-1.07.123-.227.191-.447.128-.716-.078-.008-.137-.022-.196-.02-1.156.046-1.85-.546-1.989-1.693-.011-.088-.05-.173-.093-.313-.314 0-.63.041-.932-.008-.731-.118-.943-.321-.84-1.002.038-.251.122-.521-.017-.785-.066-.012-.126-.033-.186-.032-.625.012-1.074-.311-1.394-.802a.53.53 0 0 0-.574-.282c-.232.022-.468-.005-.702-.003-.099.001-.198.022-.277.031l.089 1.036c1.21.296 1.8 1.051 1.633 2.379zm-9.717-9.797c.605-.036 1.076.144 1.449.535.381.399.547.894.536 1.466l.541.077a6.91 6.91 0 0 1 .505.097c.558.136.869.503.775.987-.012.061-.009.125-.012.187-.02.376-.02.392.364.427 1.107.101 1.657 1.008 1.665 1.864.001.119.022.237.037.386h1.476c0-.349-.01-.655.003-.961.014-.359.06-.717.07-1.076.009-.336-.022-.35-.369-.401-.198-.029-.408-.046-.585-.127-.684-.313-1.045-.853-1.078-1.616-.016-.354-.038-.353-.389-.367a14.62 14.62 0 0 1-.745-.048c-.655-.059-.91-.378-.836-1.03.022-.194.003-.392.003-.594-.569-.105-1.083-.207-1.468-.633s-.473-.961-.542-1.536c-.196 0-.367.016-.534-.004-.276-.032-.555-.063-.822-.137-.432-.12-.517-.256-.518-.702v-.837c-.18-.035-.322-.044-.451-.09-.261-.093-.539-.17-.765-.32-.329-.218-.556-.531-.661-.931-.096-.364-.153-.377-.525-.375-.326.001-.653-.03-.979-.038-.094-.002-.188.024-.314.042.419.486.416.486.39 1.093-.009.2-.001.4-.001.618 1.181.221 1.779.925 1.761 2.12.122.01.206.04.271.017.362-.128.714-.03 1.061.049.496.113.696.395.688.905l-.001.951zm3.428 21.116c-.801-.064-1.313.292-1.68.85-.461.7-.751 1.481-.732 2.33l.163 4.959c.009.245.034.489.051.736.237.073.396-.01.549-.126s.303-.217.448-.334c.202-.163.445-.302.587-.509a16.9 16.9 0 0 0 .885-1.475c.084-.154.124-.358.116-.535l-.27-5.236c-.012-.212-.073-.422-.117-.659zm-.116-8.617h.09l.002 2.624c0 .124.008.252.043.37.056.191.198.258.36.143.416-.294.873-.561 1.203-.936.364-.413.617-.929.892-1.415.088-.155.139-.358.13-.536l-.309-5.753c-.017-.286-.113-.346-.404-.289-.543.106-.982.375-1.293.842a4.53 4.53 0 0 0-.767 2.467c-.016.827.032 1.655.052 2.483zm21.799 19.724c.501-.1.801-.403 1.062-.721 1.018-1.239 1.623-2.632 1.603-4.274-.015-1.261-.134-2.526.066-3.784.004-.025-.025-.055-.062-.13-.465-.002-.953-.056-1.407.175-.104.618-.348 1.121-.954 1.301-.556.166-.506.23-.505.725l.033 4.636c.014.681.106 1.36.166 2.071zM60.765 60.7c.168-.021.279-.003.345-.048.471-.323 1.001-.577 1.316-1.088.228-.37.463-.738.676-1.117a1.45 1.45 0 0 0 .181-.853c-.052-.654-.065-1.31-.102-1.965l-.205-3.507c-.019-.309-.075-.347-.373-.325-.567.042-1.005.318-1.316.781-.498.743-.781 1.566-.76 2.465l.159 4.92c.008.229.047.457.078.737zM43.271 26.216c.34-.041.559-.209.773-.384.58-.473.953-1.099 1.305-1.744.207-.379.302-.77.282-1.208l-.096-3.139c-.024-.656-.062-1.312-.106-1.966-.032-.468-.203-.607-.636-.435-.369.147-.761.334-1.032.612-.46.473-.771 1.051-.751 1.759l.063 3.141c.03.968.084 1.935.133 2.903.008.149.041.298.064.462zm-2.087 15.286c.195-.051.377-.054.504-.139.672-.45 1.276-.96 1.639-1.721.139-.291.242-.565.234-.885l-.125-4.916c-.013-.416-.094-.829-.146-1.265-.641-.042-1.095.211-1.447.659a4.01 4.01 0 0 0-.881 2.559c.019 1.763.105 3.526.166 5.288.004.12.032.238.057.419zM64.987 64.4c.352-.216.609-.425.903-.538.249-.095.45-.224.582-.433.315-.499.614-1.009.898-1.526.071-.128.096-.302.088-.451l-.21-3.554c-.012-.202-.079-.441.003-.598.145-.278.028-.478-.074-.7-.091-.198-.186-.394-.283-.589-.281-.566-.3-.536-.888-.263-.069.032-.13.086-.186.139-.612.582-1.006 1.295-1.013 2.137-.014 1.671.031 3.343.067 5.014.01.446.073.891.113 1.361zm-9.613 7.356c.32-.218.541-.432.804-.533.361-.139.584-.398.786-.691.176-.256.318-.535.485-.797a1.37 1.37 0 0 0 .21-.8l-.081-3.232a80.04 80.04 0 0 0-.15-2.571c-.021-.306-.083-.342-.384-.323-.393.025-.731.198-.982.48-.597.67-.975 1.442-.959 2.366.008.453.028.905.043 1.358l.126 3.699c.013.323.061.645.101 1.043zm4.093 3.901c.113-.047.223-.075.313-.134.154-.102.281-.287.445-.325.429-.099.636-.424.852-.742a7.08 7.08 0 0 0 .524-.883c.091-.188.151-.41.157-.618.053-1.799-.087-3.592-.203-5.386-.017-.259-.071-.516-.109-.78-.511-.038-.919.102-1.235.424-.584.595-.985 1.295-.967 2.156l.167 6.093c.001.044.024.088.056.195zm-8.297-8.142l.114.059c.091-.072.177-.153.275-.215.168-.106.337-.27.517-.286.465-.041.726-.306.929-.681.126-.233.28-.451.39-.691.075-.165.137-.356.133-.534l-.155-5.758c-.002-.062-.009-.125-.018-.186-.027-.181-.123-.266-.316-.267-.467-.003-.874.174-1.161.514-.508.602-.891 1.267-.866 2.109.032 1.108.01 2.218.036 3.326.021.87.08 1.74.122 2.609zm5.04-25.8c-1.508-.16-2.083-1.022-1.961-2.449l-.541-.034c-.186-.017-.376-.022-.554-.069-.588-.157-.818-.66-.612-1.229.099-.275.143-.572.191-.863.029-.178-.064-.317-.252-.327-.621-.032-1.025-.392-1.363-.867-.058-.081-.155-.187-.238-.19-.46-.018-.922-.009-1.409-.009.038.216.087.382.091.548s-.04.341-.055.512c-.033.375-.016.396.363.505.892.257 1.365.836 1.456 1.78.03.308.09.385.423.327.426-.075.801.047 1.177.201.304.124.466.353.459.689l-.016.562c0 .182.092.286.275.321.167.031.342.053.495.121.968.43 1.34 1.534.864 2.526-.043.089-.072.185-.122.319h.561c.355-.005.694-.002 1.046.138.397.158.739.314.817.778.188.049.357.084.518.138.19.063.391.117.559.22.448.276.696.699.8 1.21.031.15.026.354.218.373.283.027.573.156.873.015l.103-1.311c-1.319-.09-1.908-.837-2-2.049-.265 0-.481.003-.697-.001a16.93 16.93 0 0 1-.702-.025c-.595-.036-.98-.538-.869-1.117.043-.227.063-.458.101-.743zm-10.864 3.35c.221-.079.37-.11.496-.182.529-.301.882-.774 1.218-1.267.31-.454.459-.928.431-1.49l-.194-5.06a4.31 4.31 0 0 0-.07-.605c-.057-.312-.17-.373-.454-.237-.166.08-.309.207-.475.288-.786.389-1.139 1.086-1.146 1.894-.015 1.672.057 3.344.102 5.017.014.512.057 1.024.093 1.643zm3.574 36.915c.124-.039.2-.04.232-.077.337-.393.76-.57 1.275-.548.069.003.162-.032.208-.082.331-.368.651-.713.65-1.286-.005-2.125-.032-4.247-.201-6.367-.051-.639-.171-.565-.643-.318-.133.07-.237.199-.346.309-.516.516-.767 1.178-.902 1.865-.125.64-.144 1.301-.199 1.954-.035.42-.027.844-.078 1.262-.13 1.076-.05 2.148.004 3.289zm2.104-41.985c-.531.05-.816.466-1.233.598-.422.53-.794 1.09-.776 1.801l.177 6.085c.001.047.002.094.008.14.037.274.131.334.371.227.099-.044.191-.105.282-.164.525-.337.863-.84 1.2-1.345.215-.322.304-.664.289-1.057l-.137-4.26c-.028-.651-.114-1.3-.18-2.026zm-9.755-25.617c-.456-.073-.812-.013-1.127.232-.664.515-1.089 1.198-1.08 2.03.02 1.969.114 3.936.182 5.904.002.066.05.131.079.201.072-.026.134-.029.156-.06.297-.423.702-.644 1.215-.685.069-.005.157-.053.195-.109.268-.397.565-.766.55-1.305-.034-1.203-.004-2.408-.031-3.612-.019-.856-.089-1.71-.138-2.596zm15.675 42.365c.733-.28 1.105-.563 1.509-1.156.183-.27.331-.564.51-.837a1.17 1.17 0 0 0 .187-.754l-.225-3.744c-.04-.639-.094-1.278-.151-1.916-.014-.16.002-.349-.133-.41-.377.167-.703.301-1.019.455-.121.059-.251.143-.324.252-.328.482-.576.982-.559 1.602.039 1.407.021 2.815.055 4.222.018.746.096 1.491.15 2.286zm-13.804 3.211c.167-.052.281-.071.38-.121.668-.337 1.081-.918 1.463-1.532.13-.209.18-.421.177-.664-.011-.75.012-1.501-.017-2.25l-.194-3.744c-.01-.175-.062-.348-.095-.521l-1.106.504c-.08.038-.157.102-.209.173-.354.486-.612.996-.591 1.634l.123 5.107c.011.448.042.895.068 1.414zm-3.691-3.939c.8-.28 1.239-.881 1.656-1.51a1.4 1.4 0 0 0 .252-.834c-.016-.735.008-1.471-.022-2.205l-.21-4.122c-.003-.058-.037-.114-.052-.16-.307-.139-.481.091-.693.203-.861.457-1.226 1.205-1.23 2.147-.003.641.036 1.282.051 1.922l.083 3.565c.011.321.006.653.165.993zm25.729 14.033l-.376.267c-.137.099-.259.244-.411.291-.379.115-.587.382-.76.709-.232.436-.346.891-.333 1.389l.143 5.904c.002.062.003.126.014.187.034.178.142.235.307.167.1-.041.198-.092.291-.147.538-.319.901-.801 1.233-1.315.148-.229.206-.469.213-.746.049-1.986-.017-3.967-.194-5.945-.019-.213-.069-.423-.127-.759zm-24.221 4.337c.285-.171.534-.275.725-.444.623-.553 1.204-1.133 1.188-2.068-.035-2.017-.011-4.036-.192-6.049-.01-.113-.051-.222-.075-.318l-1.096.465a.42.42 0 0 0-.138.123c-.395.476-.703.997-.706 1.635-.003.704.026 1.407.049 2.111l.142 3.94c.007.178.06.355.104.605zm13.868-29.59c-.163.022-.32.018-.459.066-.753.261-1.473 1.248-1.461 2.057l.132 6.046c.002.078.059.155.1.257.081-.062.144-.089.175-.136a1.4 1.4 0 0 1 1.125-.653c.112-.009.258-.076.318-.164.259-.385.53-.759.502-1.274l-.203-4.447c-.025-.483-.094-.963-.148-1.444-.01-.089-.045-.175-.081-.307zM47.51 29.946c.091-.028.166-.04.232-.072.703-.348 1.125-.96 1.525-1.601a1.36 1.36 0 0 0 .223-.793l-.083-3.28c-.004-.23.042-.461.051-.691.004-.104.002-.224-.044-.313l-.833-1.568c-.081-.154-.202-.2-.348-.135-.122.054-.254.122-.338.221-.449.523-.735 1.114-.712 1.826l.089 2.953.055 2.485c.01.322.014.652.182.969zm18.319 39.758c.036.309.075.581.097.855.076.934.175 1.867.211 2.802.042 1.107.063 2.217.029 3.324-.035 1.138-.146 2.275-.222 3.412-.008.125-.009.25-.011.375-.002.166.077.273.246.279.42.013.84.021 1.26.019.238-.001.318-.145.304-.373-.042-.67-.056-1.342-.117-2.011-.15-1.637-.175-3.274-.078-4.914.017-.292-.046-.52-.27-.752-.541-.558-.486-1.34.082-1.872.09-.084.202-.146.29-.233.268-.267.209-.84-.11-.899a4.83 4.83 0 0 0-1.711-.011zm-22.837-4.303l.001 1.148.128 5.717c-.004 1.828-.102 3.656-.155 5.483-.023.797.017.832.828.807l.094-.004c.461-.028.518-.076.497-.533-.03-.655-.11-1.309-.119-1.964l-.044-6.285c-.001-.272-.038-.513-.189-.752-.297-.471-.344-1.011-.038-1.462.354-.521.354-1.081.397-1.654.02-.267-.106-.405-.342-.484-.336-.111-.671-.117-1.057-.017zm2.412-6.422h-.04c0 .515.02 1.032-.004 1.546l-.186 3.183c-.017.309.053.393.361.426.232.025.468.029.701.018.36-.018.395-.067.381-.426l-.117-3.14-.037-5.206c-.001-.29-.055-.548-.2-.804-.286-.505-.277-1.029.049-1.505a1.5 1.5 0 0 0 .269-.918c-.003-.172.015-.344.025-.515.028-.476-.015-.543-.464-.646-.151-.035-.309-.052-.463-.049-.434.011-.508.108-.479.536.072 1.076.17 2.152.195 3.229.034 1.423.008 2.846.008 4.27zm-4.859 3.429l.025-.421c.02-.505-.099-.649-.6-.677-.167-.009-.341.021-.505.06-.23.055-.319.219-.306.456.068 1.2.173 2.4.187 3.601.02 1.779-.011 3.56-.048 5.339-.023 1.108-.096 2.215-.149 3.322-.011.23.101.362.319.379.263.021.53.041.791.016.309-.029.358-.117.336-.434-.028-.421-.075-.841-.082-1.262l-.095-6.794c-.003-.259-.055-.475-.2-.699-.399-.611-.371-1.2.08-1.777.146-.187.212-.369.213-.596.001-.171.022-.343.035-.514zm12.231-8.397v-.472l-.11-3.705-.027-5.209a1 1 0 0 0-.252-.719c-.557-.644-.53-1.481.069-2.066.239-.233.33-.473.309-.787-.009-.14.006-.281.012-.422.021-.5-.072-.61-.564-.637-.155-.009-.314-.007-.466.02-.28.049-.396.199-.397.484-.001.109.013.219.018.328l.221 4.307c.036 1.109.01 2.221.002 3.331-.002.288.049.538.203.796.332.555.324 1.141-.051 1.675-.182.259-.255.514-.257.824-.003.358-.061.716-.09 1.075-.02.249-.041.499-.044.749-.003.326.057.405.36.423.325.019.652.004 1.065.004zm1.096 10.523l-.083.003.004 2.86c.002.231.025.47.086.692.087.317.066.612-.043.917-.073.202-.131.417-.149.63-.045.56-.063 1.123-.094 1.684-.02.365.042.466.386.506.246.028.499.021.748.007.215-.011.346-.129.334-.364-.005-.109-.004-.219-.013-.328-.191-2.558-.232-5.12-.192-7.683.005-.333-.061-.592-.272-.852a1.43 1.43 0 0 1 .088-1.991c.201-.205.307-.419.31-.699.001-.124.023-.249.038-.373.085-.725-.043-.876-.779-.914a1.68 1.68 0 0 0-.28.008c-.314.037-.369.108-.353.421l.264 5.476zm-14.88-13.125c-.032 0-.065 0-.097 0l.003-3.565c.002-.278-.059-.499-.262-.716-.532-.567-.596-1.418-.072-1.956a1.49 1.49 0 0 0 .45-1.206c-.003-.077.021-.155.03-.232.069-.603-.012-.598-.562-.755-.273-.078-.56.013-.743.187-.11.105-.095.373-.088.566.057 1.609.17 3.218.179 4.827.011 1.75-.067 3.501-.115 5.251-.017.625-.061 1.25-.086 1.875-.016.399.042.46.443.484a5.46 5.46 0 0 0 .562.005c.368-.015.443-.084.433-.452-.01-.39-.066-.779-.07-1.169l-.004-3.143zm.146-22.146c-.195.02-.339.008-.465.052-.46.158-1.127.829-1.117 1.478l.011 6.803c0 .047-.002.094.002.141.026.303.131.364.383.209.487-.3.848-.727 1.168-1.193.209-.304.319-.627.304-1.008l-.193-5.624c-.009-.263-.056-.524-.093-.858zm3.701 29.713c-.048-.703-.105-1.406-.115-2.109l-.045-5.209c-.003-.209-.029-.454-.139-.619-.448-.674-.411-1.311.041-1.959.095-.136.19-.3.205-.459.04-.419.034-.843.052-1.266.008-.186-.089-.296-.25-.351-.118-.04-.241-.072-.364-.085-.611-.066-.842.14-.808.747.039.686.136 1.371.146 2.057l.028 5.677c0 .304.048.56.254.819.429.538.424 1.321-.031 1.816-.305.332-.393.681-.4 1.103-.018.988.101 1.104 1.083.975.016-.002.031-.003.047-.005.205-.018.306-.122.299-.337-.008-.266-.002-.532-.002-.797zm16.283 4.711c.036-.859-.098-.996-.884-.99-.047 0-.094-.001-.14.003-.325.029-.382.084-.379.402.002.187.029.374.036.561l.176 4.59c.022 1.015-.029 2.031-.032 3.046-.001.213.021.448.111.635.24.5.174.965-.057 1.438-.067.137-.129.287-.143.437a21.53 21.53 0 0 0-.078 1.216c-.038.871.018.923.892.886.484-.021.535-.069.516-.554l-.12-2.904-.054-5.11c-.002-.264-.06-.464-.249-.668-.531-.573-.543-1.506.01-2.041.315-.305.45-.614.396-.947zM38.948 10.969c-.2-.378-.259-.305-.834-.404-.433-.075-.53.012-.539.463l-.018 2.064.015 9.762c.003.825-.207.958.926.872.436-.033.465-.078.433-.52-.076-1.06-.184-2.119-.208-3.181-.042-1.829-.033-3.659-.041-5.489-.001-.287-.032-.495-.317-.706-.923-.681-.745-2.145.217-2.565.143-.062.253-.201.367-.296zm5.919 29.666l.004-3.618c.002-.322-.053-.582-.286-.845-.581-.656-.472-1.499.023-1.998.3-.302.407-.601.39-.992a2.17 2.17 0 0 1 .023-.468c.081-.461-.168-.573-.507-.613a1.67 1.67 0 0 0-.556.027c-.302.069-.386.187-.365.502.028.42.108.838.12 1.259.068 2.295.191 4.591.06 6.888a1.1 1.1 0 0 0 .179.702c.394.614.367 1.233-.061 1.834-.088.124-.188.263-.209.406-.056.386-.073.777-.103 1.166-.014.186.081.305.259.329.246.033.495.068.742.058.419-.016.466-.094.448-.523l-.161-4.114zm-2.702-14.168h.236c.478-.029.562-.117.535-.607-.018-.328-.079-.653-.085-.981l-.093-6.799c-.003-.241-.013-.442-.2-.638-.575-.603-.707-1.476.063-2.247a.81.81 0 0 0 .216-.391c.056-.29.068-.589.094-.884.038-.423-.062-.575-.476-.648a1.55 1.55 0 0 0-.555.01c-.338.066-.431.219-.405.567l.092 1.309c.143 2.186.157 4.374.096 6.563-.011.399.033.755.248 1.114.285.473.279 1.007-.048 1.458-.245.337-.352.68-.342 1.082.004.171-.007.343-.026.513-.046.415-.019.461.374.541.122.025.246.037.276.041zm-1.32 15.418c.008-.186.027-.352.022-.518l-.168-4.828c-.026-1.11-.004-2.221-.001-3.331.001-.224-.005-.417-.239-.56-.791-.483-.79-1.985.091-2.478.379-.212.322-.526.311-.846-.002-.064-.061-.156-.118-.183-.316-.148-.635-.236-.991-.093-.248.1-.322.252-.306.505l.222 3.885c.101 2.629-.09 5.252-.209 7.876-.008.178.021.358.035.57h1.352zm8.073 7.103l-.001-.755c-.063-2.53-.25-5.057-.164-7.59.008-.24-.081-.406-.237-.58-.544-.604-.569-1.454.004-2.031a1.27 1.27 0 0 0 .389-1.036c-.004-.109.009-.218.013-.328.025-.593-.087-.716-.676-.724a1.8 1.8 0 0 0-.373.028c-.283.056-.39.2-.371.497.013.202.049.403.059.606.045.936.109 1.873.121 2.81l.003 4.637c-.002.303.033.567.195.844.341.584.347 1.199-.071 1.757-.171.227-.246.456-.251.73-.004.218-.044.435-.05.654-.005.165.016.331.026.5.475.077.901.195 1.383-.018zm-1.856-30.237l-.811-1.532c-.069-.129-.171-.271-.324-.18-.116.069-.185.223-.263.347-.019.03.013.09.015.137.069 1.2.175 2.4.196 3.601.029 1.702-.008 3.405-.011 5.108 0 .201-.011.42.061.6.178.446.02.839-.065 1.271-.121.615-.106 1.257-.148 1.887-.001.012.017.025.043.061.422.098.86.16 1.313-.012l-.001-.793-.141-5.895c-.011-.468-.023-.936-.001-1.403.017-.344-.037-.618-.287-.893-.489-.536-.491-1.315-.046-1.893.12-.156.3-.264.47-.409zm16.937 46.146c.047.008.094.009.14.008.548-.009.579-.038.548-.599-.025-.452-.083-.903-.088-1.355l-.055-6.796c-.001-.289-.072-.511-.285-.702-.335-.3-.457-.691-.456-1.133.002-.492.228-.873.593-1.169.383-.311.275-.727.276-1.12 0-.058-.082-.152-.143-.169-.281-.077-.567-.173-.854-.184-.334-.012-.433.127-.41.475.035.545.109 1.088.127 1.634l.201 6.695c.006.184.022.376.08.55.139.422.118.824-.049 1.234a2.54 2.54 0 0 0-.167.628c-.067.525-.108 1.053-.164 1.579-.034.317.024.398.331.421.124.009.25.001.374.001zM53.056 83.402c.134-.038.232-.062.328-.094.557-.186 1.106-.405 1.673-.551.44-.113.505-.112.49-.567l-.208-5.333c-.007-.159-.075-.315-.117-.482-.263.054-.411.161-.526.347s-.233.397-.407.499c-.531.311-.675.826-.8 1.359-.218.932-.254 1.882-.292 2.834-.02.512-.095 1.022-.139 1.533-.012.135-.002.271-.002.454zm-3.55-28.447c0 .424-.019.782.004 1.138.06.935.171 1.867.203 2.803l.096 4.689c.005.214.074.427.088.642.021.34.117.719.004 1.013-.159.416-.157.817-.164 1.236-.003.171-.02.344-.049.513-.055.318-.124.633-.191.97.32.179.657.205 1.001.161.33-.042.403-.122.395-.454-.012-.516-.06-1.03-.067-1.546l-.071-6.8c-.002-.267-.067-.461-.265-.659-.696-.696-.633-1.654.11-2.301.111-.096.228-.229.26-.364.202-.84-.012-1.097-.873-1.081-.152.003-.304.026-.482.041zm9.521 5.764c.344.046.583.102.824.105.506.006.607-.111.587-.605l-.081-2.013-.081-5.765c-.003-.381-.016-.729-.226-1.071-.281-.459-.288-.974.013-1.415.246-.36.323-.726.319-1.138-.001-.14.009-.283.039-.42.129-.6-.165-.793-.713-.799-.125-.001-.25-.005-.374.005-.282.023-.348.099-.328.389l.145 1.915.253 3.692c.057 1.06.03 2.127.125 3.183.059.654.095 1.266-.065 1.927-.15.622-.095 1.298-.436 2.008zm-10.405 9.167c.058-.638-.09-.807-.739-.837-.093-.004-.188-.006-.281.002-.327.028-.403.125-.378.451.081 1.06.193 2.119.23 3.18l.114 5.301c.006.261.083.52.11.781.024.229.101.494.019.684-.214.494-.215.999-.233 1.515-.007.214-.078.427-.129.639-.142.585-.087.662.503.671a11.07 11.07 0 0 0 .515-.008c.191-.006.281-.117.288-.299.004-.109-.004-.219-.008-.328-.118-2.657-.225-5.314-.167-7.975.006-.272-.058-.477-.265-.659-.296-.26-.418-.6-.431-.999-.016-.507.159-.918.543-1.236.181-.15.291-.313.278-.556-.006-.108.019-.218.031-.327zm13.266 8.362c-.102.962-.053.938.812.933.46-.003.493-.045.476-.529l-.104-2.905-.022-4.689c0-.257-.029-.472-.227-.679-.691-.725-.622-1.675.132-2.345.097-.086.201-.204.226-.323.14-.675.007-.835-.687-.872-.078-.004-.156-.008-.234-.006-.433.011-.484.077-.454.498.066.92.16 1.839.178 2.76l.036 5.252c.002.227.104.451.119.679.024.353.108.743-.006 1.054-.15.405-.264.794-.245 1.171zm-10.488 7.544c.136-.177.215-.254.263-.347l.825-1.622c.133-.245.171-.486.165-.76l-.095-5.437a.89.89 0 0 0-.216-.591c-.533-.665-.49-1.458.107-2.075.187-.193.294-.393.29-.661-.003-.187.015-.375.021-.562.017-.598-.075-.708-.663-.767-.139-.014-.281-.007-.421 0-.222.011-.347.122-.337.357.004.109.005.219.014.328.047.561.132 1.12.139 1.681l.037 6.05c.003.355.068.71.088 1.066.015.264.032.532 0 .792-.057.463-.169.918-.224 1.381-.041.346-.098.7.01 1.167zm4.564-28.848c.62.002.683-.063.652-.704-.029-.609-.087-1.217-.094-1.825l-.027-5.909c0-.274-.034-.517-.213-.74-.168-.209-.25-.456-.264-.736-.023-.463.089-.862.418-1.198.234-.239.253-.551.154-.833s-.414-.257-.649-.277c-.572-.049-.762.148-.725.728l.234 3.412c.054 1.202.063 2.405.08 3.608.004.241.035.457.165.667.337.546.318 1.108-.046 1.624-.199.283-.303.567-.309.906-.003.17-.046.34-.076.509-.116.653-.047.742.605.768.031.001.062 0 .094 0zm-6.2-32.932l-.099.047c.018.261.05.521.052.781l.022 4.693c0 .238.02.454.163.665.439.649.385 1.288-.079 1.91-.08.108-.159.243-.17.371-.062.716-.107 1.434-.147 2.152-.014.255.09.378.348.406a4.98 4.98 0 0 0 .702.017c.392-.013.439-.082.422-.489l-.15-4.078-.031-4.27c-.002-.213-.02-.446-.108-.634-.221-.479-.483-.94-.738-1.404-.038-.069-.123-.112-.187-.167zM37.849 1.543l-.142.074c0 .129-.011.259.002.387.03.279.1.555.108.834.049 1.902.146 3.805-.124 5.701-.071.498.003.567.52.58a20.18 20.18 0 0 0 1.075 0c.358-.011.418-.103.394-.468l-.25-3.921c-.011-.164-.049-.34-.125-.484l-1.328-2.461-.129-.242zm13.595 25.43c-.315.347-.406.692-.396 1.079l.146 5.803c.003.117.037.233.072.44.141-.146.226-.227.301-.314.233-.269.512-.44.875-.482.43-.05.468-.095.464-.529l-.038-1.965c0-.214.003-.461.105-.633a.49.49 0 0 0-.008-.597c-.093-.142-.159-.301-.241-.451l-1.281-2.35zm16.226 30.62l-.172.098c.008.133.01.266.025.397.028.232.089.463.095.695l.125 5.857c.004 1.042-.013 2.091-.251 3.118-.042.181-.048.371-.066.558s.064.3.261.307c.218.007.437.022.655.016.453-.014.496-.069.465-.54-.01-.156-.025-.312-.028-.468l-.146-7.498c-.005-.318-.036-.609-.189-.9-.238-.454-.432-.931-.646-1.397-.038-.083-.085-.162-.128-.242zm1.411 10.661c.32.02.367-.197.445-.345.225-.427.403-.879.644-1.297.339-.588.552-1.219.716-1.869.039-.156.039-.356-.026-.497l-1.391-2.906c-.041-.085-.133-.146-.229-.246-.238.397-.355.775-.343 1.187l.14 4.731.045 1.243zm-15.366-36.86c-.014.058-.046.127-.046.196l.018 2.014c.005.162.067.337.15.479.374.633.336 1.235-.065 1.842a1.35 1.35 0 0 0-.203.555c-.058.449-.064.903-.115 1.353-.091.797-.098.796.708.797.647 0 .656 0 .635-.646l-.163-4.727c-.019-.75-.474-1.284-.84-1.867-.004-.006-.028.001-.079.004zm2.095 51.177c.238 0 .39.011.54-.002.365-.034.426-.097.437-.462.01-.343-.009-.687.011-1.029a1.21 1.21 0 0 0-.267-.859c-.427-.561-.414-1.346.063-1.85a1.31 1.31 0 0 0 .389-1.042 2.37 2.37 0 0 1 .01-.374c.069-.636-.091-.552-.568-.694-.116-.034-.248-.029-.371-.022-.406.022-.475.119-.451.52l.202 3.689c.028.683.005 1.369.005 2.126zM38.93 38.093c-.336.196-.6.386-.892.512-.323.14-.485.323-.475.699.023.889.006 1.779.01 2.669.001.12.027.24.043.378h1.36c-.235-.399-.178-.788-.153-1.171.027-.405.09-.808.102-1.212.018-.602.005-1.204.005-1.876zm16.164.089c.193-.075.342-.107.461-.185.419-.277.753-.639 1.034-1.057a.46.46 0 0 0 .021-.554l-1.367-2.495c-.054-.098-.147-.175-.221-.261-.179 1.518.008 2.994.073 4.553zm-1.637 5.895c.622-.004 1.171-.545 1.161-1.163-.011-.696-.636-1.22-1.185-1.215-.562.005-1.19.616-1.159 1.24.032.637.539 1.142 1.183 1.138zm-.053 30.763c-.706.059-1.173.662-1.143 1.247.032.621.565 1.2 1.165 1.171.683-.032 1.152-.601 1.163-1.24.009-.588-.624-1.188-1.185-1.179zM40.704 55.888c-.595 0-1.171.615-1.164 1.243.007.606.571 1.182 1.163 1.184.607.003 1.186-.606 1.173-1.231-.013-.6-.598-1.197-1.171-1.197zm-1.516-42.077c.588-.003 1.157-.581 1.167-1.185.01-.623-.572-1.225-1.178-1.217-.62.007-1.175.596-1.163 1.231.013.611.577 1.174 1.173 1.171zm19.638 65.51c-.001-.612-.548-1.192-1.151-1.189-.614.002-1.176.535-1.173 1.213s.645 1.204 1.151 1.203c.548 0 1.185-.533 1.173-1.227zm-6.291-12.032a1.2 1.2 0 0 0-1.201 1.127c-.03.649.501 1.256 1.112 1.273.618.017 1.2-.547 1.222-1.186.021-.594-.537-1.192-1.133-1.214zm-6.216 10.67c-.591-.012-1.162.55-1.181 1.163-.019.638.531 1.238 1.143 1.248.584.009 1.17-.558 1.2-1.162s-.565-1.237-1.162-1.249zm10.948-40.143c-.043.403-.122.775.085 1.138.368.645.37 1.269-.093 1.878a1.06 1.06 0 0 0-.183.414c-.054.259-.073.526-.108.789-.108.791-.102.798.674.8h.187c.481-.009.533-.058.511-.554l-.146-2.857c-.017-.31-.628-1.38-.927-1.607zm7.855 27.461c-.032.684.574 1.209 1.163 1.21.599.001 1.134-.558 1.152-1.188.017-.613-.575-1.239-1.175-1.214-.695.029-1.199.706-1.141 1.193zM40.699 22.306c-.625.015-1.189.565-1.18 1.206.009.632.521 1.179 1.14 1.189s1.161-.512 1.185-1.147c.024-.623-.538-1.235-1.145-1.248zm1.808 27.762c-.006.667.51 1.205 1.164 1.213.588.007 1.166-.58 1.162-1.181s-.569-1.236-1.134-1.224c-.61.014-1.208.515-1.193 1.193zm.037 14.398c.056-.656-.625-1.202-1.127-1.191-.621.013-1.209.576-1.188 1.204.023.681.623 1.225 1.201 1.191.62-.037 1.117-.548 1.114-1.203zm14.523-6.712c-.015.671.576 1.171 1.137 1.206.573.036 1.199-.623 1.19-1.22-.009-.613-.561-1.184-1.154-1.196-.628-.012-1.17.546-1.173 1.209zm-8.334-25.487c.657.01 1.202-.522 1.198-1.171-.004-.623-.535-1.188-1.135-1.208-.614-.02-1.19.556-1.191 1.191-.001.649.502 1.178 1.129 1.188zm-7.901 13.828c0-.621-.545-1.173-1.158-1.173a1.22 1.22 0 0 0-1.181 1.151c-.015.613.576 1.272 1.16 1.25.662-.025 1.197-.649 1.18-1.227zm2.667-28.572c.667.008 1.184-.507 1.202-1.162.015-.528-.466-1.21-1.175-1.211-.586-.001-1.158.585-1.162 1.187-.003.5.45 1.233 1.135 1.186zm.995 17.66c-.032.649.543 1.167 1.124 1.225.56.056 1.188-.605 1.2-1.211.012-.591-.557-1.198-1.141-1.216-.619-.019-1.179.551-1.183 1.202zm15.28 29.248c-.594-.011-1.125.551-1.158 1.181-.036.698.528 1.218 1.129 1.248.582.029 1.158-.559 1.184-1.172.025-.604-.566-1.247-1.155-1.257zm-3.041 9.326c.621-.004 1.148-.533 1.155-1.162.008-.623-.575-1.22-1.178-1.211a1.24 1.24 0 0 0-1.154 1.236c-.003.531.544 1.211 1.177 1.137zM43.94 42.36c.063-.627-.562-1.217-1.157-1.224-.572-.007-1.163.616-1.163 1.196 0 .613.606 1.257 1.181 1.229s1.193-.602 1.139-1.201zm3.55 10.288c-.674.087-1.149.66-1.136 1.271a1.26 1.26 0 0 0 1.182 1.165c.602 0 1.179-.656 1.15-1.26-.028-.591-.639-1.19-1.197-1.175zm2.049-12.409c.629.009 1.175-.55 1.175-1.201-.001-.608-.559-1.184-1.153-1.188-.614-.005-1.148.533-1.158 1.165-.011.68.486 1.216 1.136 1.224zm13.933 21.363c0-.678-.518-1.228-1.146-1.219-.586.009-1.139.588-1.144 1.199a1.22 1.22 0 0 0 1.169 1.209c.482.007 1.183-.5 1.12-1.189zm-10.869-4.057c-.006-.617-.555-1.186-1.148-1.189-.61-.003-1.179.593-1.168 1.223s.561 1.191 1.153 1.18c.641-.011 1.169-.562 1.163-1.214zm3.687-10.636c-.044.59.582 1.221 1.187 1.194.583-.026 1.172-.624 1.133-1.219-.043-.649-.538-1.165-1.158-1.183-.598-.017-1.224.63-1.161 1.208zm-7.092 26.235c.605-.006 1.173-.61 1.158-1.231a1.21 1.21 0 0 0-1.175-1.156c-.623 0-1.141.529-1.146 1.172-.004.649.542 1.221 1.162 1.214zm-3.917-3.71c.621-.009 1.12-.54 1.12-1.192s-.554-1.212-1.175-1.197c-.582.014-1.165.607-1.138 1.205.032.685.574 1.223 1.193 1.184zm16.015-17.574c.611.005 1.15-.53 1.168-1.161a1.23 1.23 0 0 0-1.164-1.215c-.613 0-1.145.535-1.156 1.163-.011.664.506 1.208 1.152 1.213zM49.701 64.803c.007-.643-.505-1.204-1.114-1.219-.63-.016-1.184.548-1.182 1.204.002.636.533 1.191 1.145 1.195s1.144-.543 1.151-1.179zm-3.006-17.434c.592.053 1.132-.489 1.149-1.153.017-.648-.527-1.228-1.145-1.228s-1.167.58-1.15 1.225c.018.68.558 1.204 1.146 1.157zm5.961-13.589c-.648 0-1.141.495-1.15 1.155-.009.65.539 1.245 1.152 1.221.664-.026 1.155-.59 1.176-1.225.019-.597-.569-1.151-1.178-1.151zM41.3 30.239c-.47-.044-1.149.495-1.158 1.173-.009.689.583 1.233 1.144 1.225a1.18 1.18 0 0 0 1.157-1.163c.014-.656-.521-1.231-1.143-1.234zM51.377 82.85c.033-.623-.528-1.167-1.129-1.198s-1.18.591-1.168 1.217c.013.664.554 1.207 1.186 1.19.615-.016 1.119-.564 1.112-1.209zm3.113-27.725c.592.004 1.163-.552 1.159-1.173-.005-.768-.609-1.227-1.154-1.209a1.16 1.16 0 0 0-1.15 1.157c-.007.664.514 1.221 1.145 1.226zm-5.045-5.07c-.002.657.489 1.168 1.13 1.174.687.006 1.173-.484 1.167-1.178-.005-.638-.52-1.181-1.125-1.205-.479-.019-1.216.516-1.172 1.209zm12.509 26.507c.024-.675-.638-1.187-1.135-1.19-.543-.003-1.189.49-1.169 1.199.018.658.555 1.216 1.181 1.202.592-.013 1.127-.589 1.124-1.21zm-5.78-35.564c.693.048 1.163-.548 1.166-1.178.002-.612-.548-1.19-1.134-1.201-.617-.012-1.154.553-1.153 1.214.001.672.471 1.162 1.121 1.166zm.644 20.7c.009-.672-.496-1.211-1.142-1.219-.609-.007-1.147.536-1.155 1.166-.008.658.522 1.221 1.151 1.223.614.001 1.137-.533 1.146-1.17zM44.581 26.185c-.532-.071-1.162.535-1.143 1.163.019.663.528 1.223 1.156 1.217a1.22 1.22 0 0 0 1.155-1.181c.013-.729-.658-1.269-1.167-1.199zm18.061 43.111c-.035.677.571 1.171 1.141 1.171.608-.001 1.14-.555 1.148-1.19.008-.619-.536-1.188-1.143-1.195-.65-.007-1.147.519-1.146 1.214zm5.697 1.462c-.625.005-1.172.523-1.158 1.096.013.531.562 1.092 1.104 1.07.761-.031 1.202-.514 1.229-1.093.027-.572-.547-1.079-1.175-1.074zm-3.053-17.605l-.268.05a1.25 1.25 0 0 0-.942 1.037c-.05.516.243.955.694 1.217s1.12.04 1.389-.399c.071-.115.106-.313.057-.431a10.88 10.88 0 0 0-.601-1.211c-.073-.128-.245-.199-.328-.264zm-5.265-10.529c-.51.3-.816.665-.793 1.228.031.777.891 1.43 1.633 1.028.297-.161.333-.25.172-.551-.257-.479-.528-.951-.797-1.423-.052-.091-.127-.168-.214-.282zM42.106 9.802c-.354-.684-.648-1.375-1.063-2.031-.483.249-.719.597-.727 1.09s.21.858.659 1.084c.382.193.737.202 1.131-.143zm5.108 9.257c-.596.335-.8.902-.574 1.452.237.577.85.892 1.398.721.16-.05.255-.152.172-.312l-.996-1.862zM58.66 42.833c.41.033.66-.208.938-.398.214-.146.222-.296.101-.511l-.891-1.63c-.049-.086-.161-.137-.243-.204l-.108.058.202 2.684zm2.418 3.856c.476.075.865.244 1.265-.002-.489-1.032-.761-1.459-1.038-1.612l-.227 1.614zM39.939 6.022c-.056.736.001 1.441.112 2.156l.804-.764c-.325-.441-.506-.981-.916-1.393zm2.498 4.439c-.183.423-.143.757-.114 1.084.006.064.12.154.197.168.144.027.297.008.506.008-.124-.459-.356-.805-.589-1.26z"/><path d="M28.886 88.916l-.04 1.094c-.141 1.777-1.327 3.447-3.037 4.035-2.029.697-4.206-.126-5.271-2.086-.43-.791-.538-1.642-.534-2.535.005-1.133.422-2.096 1.066-2.986.355-.49.835-.833 1.373-1.099l.399-.223c-.09-.074-.149-.16-.194-.154l-1.423.242c-.504.113-.978.312-1.401.617-.383.276-.642.646-.73 1.108-.248 1.31-.36 2.633-.285 3.967.023.404.092.807.169 1.205a.89.89 0 0 0 .782.76c.06.01.117.038.199.066v1.135c-.145.018-.264.045-.383.045l-3.656.002c-.456-.001-.471-.018-.48-.476l-.001-.669c.867-.397.868-.397.866-1.324l-.01-1.596c0-.044-.026-.087-.056-.178l-.483-.034c-.406-.005-.812.003-1.219-.002-.204-.002-.34.072-.341.289l.012 2.064c.008.259.147.469.424.558.131.042.25.121.382.187v1.099c-.358.097-4.558.127-5.227-.038.091-.051.197-.085.27-.156 1.107-1.074 1.639-2.404 1.716-3.928.05-.991-.118-1.964-.293-2.933a.57.57 0 0 0-.595-.498c-.276.001-.564.021-.825.103-.318.1-.405.278-.433.667l.455-.002c.354-.03.591.138.767.426.467.766.098 1.72-.937 1.88-.921.142-1.856-.658-1.991-1.586-.218-1.495.677-2.414 1.781-2.741.574-.17 1.126-.155 1.703-.04.731.146 1.439.452 2.204.37.412-.044.818-.139 1.257-.216a1.19 1.19 0 0 1-.348 1.102 1.08 1.08 0 0 0-.334.885l.008.751c.004.2.089.328.309.327h1.789c.05-.579.061-1.117-.014-1.655-.013-.091-.11-.212-.195-.244-.324-.121-.4-.416-.521-.682-.032-.07-.037-.152-.063-.225-.211-.595-.208-.591.265-.958 1.468-1.141 2.484-2.607 3.084-4.361l.454-1.566.774.725c.24.226.49.431.816.53.13.04.276.105.361.205.241.284.572.328.897.44 1.334.459 2.684.296 4.034.17l3.256-.35c.448-.04.906-.016 1.356.021 1.267.104 2.527.008 3.787-.109.195-.018.349-.058.442-.273.042-.098.21-.178.332-.198.23-.036.469-.007.7-.035.209-.025.412-.113.621-.131.273-.023.549-.006.856-.006-.022.106-.021.203-.062.275-.41.732-.418 1.505-.177 2.273l.822 2.234.517 1.353c.098.307.168.637.173.958l.063 7.281c-.133.027-.22.061-.307.06l-1.499-.016c-.334.011-.489-.134-.633-.425L33.89 88.28l-.154-.333c-.08.131-.166.206-.166.281l.018 3.848c.002.313.125.538.436.645.174.06.342.14.536.22v1.15l-3.354.017c-.124-.417-.093-.796-.037-1.176l.51-.159c.424-.124.592-.438.603-.846l.015-1.83v-2.769c-.003-.859-.602-1.231-1.415-.904-.259.105-.469.248-.598.491-.038.071-.015.174-.022.292.101 0 .178.015.247-.002.353-.092.659-.014.88.277.259.341.38.742.201 1.144-.392.881-1.256 1.244-2.153.66l-.549-.372zm-5.942-.257l-.11.016-.089.306c-.167.771-.03 1.53.148 2.274.092.384.281.758.489 1.098.223.365.599.528 1.033.534.815.012 1.277-.533 1.504-1.247.44-1.385.474-2.797.012-4.196-.109-.33-.275-.629-.551-.85s-.596-.195-.829.077c-.256.299-.336.663-.346 1.045-.012.46.055.506.501.487.224-.01.485-.007.669.098.428.245.553 1.063.259 1.466-.275.378-.847.646-1.363.492-.598-.179-.939-.578-1.146-1.134l-.179-.465zm11.41-3.532c-.049.236.13.266.233.337.647.447 1.089 1.047 1.399 1.766l1.189 2.635c.067.146.116.323.359.352.012-.126.039-.23.03-.331l-.205-1.952c-.183-1.004-.603-1.897-1.44-2.537-.145-.111-.316-.238-.487-.257-.351-.04-.71-.012-1.08-.012zm-4.71.015c-.475-.111-2.592-.103-3.004.031.785.362 1.285.934 1.681 1.699.212-.381.351-.71.561-.983s.49-.485.762-.746zm41.564-3.823c-.104.449-.483.67-.8.929-.657.537-1.419.89-2.208 1.187-1.197.45-2.439.734-3.687.995l-2.827.608-2.087.5c-.653.168-1.276.424-1.824.815-.874.625-1.197 1.419-.744 2.54.41 1.014.931 1.971 1.574 2.859l.86 1.167c.462.595 1.459.774 2.071.384.819-.521.803-1.887-.059-2.443l-.508.29c-.466.282-1.085.153-1.412-.279a1.16 1.16 0 0 1 .462-1.738c.67-.33 1.336-.23 1.968.115 1.022.559 1.533 1.474 1.58 2.599.051 1.231-.571 2.344-1.745 2.924-.67.331-1.357.276-2.018-.063-.974-.499-1.647-1.312-2.252-2.191l-.59-.951a.53.53 0 0 0-.523-.307l-1.828.001c-.215-.004-.367.061-.434.271l-.226.762c-.087.361-.01.472.355.556l.345.064v1.149c-.144.02-.262.049-.38.05l-3.796.001c-.434-.001-.449-.019-.456-.447l-.001-.66c.052-.062.067-.099.091-.107.557-.179.815-.581.995-1.129l1.671-4.766c.364-1.019 1.117-1.663 2.072-2.098.654-.298 1.343-.474 2.053-.6 1.897-.337 3.818-.336 5.73-.473l3.532-.385c.824-.168 1.633-.36 2.427-.65a8.66 8.66 0 0 0 2.426-1.37c.057-.046.135-.066.202-.099l-.011-.011zm-16.562 8.55H56.1c-.133-.344-.216-.642-.36-.908s-.108-.644-.495-.841l-.599 1.749zm-12.85 4.204v-1.187c.689-.09.788-.552.776-1.152l-.01-4.412c-.011-.5-.128-.675-.48-.724-.418-.057-1.002.23-1.104.55-.048.149.018.255.176.258.271.004.533.005.692.286.168.298.245.615.171.948-.143.645-.736 1.109-1.417 1.001-.668-.105-1.234-.727-1.34-1.444-.225-1.527.583-2.531 1.94-2.926s2.762-.489 4.171-.403c.636.039 1.282.101 1.895.262.877.231 1.605.751 2.176 1.462.884 1.099 1.289 2.322 1.023 3.752-.112.603-.216 1.194-.496 1.746-.478.944-1.23 1.53-2.239 1.839a4.12 4.12 0 0 1-1.194.175l-4.406.004c-.092 0-.183-.02-.333-.037zm3.342-4.631h.002l.008 2.293c.006.241.084.486.166.716.059.167.207.252.403.263.458.026.876-.066 1.185-.421.202-.232.419-.477.53-.756.514-1.299.513-2.622.03-3.928-.279-.755-.875-1.146-1.599-1.142-.551.003-.72.167-.724.729l-.001 2.246zm-5.957 16.109l-.572 1.064-1.536 2.516c-.148.251-.328.335-.606.326-.484-.017-.97-.027-1.452.002-.358.022-.532-.126-.658-.445l-1.285-3.162-1.244-2.976c-.122-.274-.359-.496-.545-.742l-.174-.214 2.555-.004c.245-.003.322.156.395.33l.817 1.99 1.037 2.755c.042.114.064.236.114.425.101-.117.195-.179.221-.262.26-.832.802-1.513 1.201-2.27l.852-1.449c.131-.24.288-.339.559-.309a2.76 2.76 0 0 0 .655-.001c.299-.04.456.102.586.343l2.014 3.693c.036.066.085.125.165.242l.178-.343 1.35-3.637.446-1.131c.1-.255.249-.391.558-.378l2.056.008c-.032.157-.038.281-.082.388l-1.181 2.852-1.58 3.797c-.205.492-.205.492-.756.493-.578 0-1.156-.01-1.734.005-.248.006-.417-.064-.528-.292l-1.606-3.275c-.052-.105-.128-.198-.221-.339zm-8.433 3.898c-.815 0-1.593.009-2.37-.01-.11-.002-.253-.113-.317-.215a12.45 12.45 0 0 1-.546-.978.57.57 0 0 0-.583-.36 134.1 134.1 0 0 1-3.698-.001c-.284-.005-.434.12-.551.335l-.501.951a.44.44 0 0 1-.437.282l-2.154-.006c-.041-.001-.083-.028-.133-.047.847-.947 1.329-2.105 1.961-3.168l2.206-3.903c.172-.312.374-.443.739-.416a11.87 11.87 0 0 0 1.497.002.63.63 0 0 1 .667.378l2.992 5.281.512.89.718.985zm-5.702-5.775l-.327.7-1.035 1.933c-.073.139-.111.297-.194.526h1.105l1.075-.004c.328-.018.675.095 1.018-.112l-1.643-3.043zm33.701 5.778h-.699c-.484 0-.968-.009-1.452.003-.293.008-.496-.061-.623-.364-.138-.329-.346-.628-.514-.944a.45.45 0 0 0-.452-.258 282.25 282.25 0 0 1-3.794-.001c-.254-.003-.409.092-.52.308l-.525.991c-.076.146-.161.265-.348.264l-2.447-.001c.845-.822 1.243-1.846 1.789-2.774l2.488-4.387c.145-.26.312-.388.626-.374l1.686.002a.5.5 0 0 1 .518.295l2.744 4.835.789 1.381c.211.338.463.65.732 1.024zm-5.651-5.704c-.069.065-.151.111-.185.18l-.288.635-.935 1.718c-.08.151-.25.301-.113.506.667.103 2.75.066 3.047-.054.004-.03.023-.068.011-.09l-1.536-2.895zm4.281-2.554c-.321-.739-.321-.739.247-1.761l-.292-.385c-.618-.83-.442-2.083.399-2.667.587-.407 1.252-.512 1.912-.229a1.32 1.32 0 0 0 1.035.033c.029-.011.058-.025.089-.03.207-.034.445-.197.612.014.182.23.085.496 0 .75h-.772l.094.523c.171.732-.11 1.508-.73 1.938-.422.292-.898.418-1.413.374-.046-.004-.091-.028-.137-.03-.181-.008-.331.084-.333.253a.39.39 0 0 0 .224.296c.314.084.64.127.963.163.294.032.597.003.887.056.936.168 1.3.862 1.029 1.728-.196.629-.656 1.061-1.236 1.336a5.94 5.94 0 0 1-1.228.421c-.508.113-1.451-.236-1.767-.816-.296-.544-.133-1.022.129-1.502.089-.164.196-.317.287-.464zm1.304.307l-.007.04-.327-.025c-.412-.028-.605.14-.626.543a.63.63 0 0 0 .28.564c.569.406 1.187.418 1.821.179.112-.043.238-.121.296-.22.09-.152.195-.347.17-.504-.034-.212-.206-.371-.457-.404l-1.149-.173zm1.003-3.493c-.063-.403-.114-.768-.396-1.057-.337-.346-.748-.309-1.02.087-.29.422-.189 1.427.181 1.794.312.31.71.306.954-.062.145-.22.191-.506.282-.763zm-44.359 3.913l2.393.002c.335.001.386.045.386.375l-.015 5.015c-.02 1.121-.579 1.731-1.66 2.012-.786.205-1.573.189-2.369.154a.6.6 0 0 1-.533-.311l-.566-.857 1.447.046a2.23 2.23 0 0 0 .642-.106c.422-.13.65-.421.653-.866l-.013-4.453c-.009-.33-.23-.654-.365-1.011z"/><path d="M11.08 96.832c-.037-.352.015-.466.287-.54l.913-.204c.194-.04.367-.033.469.191.082.18.216.164.391.092.3-.124.616-.211.927-.307.446-.137.829-.025 1.156.303.054.054.119.097.194.158l.87-.323a4.78 4.78 0 0 1 .587-.159c.692-.141 1.243.185 1.437.867a2.82 2.82 0 0 1 .105.739l-.01 2.817c-.005.493-.571.806-.996.537-.09-.057-.143-.237-.144-.361l.012-2.018-.029-.937c-.06-.6-.451-.863-1.05-.728l-.228.053c-.282.094-.369.209-.371.513l-.008 2.206-.036.89c-.025.307-.105.379-.399.417-.062.008-.125.008-.187.011-.47.017-.522-.025-.522-.485l.016-2.3c0-.234-.002-.473-.048-.701-.06-.304-.218-.57-.548-.631-.347-.064-.7-.006-.954.252-.1.102-.123.313-.125.475l-.005 2.346.001.376c-.008.592-.35.841-.917.649-.08-.028-.157-.143-.183-.233-.034-.116-.017-.248-.018-.373l-.001-2.91c-.002-.545-.023-.566-.586-.682zm20.981 17.683c.124-.45.036-.804.047-1.152l-.008-1.032v-1.113c.477-.061.906-.031 1.328-.026.114.342.146 3.992.042 4.627-.105.017-.222.047-.341.052l-.609.003c-.943 0-.951.007-1.551-.679l-2.124-2.481c-.053-.061-.137-.096-.262-.18l-.028.411.024 2.438c.002.468-.018.484-.463.49l-1.284.001c.378-.391.326-.814.324-1.228v-2.157c0-.219.023-.442-.011-.655s-.124-.407-.203-.649l2.014.008c.104.003.229.094.305.179l2.445 2.763.355.38zm19.461-3.309v1.157l.01.469a.22.22 0 0 0 .241.231l2.811.001c.106-.624-.007-1.233.076-1.852h1.391c.016.135.042.255.042.375v3.799c-.001.468-.014.48-.466.487l-.992.001v-1.977c-.398-.114-2.353-.143-3.05-.057-.164.632.021 1.309-.109 1.996h-1.622c.029-.073.066-.146.087-.224.056-.208.145-.417.148-.627l-.001-2.954c-.006-.269-.109-.536-.172-.825h1.606zm-7.553-10.172c-.41-.914-.586-1.902-.991-2.803l-.106-.014c-.069.145-.153.284-.204.435l-.643 1.953c-.057.161-.167.352-.306.424-.248.128-.442-.007-.553-.323l-.78-2.251-.354-1.014c-.113-.364-.307-.612-.716-.578-.125-.345-.094-.473.183-.556.312-.095.634-.162.957-.214.278-.045.383.041.472.328l.684 2.233c.04.129.103.251.203.491l.253-.58.645-2.004c.024-.074.046-.174.101-.206.14-.08.3-.175.45-.172.095.002.235.152.273.263l.669 2.093a1.28 1.28 0 0 0 .294.515l.182-.449.647-2.099c.105-.326.566-.528.878-.41.186.071.15.206.095.348l-.457 1.175-1.175 3.004c-.167.425-.19.438-.702.411zm-3.226 11.055c-.086-.004-.183.012-.267-.015-.855-.28-1.735-.217-2.596-.117-.6.069-1.177.318-1.507.901-.394.695-.182 1.489.503 1.903.58.35 1.226.436 1.886.444.492.006.6-.025.955-.217.018-.451.124-.92-.23-1.371.122-.025.203-.053.284-.054l1.124-.002c.187-.002.303.071.304.268l-.001 1.5c-.002.202-.12.302-.319.337l-1.331.254c-1.381.206-2.711.024-3.932-.664-1.331-.749-1.377-2.449-.12-3.318.658-.455 1.41-.674 2.186-.735.791-.062 1.59-.015 2.385-.016.031 0 .062.003.093.005.545.042.813.155.584.897zm5.571-.906l2.663 4.638c-.137.043-1.231.108-1.353.03a1.01 1.01 0 0 1-.307-.326c-.44-.734-.292-.608-1.09-.617-.561-.007-1.123.012-1.684-.007-.292-.01-.467.111-.592.357-.348.687-.25.611-1.079.616h-.804c.878-1.351 1.591-2.726 2.364-4.066.039-.068.084-.133.113-.205.134-.331.36-.466.728-.428.338.036.684.008 1.041.008zm.169 3.084l.09-.133-1.04-1.853-.298.571-.601 1.108c-.091.164-.052.296.131.301l1.718.006zm5.686-13.251l-.04-.587-.002-2.908c-.002-.534-.035-.57-.542-.692-.092-.348-.042-.46.267-.544l.774-.178c.25-.052.495-.106.627.223.022.055.22.082.318.055l1.064-.336a1.1 1.1 0 0 1 1.355.708c.091.26.137.548.142.825l-.005 2.862c-.004.523-.074.589-.599.604l-.453.001c-.025-.224-.065-.405-.063-.586l.039-2.157a3.43 3.43 0 0 0-.135-.875c-.107-.387-.432-.573-.83-.516-.123.018-.244.05-.365.082-.385.102-.485.222-.487.619l-.001 2.721c-.001.666-.054.719-.718.713-.092-.001-.183-.018-.346-.034zm-40.672-20.31l.093 1.993c.002.518-.456.955-1.03.922-.648-.038-1.3-.132-1.931-.285-.861-.209-1.591-.684-2.204-1.326-.367-.384-.308-.59.193-.768l1.661-.606c.21-.076.415-.092.63.018.674.344 1.383.301 2.097.166l.491-.113zm10.192 35.169c.271-.339.32-.652.318-.983L22 112.127c-.006-.303-.094-.604-.146-.922h4.148v.697h-.567c-.531 0-1.061-.006-1.591.002-.344.005-.395.049-.407.367-.034.958.05.811.763.815l1.357.006c.03 0 .059.015.147.039l.043.663h-2.213c-.166.402-.108.764-.084 1.116.015.226.211.28.418.279l2.31-.004c-.146.21-.232.375-.358.5-.091.091-.233.18-.354.182l-3.777.008zm29.423-17.398c-.021.673-.181 1.283-.592 1.807-.582.743-1.367.951-2.256.758-.777-.169-1.215-.734-1.429-1.457-.246-.834-.229-1.672.213-2.45.45-.793 1.165-1.175 2.058-1.117s1.494.572 1.778 1.42c.112.334.154.692.228 1.04zm-1.156.466c-.087-.71-.101-1.313-.509-1.8-.207-.247-.459-.456-.8-.385-.362.075-.595.328-.692.69a3.45 3.45 0 0 0 .063 1.985 1.87 1.87 0 0 0 .366.64c.389.442 1.074.365 1.317-.167.152-.331.193-.713.256-.963zm-18.004-.539c.002.94-.237 1.654-.865 2.21-.84.743-2.668.776-3.266-.761-.397-1.02-.369-2.018.26-2.94.796-1.167 2.78-1.311 3.564.212.227.441.337.904.306 1.278zm-3.256-.152c.067.616.105 1.175.431 1.667.238.358.561.478.968.405s.539-.398.626-.735c.139-.54.113-1.094-.019-1.627-.072-.292-.236-.572-.403-.828-.178-.273-.45-.46-.794-.373-.338.086-.569.33-.658.669-.075.285-.108.581-.151.822zm-7.182-2.244a2 2 0 0 1 1.707.928c.604.895.559 2.458-.099 3.316-.535.698-1.251.927-2.105.821-.83-.103-1.309-.638-1.571-1.355-.305-.833-.288-1.69.129-2.499.408-.791 1.083-1.171 1.938-1.211zm1.018 2.836l-.04-.006c0-.094.01-.188-.002-.28-.063-.511-.128-1.023-.48-1.436-.5-.586-1.183-.477-1.451.245-.085.229-.121.485-.131.731-.024.627.02 1.246.367 1.802a.88.88 0 0 0 .955.428c.387-.055.543-.336.63-.662.072-.268.102-.547.151-.822zM7.764 79.861c-.55.24-1.033.501-1.547.657-.4.121-.671.15-.96-.401-.268-.513-.32-1.075-.364-1.631-.093-1.172.28-2.244.772-3.283.033-.069.088-.129.139-.187.171-.193.285-.209.463-.01l.735.904c.246.273.281.527.159.887-.345 1.017-.128 1.967.467 2.842l.135.222zm.037-4.294l-.709-.886c-.349-.453-.329-.791.069-1.199.422-.432.955-.706 1.498-.926.795-.322 1.631-.523 2.501-.49.231.009.463.052.69.1.455.097.501.209.258.586l-.564.86c-.094.143-.171.305-.292.421-.102.097-.258.2-.387.197a3.66 3.66 0 0 0-2.974 1.283c-.009.01-.025.015-.09.052zm5.335 3.761c.336.259.55.109.829-.108.297-.231.694-.332 1.049-.489l.554-.241c.278-.128.442-.091.479.207a1.81 1.81 0 0 1-.105.861c-.582 1.446-1.528 2.585-2.915 3.33-.069.037-.138.077-.211.099-.237.073-.359-.003-.383-.25-.014-.139 0-.281.001-.421l.005-1.781c-.011-.323.079-.574.311-.79.123-.115.231-.248.388-.417zm7.837 31.889c-.245.625-.332.686-.937.685h-1.153l-.043.604v2.909c-.001.436-.019.454-.441.459h-.982v-3.939l-.739-.032c-.281-.005-.562.002-.843-.001-.387-.005-.436-.054-.423-.431.002-.075.03-.149.053-.254h5.509zm5.951-14.353l-.781.025c-.359.016-.402.053-.406.414l.001 2.206c.008.557.305.797.848.7.167-.029.328-.092.493-.14.3.409.278.527-.17.696-.319.12-.641.249-.974.309-.597.109-1.044-.179-1.21-.767a3.36 3.36 0 0 1-.105-.833l-.005-2.065c-.003-.399-.009-.399-.382-.501-.275-.076-.301-.176-.145-.604l.217-.029.196-.024c.155-.206.107-.446.114-.674a.79.79 0 0 1 .87-.809c.168.01.244.12.245.283l.004.704c.008.414.045.448.468.438l.327-.022c.391-.008.461.066.443.469-.003.06-.026.12-.05.224zm6.12 4.141v-.597l-.003-2.861c-.001-.166-.012-.361-.097-.49-.069-.104-.255-.132-.392-.186-.201-.08-.267-.332-.085-.435.44-.248.932-.352 1.431-.341.119.002.233.213.351.329l.902-.35c.33-.129.612-.07.838.21.233.289.225.621.091.928s-.391.483-.754.424c-.031-.005-.061-.013-.134-.03l-.091-.325c-.082-.275-.205-.347-.487-.286-.338.073-.493.258-.495.621l-.001 2.721c-.001.663-.059.721-.719.71-.091-.001-.181-.022-.355-.044zM17.319 69.386l.778.202a.38.38 0 0 1 .21.215 2.89 2.89 0 0 1 .127.636l.134 2.337c.009.271-.057.545-.132.822-.433-.817-.985-1.521-1.606-2.17-.159-.167-.148-.314-.075-.505l.565-1.538zm-2.218 7.82c-.009-.084-.027-.123-.014-.144.365-.62.112-1.149-.271-1.633-.19-.239-.263-.432-.085-.707.131-.202.128-.485.378-.654.076.081.16.148.216.233.431.66.726 1.38.898 2.147a2.43 2.43 0 0 1 .047.652c-.014.274-.184.384-.45.316l-.719-.21zM37.113 95.96c.194.869.698 1.108 1.649.824-.021.071-.02.151-.053.168-.424.222-.88.322-1.349.221-.18-.039-.364-.172-.493-.311-.302-.327-.346-1.01-.126-1.407.264-.478.821-.773 1.323-.691.278.045.49.172.575.471.117.409.036.528-.392.572l-1.134.154zm.278-.214l.433-.042.091-.012c.278-.065.345-.236.187-.474-.201-.302-.623-.288-.849.045-.071.104-.135.27-.1.371.028.08.214.103.237.113zM14.309 75.62c.617.628.64 1.18.069 1.361-.032-.144-.035-.303-.101-.428-.242-.463-.25-.459.032-.932zm56.91 5.71l.172-.284.084.076-.266.197.011.011zm-41.574 3.812c-.272.261-.553.476-.762.746s-.349.602-.561.983c-.396-.765-.896-1.337-1.681-1.699.412-.133 2.528-.142 3.004-.031z"/></svg>