<svg xmlns="http://www.w3.org/2000/svg" width="33" height="32" fill="#2b2b2b"  xmlns:v="https://vecta.io/nano"><path d="M21.257 18.105c.01.072.066.091.131.103.133.025.248-.014.358-.08.14-.084.245-.198.287-.347.065-.229-.002-.433-.16-.615-.128-.148-.299-.223-.491-.269-.142-.034-.279-.021-.415.023-.052.017-.106.031-.16.043l-.171.035-.11.022c-.014.003-.029.008-.041.015-.035.02-.039.053-.007.077.014.011.03.018.047.027l.03.016c.071.041.128.092.16.168.044.106.101.112.187.026.2-.201.46-.239.705-.1a.51.51 0 0 1 .266.38c.036.241-.239.525-.508.492l-.068-.01-.038-.006z"/><path d="M21.23 18.076l.021.026c-.059.002-.112-.004-.127-.079.059-.01.083.022.106.053zm-2.801-8.533l.038.079.017.032c.013.023.026.046.031.071.03.14-.033.22-.165.316-.105.077-.223.092-.341.016l-.03-.013c-.135-.076-.231-.175-.217-.335.003-.036.012-.072.021-.108l.013-.054.01-.054.006-.037-.048.005c-.028.003-.051.005-.073.011a.63.63 0 0 1-.53-.069l-.003-.002c-.03-.019-.061-.038-.108-.005l.008.024.021.057a.18.18 0 0 1-.041.204c-.107.113-.251.129-.388.043-.022-.014-.058-.031-.076-.023s-.03.045-.031.07l.005.251c.005.09.041.107.129.065.158-.075.329-.11.503-.12a1.18 1.18 0 0 1 .669.153l.044.026c.042.025.083.05.128.068a.4.4 0 0 0 .159.032c.134-.006.24-.075.319-.171l.003-.004c.05-.06.102-.123.105-.209.005-.14-.046-.248-.177-.317z"/><path d="M18.422 9.538c-.043-.06-.106-.078-.18-.075-.091.003-.221.087-.242.17-.011.044-.003.095.006.141.002.01.016.018.032.028l.027.017.011-.03a.22.22 0 0 0 .012-.04c.022-.138.106-.209.25-.21l.06-.001h.024zm-6.381 6.37l.038.018-.045.043-.072.066c-.119.102-.176.222-.132.374l.002.007c.003.008.006.016.004.023l-.003.023c-.003.024-.006.05-.02.059-.021.014-.065.008-.093-.003a1.53 1.53 0 0 1-.177-.087c-.28-.156-.513-.36-.66-.634a1.18 1.18 0 0 1-.081-.984 1.24 1.24 0 0 1 .508-.643 1.07 1.07 0 0 1 .804-.161 1.03 1.03 0 0 1 .634.375c.239.295.226.716-.071.991-.096.089-.208.146-.331.185-.047.015-.104.019-.153.011-.21-.036-.382-.132-.49-.311-.103-.169-.021-.438.163-.531.122-.062.244-.052.357.024.036.024.073.054.064.102-.008.041-.044.048-.079.056l-.015.003c-.174.042-.264.218-.19.371.06.125.242.185.375.128.336-.142.445-.563.19-.848a.71.71 0 0 0-.929-.136c-.316.197-.475.599-.311.938.108.224.285.378.515.484.028.013.06.018.093.024l.058.011c.015.004.029.011.048.02zm8.442.047l.02-.039c.007-.003.014-.007.021-.011.015-.008.03-.016.045-.018a.57.57 0 0 0 .259-.089c.299-.182.494-.425.468-.777a.78.78 0 0 0-.815-.703c-.317.024-.723.335-.605.75.053.188.187.315.386.372.13.037.31-.103.323-.24s-.079-.252-.218-.289c-.032-.009-.083-.032-.085-.051-.002-.031.021-.072.047-.097.091-.085.257-.1.373-.032.218.127.247.366.161.522-.108.195-.293.291-.519.319-.055.007-.116-.013-.171-.03a.75.75 0 0 1-.375-.267c-.171-.226-.2-.469-.084-.723.217-.471.787-.673 1.3-.503a1.19 1.19 0 0 1 .599.466 1.19 1.19 0 0 1 .189.962c-.048.234-.172.435-.339.614-.172.185-.384.316-.614.425-.029.014-.075.015-.103.001-.017-.008-.026-.057-.018-.082.057-.181-.009-.321-.159-.433-.018-.013-.038-.024-.058-.035l-.028-.015zm-5.873 2.212l.028-.007-.023.106c-.017.075-.033.144-.032.213a.88.88 0 0 0 .038.211l.027.112-.069-.048-.118-.086a1.28 1.28 0 0 0-.499-.264l-.092-.028a1.04 1.04 0 0 0-.153-.04 2.2 2.2 0 0 0-.904.038l-.953.25a.32.32 0 0 0-.052.017c-.094.043-.176.044-.248-.041-.04-.046-.1-.049-.153-.021s-.095.056-.132.094c-.048.048-.1.065-.168.061-.212-.013-.421-.035-.617-.122-.274-.123-.469-.31-.57-.583a1.97 1.97 0 0 1-.096-.857c.014-.167.2-.266.364-.197.032.013.066.023.099.033l.027.008c.059.017.072.039.049.091-.005.012-.012.022-.02.033l-.008.012a.8.8 0 0 0-.049.829.89.89 0 0 0 .39.404.78.78 0 0 0 .702.052c.206-.084.351-.214.442-.404.045-.095.094-.101.173-.022a.45.45 0 0 0 .262.126c.365.053.632-.094.844-.357.006-.007.01-.015.014-.022a.16.16 0 0 1 .014-.022c.038-.047.075-.049.118-.004.015.015.028.033.038.052.24.442.869.586 1.291.395.01-.005.021-.007.036-.01zm3.335.616l-.022-.018.024-.088c.019-.067.038-.134.039-.201s-.016-.134-.033-.203l-.022-.091c.051-.011.09.004.127.018l.043.015c.35.092.671.039.953-.176.056-.043.102-.099.147-.154l.062-.073c.007-.007.012-.016.018-.024l.007-.011c.081-.111.093-.107.175-.002.223.286.525.431.908.348.045-.01.086-.035.127-.06l.018-.011.019-.011a.16.16 0 0 0 .034-.029l.022-.021c.067-.055.123-.045.153.035a.64.64 0 0 0 .261.318c.228.146.47.203.745.102.438-.16.705-.599.593-1.058-.013-.055-.041-.106-.068-.158l-.032-.061-.02-.033c-.007-.011-.017-.025-.023-.039-.014-.034-.004-.061.036-.075l.186-.067c.048-.018.093-.017.139.008l.098.05c.055.026.08.069.084.126.019.305.014.606-.099.898a.99.99 0 0 1-.384.474c-.24.162-.515.203-.798.225-.069.005-.123-.013-.166-.064a.34.34 0 0 0-.057-.05c-.109-.082-.155-.083-.262.003-.058.046-.114.052-.185.03l-.574-.165-.396-.1-.109-.027c-.296-.073-.598-.086-.893-.024-.267.056-.525.149-.728.337a.78.78 0 0 1-.098.073l-.047.032zm.136-.949l-.08-.054c.05-.045.08-.027.111-.009l.004.002c.151.09.304.066.452-.003a.52.52 0 0 0 .158-.112c.243-.258.146-.645-.131-.82-.336-.214-.865-.087-1.038.314a.7.7 0 0 0 .044.681c.008.013.012.027.018.046l.011.036-.051.001c-.032.001-.06.002-.087-.002-.176-.027-.331.003-.454.136-.023.025-.05.046-.077.067l-.037.029c-.053-.026-.053-.065-.054-.102v-.01l-.036-1.149a.24.24 0 0 1 .088-.205c.134-.116.288-.188.467-.227a2.08 2.08 0 0 1 .968.034c.085.022.166.054.248.086l.125.048a.48.48 0 0 1 .282.295.8.8 0 0 1 .009.605c-.052.135-.154.234-.279.316-.148.098-.311.099-.48.083-.073-.007-.126-.046-.182-.086zm-2.406.303l-.033.01-.047-.038-.1-.085c-.105-.101-.23-.133-.376-.116l-.113.008-.069.003.015-.044.022-.06.03-.066c.034-.074.068-.147.071-.231.013-.328-.124-.585-.439-.727a.67.67 0 0 0-.63.026.58.58 0 0 0-.3.395c-.042.195.062.411.232.529.138.096.284.087.436.072.022-.002.043-.017.063-.03l.013-.009.004-.002c.034-.023.036-.023.099-.018-.001.024-.001.035-.006.037-.027.014-.052.031-.077.048-.061.041-.122.083-.204.083a.41.41 0 0 0-.056.004c-.336.047-.639-.251-.691-.479-.054-.237-.027-.455.108-.663.071-.111.184-.162.3-.205a3.17 3.17 0 0 1 .522-.144 1.97 1.97 0 0 1 .838.044c.144.036.27.115.376.216.07.067.069.151.066.235l-.012.305-.017.448-.005.345c-.001.025-.006.049-.011.074l-.003.013-.004.021zm-1.328-2.948l-.025.041-.032-.04-.037-.048c-.181-.265-.577-.299-.804-.134l-.012.009c-.041.031-.085.063-.145.041v-.461l.044.017c.03.011.057.02.076.038.093.088.205.09.321.072.251-.038.407-.186.507-.395.004-.008.006-.017.009-.026l.008-.024c.032-.072.067-.079.137-.036l.119.069.06.034c.129.074.271.073.411.051.174-.027.314-.115.424-.248a.52.52 0 0 0 .112-.415c-.021-.166-.113-.295-.26-.384-.258-.157-.511-.055-.659.126-.074.091-.12.209-.061.335.008.016.014.033.021.05.017.045.034.089.076.123.005.004.007.013.009.026l.005.024-.024-.004c-.013-.002-.024-.003-.032-.008-.113-.069-.165-.181-.197-.294-.038-.134.018-.257.128-.348.053-.044.113-.081.173-.118l.053-.033a1.2 1.2 0 0 1 .628-.175.58.58 0 0 1 .354.104c.106.073.16.159.15.292l-.043.817-.012.27-.001.088-.003.121c-.003.028-.017.065-.039.079-.031.021-.053-.005-.072-.028l-.007-.008c-.174-.2-.4-.284-.67-.249-.183.024-.336.109-.456.24-.095.103-.172.218-.203.356-.004.018-.014.034-.028.056zm3.599-1.16l-.036.016.011-.035c.004-.014.006-.022.012-.027.064-.058.082-.135.1-.211l.011-.047c.026-.098-.034-.184-.089-.261-.066-.094-.174-.138-.285-.171a.45.45 0 0 0-.408.085.52.52 0 0 0-.176.661c.104.225.308.343.567.367a.7.7 0 0 0 .506-.152c.085-.066.121-.053.156.048.081.232.321.438.617.432.076-.002.146-.014.202-.07a.14.14 0 0 1 .143-.044l-.007.068-.011.155a1.14 1.14 0 0 0 .014.148l.009.064c-.069.027-.113-.006-.15-.037a.54.54 0 0 0-.351-.109.54.54 0 0 0-.463.226l-.053.066-.035.01-.014-.022c-.011-.017-.022-.034-.027-.053a.8.8 0 0 0-.351-.481c-.189-.123-.398-.162-.625-.096-.147.043-.269.113-.361.231-.014.019-.055.039-.069.033-.021-.009-.038-.043-.04-.067-.004-.037-.004-.075-.004-.112l-.001-.076-.008-.173-.049-1.008c-.003-.061.013-.105.056-.15.147-.155.335-.207.544-.18a1.61 1.61 0 0 1 .428.107c.128.056.245.144.352.233.13.11.145.274.067.422l-.014.027c-.032.064-.064.126-.133.165l-.035.017zm-6.036 8.146c.178-.108.363-.029.411.199l-.061-.034-.098-.058c-.068-.049-.135-.058-.203-.009a1.35 1.35 0 0 0-.147.125c-.047.045-.044.102-.022.157a.4.4 0 0 0 .514.232c.206-.067.372-.347.264-.528a.2.2 0 0 1-.024-.058c-.01-.046.013-.073.06-.06.197.055.397.047.597.039l.177-.005c.027 0 .054.005.087.011l.06.011-.032.041c-.017.023-.031.041-.047.055-.052.047-.084.099-.053.168s.084.115.166.123a.95.95 0 0 0 .086.003h.047c.109.003.129.025.127.125l-.004.648.002.575-.004.104c-.01.09-.111.132-.188.079-.045-.031-.038-.074-.025-.114a.72.72 0 0 0 .018-.332c-.05-.313-.225-.548-.518-.703-.278-.148-.563-.155-.854-.031-.041.017-.097.024-.139.013a.57.57 0 0 1-.408-.34c-.056-.129.02-.315.153-.405.011-.008.023-.014.035-.021l.021-.012zm7.166.068h-.001l-.043-.05.059-.008.08-.008.21.004.335.004c.044 0 .088-.01.131-.019l.064-.013.074-.011.053-.008-.019.049-.026.066c-.061.152-.027.291.079.411a.42.42 0 0 0 .417.143c.151-.029.228-.137.286-.256.026-.055.01-.118-.036-.166l-.013-.013a.34.34 0 0 0-.066-.06l-.03-.02c-.078-.053-.12-.082-.244.012a.37.37 0 0 1-.079.041l-.051.023-.001-.034c-.001-.017-.002-.029.002-.04.055-.143.249-.196.387-.119.091.05.149.122.201.202s.046.167.015.243a.49.49 0 0 1-.292.297l-.048.02-.044.019c-.058.021-.115.023-.172-.006-.22-.113-.453-.111-.681-.044a.96.96 0 0 0-.472.319c-.143.175-.222.37-.218.59.001.056.012.113.022.169l.009.048c.013.073.001.099-.059.111-.082.017-.144-.012-.158-.075-.004-.017-.004-.035-.004-.053v-.01l-.008-1.297a.09.09 0 0 1 .108-.113c.032-.002.064-.001.097 0l.037.001a.2.2 0 0 0 .185-.113c.031-.054.029-.106-.018-.154-.023-.023-.043-.047-.069-.078zm-2.801-1.077v-.001h-.423a2741.22 2741.22 0 0 0-1.571 0l-.052.002-.081.001c-.023-.002-.058-.015-.063-.03-.008-.022-.002-.058.014-.075l.002-.002a1.24 1.24 0 0 1 .185-.177c.036-.027.096-.035.145-.036l.752-.002h.755l2.19-.002c.085 0 .15.022.203.086.019.023.042.043.066.063l.059.055c.019.021.034.056.029.081-.003.016-.044.032-.07.036s-.054.003-.082.001l-.04-.001h-2.016z"/><path d="M20.6 25.473c.013-.028.026-.057.073-.063.034.056.021.112-.009.159-.103.16-.242.273-.453.28l-.223.003c-.059.002-.1-.02-.119-.074l-.02-.047-.005-.011c-.037-.078-.1-.118-.192-.118-.048 0-.095 0-.143-.001h-.124l-6.319.002a7.72 7.72 0 0 0-.152.001c-.1.002-.174.047-.201.137s-.082.113-.179.108a1.35 1.35 0 0 0-.103-.001c-.073.002-.146.003-.217-.02a.57.57 0 0 1-.321-.274c-.024-.043-.042-.097-.006-.145.046-.001.057.025.068.05l.008.018c.132.239.4.304.642.189a.48.48 0 0 0 .166-.118c.046-.053.104-.071.178-.071l1.704.003 4.945-.001c.092-.012.159.024.215.085.133.146.306.181.494.144.122-.024.215-.103.28-.206a.17.17 0 0 0 .013-.027zM9.291 17.65c.035-.046.079-.084.151-.058l.001.004.003.01c.003.009.005.018.005.027-.009.239.024.472.132.692a1.35 1.35 0 0 0 .408.474c.164.124.351.208.55.264a1.92 1.92 0 0 0 .295.05l.084.01.015.002c.053.006.104.011.119.073.018.074.011.148-.045.207-.016.017-.054.025-.081.024-.274-.013-.546-.032-.809-.117-.184-.059-.361-.128-.516-.237-.206-.145-.36-.327-.434-.565-.036-.114-.057-.228-.065-.348-.013-.198.071-.359.187-.512zm13.833.084l-.008-.001v-.023c-.001-.017-.002-.034.002-.05.006-.025.022-.067.034-.067.033 0 .079.009.098.031a1.23 1.23 0 0 1 .133.192c.118.209.09.427.031.643-.076.279-.251.492-.507.65-.292.18-.615.271-.961.299l-.046.004-.242.017c-.097.005-.124-.016-.145-.106a.33.33 0 0 1-.009-.083c.002-.072.03-.1.105-.11l.098-.011.134-.016a1.62 1.62 0 0 0 .662-.256 1.5 1.5 0 0 0 .398-.388c.086-.121.141-.253.172-.394.017-.075.027-.152.037-.229l.014-.102zm-10.211-4.207c-.394-.128-.694-.428-.693-.894a.75.75 0 0 1 .352-.591.65.65 0 0 1 .559-.09.7.7 0 0 1 .367.255c.081.104.079.365-.002.47-.019.025-.041.049-.063.072l-.022.024c-.145.161-.457.138-.584-.1-.019-.035-.011-.085-.005-.128v-.003c.002-.016.034-.035.055-.039.011-.002.04.025.041.041.005.058.042.096.08.133l.023.023c.085.09.219.086.312.006.079-.067.108-.143.108-.239 0-.103-.032-.188-.112-.262-.17-.158-.401-.182-.593-.047-.239.169-.315.362-.231.612.068.201.305.413.61.417.102.002.199-.015.295-.043.072-.021.1-.006.104.065.005.087.047.15.107.211.072.073.056.108-.05.131a1.26 1.26 0 0 1-.659-.024z"/><path d="M19.863 13.434a1.23 1.23 0 0 1-.583.154l-.091-.011-.206-.029c-.101-.018-.116-.058-.046-.123s.111-.125.114-.217c.003-.067.035-.084.107-.061.141.046.281.049.427.022.228-.041.518-.289.507-.587-.008-.225-.243-.537-.59-.509-.19.016-.365.175-.375.353a.69.69 0 0 0 .001.115c.015.144.154.244.305.221.089-.014.134-.075.178-.137l.008-.011.014-.019.005-.017.001-.003.003-.011c.007-.031.015-.066.059-.062.051.005.054.051.056.09.005.101-.121.24-.243.27-.212.052-.452-.084-.488-.287-.012-.069-.008-.14-.004-.211l.003-.059c.001-.026.013-.056.029-.078.216-.31.603-.401.938-.186a.74.74 0 0 1 .353.643c.006.34-.18.582-.479.75zm-2.776 7.067l-2.12-.001-.178.007c-.063.002-.098-.039-.062-.084a1.33 1.33 0 0 1 .218-.219c.034-.027.097-.033.147-.033l1.335.002 1.046-.001c.086 0 .16.018.215.087.017.022.039.04.061.059l.041.037c.02.02.041.042.052.066.022.049-.002.081-.059.083a.43.43 0 0 1-.062-.002l-.049-.002h-.584zm4.979-.317l-.159.012-.104-.004-.333-.014c-.022-.001-.044-.006-.065-.013-.043-.015-.053-.045-.036-.084l.026-.059.042-.093c.031-.068.09-.107.166-.1.168.016.333-.006.498-.027l.067-.009a2.44 2.44 0 0 0 .75-.218c.087-.041.168-.095.249-.148l.105-.067c.02-.019.026-.025.034-.027l.017-.005c.027-.008.056-.016.074-.007s.038.051.037.077c-.006.193-.091.349-.254.467-.229.167-.496.247-.778.287l-.337.032zm-11.361-.003h-.111c-.284.002-.561-.034-.83-.123-.195-.065-.373-.154-.505-.308a.56.56 0 0 1-.132-.337c-.003-.039.003-.079.047-.098s.077.004.108.032c.183.166.413.254.645.338.278.1.57.124.862.148l.054.004c.024.002.048 0 .072-.002l.039-.002c.1-.003.152.033.183.119l.047.116c.027.062.013.089-.058.105a.26.26 0 0 1-.055.007h-.367zm2.392 1.385l-.028.009-.004-.02c-.002-.011-.004-.02-.003-.028.008-.148-.077-.233-.216-.282l-.005-.002-.047-.016c-.042-.022-.044-.058.001-.079a1.06 1.06 0 0 1 .088-.035l.086-.034c.478-.222.858-.555 1.205-.928a4.05 4.05 0 0 1 .768-.65c.052-.034.11-.061.167-.089l.007-.004c.008-.004.019-.002.036 0l.036.004-.045.059-.081.099-.315.321-.371.379-1.096 1.142-.137.135c-.011.01-.027.014-.046.02zm6.711-.39l.018.011-.091.05-.163.097c-.076.056-.079.144-.069.234-.068.003-.107-.028-.141-.063l-.472-.501-1.205-1.259-.128-.131-.134-.138c-.008-.008-.013-.019-.018-.029l-.002-.003-.003-.006-.001-.003c.026-.035.05-.023.073-.012l.008.004a1.89 1.89 0 0 1 .46.31l.649.617c.299.301.636.554 1.03.736.019.009.039.016.059.023l.055.021a.54.54 0 0 1 .057.032l.018.011z"/><path d="M14.755 9.507l-.009-.025c.053-.037.097-.023.139-.01l.009.003c.175.054.335.023.489-.063.021-.012.044-.02.074-.031l.054-.02-.008.045-.012.055a.21.21 0 0 0 .096.274c.093.058.24.053.322-.011l.013-.012a.1.1 0 0 1 .02-.016c.04-.024.072-.012.082.032.004.018.003.037.002.056v.006l-.005.113-.005.116c-.004.091-.039.108-.127.07-.281-.119-.567-.172-.874-.085-.165.047-.317.11-.459.203-.11.072-.23.046-.338-.008a.56.56 0 0 1-.227-.224c-.055-.094-.038-.262.039-.342l.096-.09.047-.042c.052-.048.116-.041.178-.034l.012.001c.124.013.232.151.213.266-.006.034-.013.076-.061.074-.037-.001-.038-.028-.039-.054-.018-.139-.126-.223-.245-.214-.093.007-.135.078-.167.138-.039.075-.036.167.019.24a.48.48 0 0 0 .189.157c.073.033.14.036.214.013a.5.5 0 0 0 .269-.193.34.34 0 0 0 .026-.322l-.025-.066zm-1.583 15.192l.023.003.003.039.004.083c-.001.099.035.142.143.146l.257.002.099-.001h.141l.148-.001h5.225c.114 0 .159-.048.151-.156-.002-.026 0-.051.002-.084l.003-.056.062.031.101.051.071.038.091.048c.043.022.055.052.037.096-.033.08-.097.119-.201.119H13.95l-.935.001c-.088 0-.157-.045-.181-.114-.013-.037-.011-.073.026-.093l.226-.116.075-.037zm2.193-4.866l-.021-.025.018-.037c.013-.027.026-.055.046-.077l.123-.127.102-.104a.3.3 0 0 1 .244-.097l.844.002a.22.22 0 0 1 .169.063l.274.273c.01.01.017.023.024.035.037.067.018.1-.061.1a1.16 1.16 0 0 1-.091-.004l-.086-.004h-1.585zm1.406-8.268c-.006.261-.256.478-.493.451-.214.028-.484-.195-.488-.437-.004-.268.261-.478.5-.476.202.001.486.206.481.461z"/><path d="M22.127 20.911c-.269.087-.547.123-.832.131l-.14-.011-.468-.039c-.024-.002-.062-.025-.065-.043-.004-.026.01-.069.03-.08.094-.047.169-.115.244-.182l.122-.104c.03-.023.082-.03.123-.028l.283.024.038.004c.296.031.592.016.888-.009a.34.34 0 0 0 .053-.01c.022-.005.044-.011.066-.011.029 0 .066.014.083.034.009.011-.008.053-.025.071a.93.93 0 0 1-.402.253zm-10.678.117l-.146.013c-.27-.001-.534-.037-.792-.107a1.01 1.01 0 0 1-.455-.251l-.008-.008c-.01-.01-.021-.02-.028-.032-.031-.049-.008-.091.053-.096.011-.001.022 0 .033.002.39.076.782.055 1.174.017l.007-.001c.145-.014.197-.019.237 0 .022.01.04.028.069.055l.078.07c.066.055.138.104.21.153l.009.006c.036.024.066.05.055.093s-.049.046-.087.05l-.407.035zm5.458-9.811l-.005.007-.015-.025c-.007-.014-.013-.024-.021-.031l-.033-.032-.172-.157c-.044-.036-.081-.074-.084-.129l-.006-.158-.004-.113c-.003-.074.032-.12.1-.159a1.09 1.09 0 0 1 .49-.156c.372-.019.682.104.899.4.055.075.064.163.065.25.002.186-.071.337-.242.441-.036.022-.067.041-.115.01.013-.022.018-.03.025-.034a.4.4 0 0 0 .209-.364c.006-.306-.38-.535-.677-.406-.232.101-.372.271-.366.525.002.059 0 .061-.048.13zm-1.176-.09l-.086.075c-.042-.025-.04-.064-.037-.101v-.011c.011-.241-.119-.403-.332-.514-.194-.102-.464-.038-.602.125-.085.1-.116.206-.106.33s.091.2.173.28c.007.007.015.012.023.018l.02.015.008.035a.28.28 0 0 0-.029 0c-.02.001-.038.002-.05-.006-.119-.08-.224-.171-.253-.315-.055-.268.04-.481.288-.628.378-.224.76-.227 1.146-.012.077.043.11.097.103.179l-.006.219c.001.057-.023.103-.064.14l-.196.172z"/><path d="M20.152 16.53l-.009.034-.039.006c-.028.005-.057.01-.084.008a1.91 1.91 0 0 1-.648-.172l-.106-.046-.156-.068c-.089-.041-.094-.083-.015-.135.208-.135.326-.318.345-.556.001-.014.002-.028.006-.041.014-.044.046-.055.083-.025.021.017.04.037.058.058l.01.011a1.15 1.15 0 0 0 .345.242.33.33 0 0 0 .081.024l.046.011.07.023.041.014-.053.061-.095.112c-.102.129-.084.267.046.368a.57.57 0 0 1 .051.047l.023.023zm-7.747-.582l-.023-.028.037-.015c.022-.01.041-.018.061-.021.188-.031.331-.134.463-.253a.49.49 0 0 0 .045-.046l.053-.053c.032-.027.064-.015.076.023.003.01.004.021.004.032v.009c.017.239.137.422.341.561.087.059.084.095-.012.138l-.077.034a3.02 3.02 0 0 1-.498.189c-.083.021-.168.035-.252.049l-.063.011c-.025.004-.052.003-.078-.001-.059-.01-.072-.046-.031-.089.009-.009.02-.017.03-.025l.008-.006c.123-.105.14-.233.054-.349a1.04 1.04 0 0 0-.069-.08l-.038-.041-.033-.039zm3.099-4.516l.057-.037.001.051-.001.072c-.027.224.069.403.241.546.098.082.148.164.127.29-.011.07-.013.142-.015.213l-.003.099c-.004.071-.043.106-.106.076-.076-.036-.156-.051-.237-.067l-.137-.03a.3.3 0 0 1-.049-.021l-.022-.011.005-.02.037-.003.08-.005c.148-.005.241-.082.291-.206.015-.037.023-.085.012-.122a.38.38 0 0 0-.628-.205c-.026.02-.045.048-.064.076l-.01.014c-.047.067-.086.071-.131.001-.051-.082-.104-.159-.19-.214-.12-.077-.247-.106-.388-.058a.2.2 0 0 1-.053.013c-.057.002-.084-.032-.06-.08.011-.021.026-.04.041-.059l.015-.019.027-.033c.018-.022.037-.043.05-.068.026-.048.062-.056.11-.039.024.008.048.019.07.032.208.121.422.107.638.023.082-.032.156-.074.211-.146.019-.025.048-.043.083-.064zm1.497.06c-.006-.026-.012-.054.029-.076l.039.024c.03.018.061.036.081.061a.5.5 0 0 0 .285.172c.19.047.38.059.556-.052.027-.017.06-.032.091-.035.024-.002.059.009.075.026a1.42 1.42 0 0 1 .116.143l.008.01c.022.03.047.063.019.099s-.069.024-.107.011l-.005-.002c-.181-.061-.414.021-.52.184l-.015.024-.003.005-.041.06c-.054.067-.08.064-.13-.008-.102-.149-.253-.207-.43-.166-.249.058-.348.349-.18.529.058.062.137.08.22.086l.072.004.033.002.006.021-.022.011c-.016.008-.032.016-.048.02l-.248.066-.114.03c-.076.02-.11-.003-.115-.081l-.01-.179-.012-.207c-.004-.067.018-.12.076-.164.122-.094.221-.205.27-.35a.51.51 0 0 0 .024-.258zm-1.783-2.316l.04-.007c-.006.061-.038.069-.072.072l-.211.011c-.028 0-.059-.009-.084-.022a.45.45 0 0 1-.153-.686.67.67 0 0 1 .362-.231c.162-.047.332-.054.495-.013s.302.131.419.247a.19.19 0 0 1 .054.163l-.016.315-.004.124v.016c0 .009.001.017-.001.025-.01.059-.061.082-.101.038-.057-.062-.128-.092-.207-.116-.069-.021-.086-.072-.082-.132a.43.43 0 0 0-.149-.358c-.198-.181-.45-.178-.634-.007-.12.112-.132.247-.082.388.048.132.205.206.361.182l.066-.011zm2.096.028l.013-.027.028.002.026.002.12.006c.148-.004.265-.103.289-.24.032-.18-.045-.327-.202-.405-.218-.109-.404-.038-.53.077-.107.099-.167.218-.152.366.008.08-.018.112-.104.138-.068.02-.133.039-.177.099-.011.016-.048.028-.066.022s-.039-.035-.04-.054l-.018-.532c0-.04.028-.09.059-.12.185-.175.399-.281.674-.259a.9.9 0 0 1 .421.116c.142.089.245.205.261.37.013.138-.007.268-.118.377-.12.118-.262.132-.419.101-.016-.003-.031-.014-.046-.024l-.019-.013-.002-.001zm-5.921 8.829l.03-.014.003.024a.42.42 0 0 1-.545.115c-.12-.062-.218-.139-.288-.252-.119-.192-.117-.389-.013-.58.159-.292.425-.437.773-.447a.59.59 0 0 1 .143.014l.425.099.103.025c.018.004.036.009.052.017.037.02.041.051.01.076-.013.011-.03.019-.046.027l-.011.006c-.084.044-.146.103-.183.189-.043.1-.102.102-.179.019a.53.53 0 0 0-.527-.172c-.218.048-.367.173-.434.379a.43.43 0 0 0 .19.467l.03.018c.065.039.128.077.211.078s.155-.006.214-.066c.01-.01.025-.017.043-.024zm.856 5.389l-.014.01-.015.011c-.034-.062-.004-.097.029-.13.181-.181.483-.21.709-.075.123.073.219.165.281.289a.63.63 0 0 1 .017.526.81.81 0 0 1-.364.434.91.91 0 0 1-.56.134c-.087-.009-.104-.023-.105-.104a.42.42 0 0 0-.046-.202c-.007-.013-.009-.028-.011-.048l-.005-.036.047.009.079.017a.61.61 0 0 0 .786-.421.49.49 0 0 0-.426-.561c-.136-.007-.258.006-.354.108-.014.014-.031.026-.049.04zm8.108-.016l-.029.015-.042-.028-.101-.067-.011-.007c-.024-.015-.049-.031-.076-.035-.226-.035-.424.014-.559.23-.112.178-.077.355.033.514a.6.6 0 0 0 .7.23l.094-.027.055-.016-.013.037-.028.07a.39.39 0 0 0-.045.202c.003.077-.011.088-.096.096a.92.92 0 0 1-.902-.493.79.79 0 0 1-.078-.323c-.007-.255.165-.507.438-.613.136-.052.281-.052.415-.008.065.021.121.068.177.114l.045.037c.012.009.015.028.017.047l.005.025zm-2.881 1.153h-1.619c-.792 0-1.583 0-2.374-.001l-.023.001c-.035.003-.074.006-.075-.039-.001-.052.046-.051.086-.049h.017l5.644.005c.02.001.052.022.055.038.007.036-.028.044-.059.045h-.123l-.055-.001h-1.473zm-4.403-4.368l.087-.015.059.013c.045.01.09.019.132.036.078.03.085.089.017.135-.219.149-.443.288-.687.402-.142.067-.24.051-.353-.029l-.148-.097-.135-.088c-.02-.014-.035-.046-.033-.069.002-.016.033-.036.056-.042l.826-.211.18-.034zm6.302-.002l.045-.007.025-.004.149.035.357.085.342.092.159.044.023.005c.014.003.028.006.041.012.046.021.054.064.012.091l-.427.263c-.029.016-.083.014-.115 0-.234-.104-.468-.21-.671-.364l-.096-.067-.011-.007c-.031-.021-.068-.045-.049-.083a.15.15 0 0 1 .077-.065 1.08 1.08 0 0 1 .14-.029zm-5.951-.819c0 .131.138.256.284.258.141.002.277-.129.276-.264-.002-.141-.13-.261-.271-.269s-.297.133-.288.275z"/><path fill-rule="evenodd" d="M14.362 19.368a.68.68 0 0 1-.665.605c-.351.01-.649-.306-.646-.607.004-.328.284-.606.654-.61.38-.004.652.329.656.612zm-1.158-.009c-.016-.261.236-.477.506-.473.315.005.514.251.509.48-.006.286-.247.478-.51.481s-.523-.206-.505-.488z"/><path d="M20.945 19.095c.145-.002.178.096.194.21-.002.063-.046.099-.12.09l-.046-.005-.239-.039-.174-.044a4.21 4.21 0 0 1-.653-.199.26.26 0 0 0-.074-.022c-.122-.012-.2-.084-.267-.171l-.022-.028-.068-.091c-.01-.015-.018-.043-.01-.055s.037-.018.057-.022c.009-.001.02.002.03.006l.321.089.918.252a.56.56 0 0 0 .152.027zm-2.388.265a.3.3 0 0 1 .29-.265c.118-.005.287.129.279.286-.006.124-.157.254-.294.249s-.278-.143-.274-.269z"/><path fill-rule="evenodd" d="M19.48 19.359c.008.349-.331.629-.658.614-.298.015-.649-.289-.639-.624.009-.296.298-.593.638-.592.384.002.65.27.658.602zm-.128.016c.006-.243-.224-.505-.508-.486a.5.5 0 0 0-.519.446c-.011.289.238.504.503.513.254.009.517-.212.523-.473z"/><path d="M13.063 18.733l.014.027-.037.057c-.079.123-.158.245-.336.281-.076.015-.15.043-.224.07l-.081.029c-.266.092-.54.149-.819.193-.13.02-.177-.023-.145-.142s.048-.134.186-.152a1.26 1.26 0 0 0 .174-.035l.798-.229.386-.098c.018-.004.037-.003.056-.002l.027.001zm9.908-2.747l.012.037c-.11.027-.147.014-.199-.05l-.021-.027a.64.64 0 0 0-.091-.101c-.136-.112-.297-.07-.395.033-.009.01-.018.021-.026.032a.26.26 0 0 1-.126.098c-.056.017-.095-.019-.087-.074.003-.017.01-.034.019-.049a1.31 1.31 0 0 0 .12-1.01c-.01-.032-.015-.048-.014-.063a.23.23 0 0 1 .019-.062.96.96 0 0 1 .163.184l.36.6.118.189.123.198c.012.019.018.041.026.065zm-12.607-1.228l.008-.005.006-.004c.036.038.027.076.014.111-.09.251-.069.502.001.752l.011.04c.023.084.045.168.105.24.025.03.034.075-.003.105s-.08.015-.113-.008-.052-.048-.074-.075l-.001-.001c-.149-.18-.357-.178-.501.005a.55.55 0 0 1-.113.112c-.021.014-.071.016-.09.002s-.019-.06-.007-.082l.091-.151.047-.074.118-.191.317-.525c.033-.058.072-.111.111-.164l.051-.07c.005-.007.012-.011.021-.017zm10.713 9.402l-.009.04-.077-.043a.57.57 0 0 0-.145-.068c-.05-.012-.103-.009-.157-.006l-.07.002c-.02-.045.002-.074.024-.103.126-.18.174-.355.095-.547a2.04 2.04 0 0 0-.082-.171c-.032-.061-.031-.107.029-.134.147-.065.249-.172.342-.29l.025-.011c.047.023.044.062.042.1l-.001.026-.002.243-.002.195-.002.711a.25.25 0 0 1-.009.056z"/><path d="M20.983 20.033c-.038.056-.06.066-.128.063l-.086-.014-.187-.035-.334-.089-.232-.063-.161-.038-.108-.025c-.126-.03-.145-.068-.093-.179a.8.8 0 0 0 .027-.068c.031-.086.084-.112.168-.077.35.149.72.23 1.099.278.13.016.152.059.085.166l-.01.016-.041.065zm-9.253.063l-.046.008c-.007-.004-.015-.008-.024-.012a.18.18 0 0 1-.064-.041c-.036-.043-.064-.094-.087-.145-.029-.065-.007-.1.066-.113l.204-.036.417-.08c.172-.039.345-.08.503-.161.07-.036.119-.017.15.053l.049.105c.04.082.014.137-.076.159l-1.022.251a.92.92 0 0 1-.069.013zm-.26 2.852c-.003-.042-.006-.086.039-.132l.022.022a.32.32 0 0 1 .034.036.82.82 0 0 0 .284.244c.088.044.098.077.047.158-.067.108-.106.221-.108.347a.52.52 0 0 0 .108.333l.01.012c.027.034.054.069.046.115a1.78 1.78 0 0 1-.074-.002c-.055-.003-.108-.006-.157.006s-.097.039-.144.065l-.063.034c-.043-.025-.043-.062-.042-.099v-.013l-.004-1.126zm8.173-9.094a.26.26 0 0 1 .184.001c-.042.053-.091.092-.138.13-.04.032-.079.063-.11.1a2.34 2.34 0 0 0-.134.177l-.065.09-.023-.032-.039-.057-.03-.05c-.018-.032-.037-.064-.061-.092a.36.36 0 0 0-.377-.083c-.079.033-.133.088-.146.172l-.011.107-.005.058c-.088-.026-.142-.08-.157-.149a2.88 2.88 0 0 1-.055-.393c-.007-.096.064-.129.154-.083.273.139.565.179.87.142.035-.004.068-.014.102-.024l.037-.011.004-.001zm-5.595.32c-.01.092-.072.148-.166.215l-.005-.047-.006-.064c-.003-.111-.049-.205-.161-.241-.123-.039-.254-.031-.353.062a.49.49 0 0 0-.081.11l-.028.045c-.005.008-.008.016-.011.025s-.005.016-.01.024c-.024.04-.056.041-.086.003-.007-.008-.012-.018-.017-.027-.07-.144-.189-.248-.317-.344a.31.31 0 0 1-.045-.044l-.024-.026c.067-.049.127-.029.179-.011a.94.94 0 0 0 .372.05c.222-.015.442-.042.64-.151.096-.053.16-.017.154.09l-.022.219-.014.114zm5.998 2.893l.017.02-.032.025-.058.043c-.219.147-.225.423-.027.591.088.074.178.09.284.084.06-.004.118-.012.155-.067.005-.008.016-.011.028-.015.018-.001.02.004.022.008-.011.026-.026.042-.041.058-.035.038-.07.076-.114.09a.43.43 0 0 1-.324-.019c-.164-.08-.281-.203-.375-.348l-.013-.021-.089-.153c-.019-.041-.027-.087-.034-.132l-.001-.009-.012-.097-.009-.079c-.012-.087.022-.12.111-.102l.456.091c.014.003.029.008.041.015.006.003.01.008.017.017zm3.614.218c.037.077.036.082.017.185l-.036-.025c-.021-.014-.037-.025-.049-.04a1.01 1.01 0 0 0-.383-.296c-.067-.029-.136-.054-.206-.074-.087-.026-.096-.041-.051-.117l.003-.005c.004-.008.009-.015.015-.022.064-.071.095-.148.062-.242-.007-.02.002-.05.014-.069a1.07 1.07 0 0 1 .101-.138c.045-.051.091-.045.119.014l.396.828zm-11.323.633c-.04-.007-.082-.014-.105-.085.242.021.436-.036.51-.256s-.044-.374-.237-.479c.01-.051.042-.056.074-.062l.013-.002.097-.019.326-.067c.108-.024.144.007.123.112-.008.032-.011.047-.011.062.003.287-.17.491-.374.674a.47.47 0 0 1-.408.125l-.008-.001z"/><path d="M8.916 17.447l-.033.02c-.027-.076-.006-.125.017-.172l.355-.73c.009-.019.016-.039.024-.059l.023-.058c.022-.045.066-.058.096-.019.014.018.03.035.046.052.058.062.117.125.083.228-.019.057.015.109.048.158l.005.007c.086.13.079.138-.076.177a.94.94 0 0 0-.39.212c-.032.027-.06.058-.089.089l-.062.064c-.012.012-.028.021-.047.032zm6.108 5.468l.023-.017.009.01.016.017a.53.53 0 0 1 .045.053l.093.146.113.176c.035.053.04.1.004.155l-.116.19-.065.109c-.011.018-.024.036-.04.049-.041.033-.08.026-.11-.02l-.207-.332c-.034-.055-.038-.113-.004-.169l.211-.342c.005-.009.015-.015.028-.024zm1.555.434l.013.031-.01.027c-.006.017-.012.032-.02.046l-.189.306c-.009.015-.02.029-.034.041-.039.035-.073.033-.1-.01l-.212-.341a.16.16 0 0 1 .004-.187l.119-.189.066-.107c.049-.078.083-.078.131-.001l.078.122.12.191a.49.49 0 0 1 .033.07zm1.218-.024l.01.028-.014.036c-.009.025-.018.05-.031.072l-.197.326c-.026.043-.061.049-.1.018a.19.19 0 0 1-.041-.049l-.188-.307a.13.13 0 0 1 .006-.156l.141-.217.06-.095.008-.012c.007-.011.013-.022.022-.032.036-.04.067-.038.097.005l.037.06.023.039.048.076.093.148c.011.018.018.038.025.059zm-5.347-9.649l.006.007.007.008c-.04.033-.074.02-.108.007a1.07 1.07 0 0 0-.501-.068.39.39 0 0 1-.045.002c-.095-.001-.116-.03-.072-.107.092-.16.083-.322.014-.485-.012-.028-.034-.053-.055-.077l-.01-.011-.011-.014c-.055-.066-.057-.099-.011-.17l.042-.067.084-.13c.008-.012.023-.019.039-.026l.02-.01c.02.027.029.038.031.05.005.032.003.065.002.097v.008c-.013.316.121.577.344.802.04.04.086.074.133.109l.07.053a.19.19 0 0 1 .024.024zm7.653.03l-.015-.005.108-.094.237-.218c.093-.097.142-.217.191-.338l.028-.069a.61.61 0 0 0 .032-.249.85.85 0 0 1 .018-.22l.033.022c.018.011.03.019.037.03l.078.122.047.075c.047.073.041.108-.015.179a.5.5 0 0 0-.075.55c.004.008.008.015.013.023s.01.015.013.023c.027.06.012.086-.055.091-.023.002-.045.001-.068 0l-.032-.001c-.168-.003-.333.005-.487.08-.033.016-.037.015-.089-.001zm-1.211 1.525l.011-.026c.008.001.017.001.027.001.02 0 .039 0 .053.009.138.089.264.305.181.479-.091.19-.232.301-.431.358-.06.018-.132.009-.197.001l-.471-.071c-.03-.005-.07-.022-.08-.044s.012-.056.027-.081l.052-.081.056-.088c.022-.039.045-.075.096-.075s.069.036.084.072c.04.097.128.147.222.175.168.051.327.036.461-.09.091-.086.124-.233.072-.345-.03-.065-.059-.126-.136-.156-.009-.003-.014-.014-.02-.025zm-5.337.002c.028-.026.058-.045.107-.006-.005.006-.009.013-.014.02-.01.015-.02.03-.034.039-.101.062-.132.165-.135.26-.003.071.044.157.095.215.177.196.49.145.633.002a.32.32 0 0 0 .047-.067l.012-.02c.047-.077.112-.082.162-.011l.147.219c.027.042.016.073-.032.092-.013.005-.028.007-.042.01l-.144.021-.305.048c-.23.045-.484-.074-.604-.266a.62.62 0 0 1-.079-.215c-.013-.074.028-.14.069-.203l.034-.054c.013-.023.036-.042.058-.06l.026-.022zm2.159.314l.051-.032c.073.201.003.335-.19.373-.216.043-.43.039-.617-.091s-.333-.321-.273-.562c.019-.075.057-.138.155-.22l-.002.027c-.001.015-.001.027-.007.034-.104.119-.066.25-.014.364.059.128.166.227.322.267.181.046.342.027.483-.097a.65.65 0 0 1 .091-.063zm1.063-.013l.031-.014.043.027c.032.02.063.039.088.064.091.094.212.121.333.12a.52.52 0 0 0 .412-.194.45.45 0 0 0 .105-.289.9.9 0 0 1 .006-.076l.003-.032c.052-.014.064.014.071.04.047.18.018.345-.114.489-.22.239-.496.288-.808.21-.115-.029-.169-.099-.174-.214a.88.88 0 0 1 .002-.089l.002-.041zm2.571-4.41c-.009.157.059.261.133.36.06.08.05.11-.049.137a3.09 3.09 0 0 0-.281.094c-.083.032-.104.028-.125-.055-.012-.048-.018-.104-.006-.151.021-.076.009-.134-.053-.188-.07-.061-.062-.095.03-.119a.48.48 0 0 0 .24-.141l.004-.004c.006-.007.012-.013.019-.018.044-.033.078-.022.085.029a.26.26 0 0 1 .001.055zm-5.792.426l.003.015-.003.026-.001.011c-.022.138-.045.148-.182.097a3.09 3.09 0 0 0-.248-.077l-.014-.004c-.077-.021-.09-.059-.043-.122l.008-.011c.039-.053.079-.107.106-.166a.49.49 0 0 0 .032-.135l.005-.036c.002-.012 0-.024-.002-.036s-.003-.025-.001-.037c.003-.019.016-.049.029-.05.021-.003.052.007.065.022.07.082.162.128.267.159.08.024.089.058.026.107-.07.055-.084.118-.056.196.005.014.008.028.011.041z"/><path d="M14.314 12.729c-.093-.078-.183-.169-.147-.307-.033-.142.067-.224.162-.302l.005-.005c.085-.069.247-.047.324.036a.55.55 0 0 1 .079.113c.034.063-.019.167-.093.183-.045.01-.054-.019-.06-.055l-.003-.02c-.006-.041-.013-.083-.032-.118-.041-.076-.135-.09-.209-.04-.087.059-.118.14-.103.238.017.11.082.187.191.224a.38.38 0 0 0 .458-.134l.008-.011c.019-.025.038-.049.078-.042s.095.075.098.118-.019.074-.06.09l-.198.071-.054.022-.078.031-.023.007c-.039.012-.081.026-.113.016a.7.7 0 0 1-.234-.114zm3.972-.562c.112.126.114.129.113.263.014.169-.086.272-.229.349l-.028.014-.04.021c-.076.045-.148.042-.23.003-.062-.03-.128-.053-.194-.076l-.104-.037c-.073-.028-.096-.07-.075-.129.032-.088.114-.106.173-.032a.44.44 0 0 0 .233.148c.128.039.298-.013.388-.139.078-.109.033-.283-.088-.349-.064-.035-.157-.014-.192.05-.013.024-.019.052-.025.079l-.012.049-.001.002c-.007.022-.018.056-.03.057-.024.003-.057-.008-.076-.024-.061-.049-.069-.101-.034-.168.064-.123.157-.182.277-.171a.23.23 0 0 1 .163.078l.011.012zm1.93 9.177l.021-.024.04.005.087.012.03.005.405.074c.019.004.037.016.054.028l.025.016-.015.022c-.01.016-.02.032-.035.041a.37.37 0 0 0-.181.285c-.01.074-.027.086-.106.094l-.067.006-.087.008c-.09.012-.122-.021-.082-.099.052-.099.046-.195.006-.292-.008-.021-.021-.04-.034-.059l-.025-.04c-.01-.018-.017-.037-.025-.056l-.011-.025zm-8.532.13l-.011-.021.028-.014c.017-.009.031-.017.047-.019l.458-.077.153-.025-.016.045c-.008.024-.013.042-.024.056-.092.125-.132.253-.059.402.035.073.004.104-.081.095l-.077-.008-.089-.009c-.048-.005-.089-.026-.093-.075-.012-.149-.097-.252-.224-.331-.005-.003-.008-.009-.012-.019zm9.943-7.619c.029.04.061.083.059.149l-.058-.03c-.038-.019-.072-.037-.101-.06l-.357-.298a.84.84 0 0 1-.134-.166c-.062-.095-.061-.2-.032-.304.017-.063.063-.075.115-.031a.36.36 0 0 1 .061.074l.078.116.348.52.021.03zm-10.729.152l-.005.002-.006.002c-.033-.029-.018-.051-.002-.073l.06-.087.159-.232.273-.418a.39.39 0 0 1 .067-.083c.052-.045.098-.034.115.028.033.12.021.233-.054.34-.096.136-.224.24-.355.343l-.189.14-.037.027c-.007.005-.017.008-.025.011zm7.421-3.548c.048-.052.105-.095.196-.083l-.003.026-.004.048-.005.053c-.004.041-.009.083-.005.123.015.157.136.246.268.306.12.055.266-.056.278-.194.009-.102-.039-.174-.139-.212l-.102-.042c.03-.077.088-.082.148-.075a.27.27 0 0 1 .219.34.41.41 0 0 1-.342.241.47.47 0 0 1-.378-.158c-.014-.016-.03-.034-.034-.053a.69.69 0 0 0-.102-.252c-.011-.016-.009-.054.004-.068zm-4.831.003c.089-.073.189-.07.275.021l-.039.019c-.024.012-.045.023-.068.028-.075.016-.111.065-.132.128-.03.091.024.22.109.264.096.049.188.016.281-.054.157-.118.175-.264.139-.431-.002-.011-.002-.023-.001-.034v-.015c.072-.009.174.026.191.073.01.025.006.065-.009.087a.47.47 0 0 0-.079.204c-.004.029-.026.057-.046.081-.122.152-.293.189-.475.145a.33.33 0 0 1-.25-.254c-.025-.106.018-.192.102-.261zm-1.079 1.267l-.03-.002.015-.044c.009-.027.016-.051.029-.071l.401-.597c.015-.022.05-.043.078-.045.041-.004.071.028.074.065l.004.043c.005.056.01.114-.011.161-.1.214-.277.364-.492.477-.013.007-.027.011-.042.013-.006.001-.013.001-.026 0zm7.77-.011l-.03.024-.047-.019c-.034-.014-.069-.027-.099-.047-.165-.11-.309-.237-.4-.412-.04-.076-.04-.154-.015-.233.011-.036.035-.068.077-.061.028.005.059.027.075.05l.394.589a.27.27 0 0 1 .031.074l.012.036zM14.18 23.356h-.008v-.667c.004-.05.015-.086.062-.086s.074.032.075.075l.001.192v.276l-.002.807a.42.42 0 0 1-.015.123.07.07 0 0 1-.058.035c-.019-.002-.04-.026-.048-.045s-.006-.036-.005-.055v-.655zm-5.264-3.294l.02-.015.045.03c.034.022.067.043.094.07.096.095.212.162.336.218.056.025.087.06.094.118.016.139.081.259.16.374.005.007.007.015.009.027l.006.023c-.01-.002-.019-.002-.027-.003-.016-.001-.029-.003-.037-.009l-.061-.05-.19-.17-.341-.412c-.032-.042-.055-.09-.078-.137l-.032-.065zm14.283.609c-.086.096-.177.188-.317.262l.006-.037c.002-.016.004-.026.009-.034a.85.85 0 0 0 .16-.384c.006-.058.044-.087.097-.116a3.49 3.49 0 0 0 .303-.189 1.39 1.39 0 0 0 .122-.096l.056-.046.001.003c.014.064.015.07-.171.33-.062.086-.135.166-.207.245l-.057.063zm-4.808 2.696h-.006v.665l.001.007c.001.011.002.022-.003.029-.013.018-.032.044-.049.045s-.051-.018-.058-.036c-.012-.031-.014-.068-.014-.103l-.001-1.13-.003-.081-.003-.065c-.001-.054.026-.088.07-.09s.067.03.067.09v.669zm2.902-1.866l-.011-.012-.01-.011c.046-.047.094-.044.141-.041l.045.001.066-.003.122-.007.096-.013.079-.012c.02-.002.039-.008.059-.013.04-.011.082-.023.13-.01-.04.079-.107.126-.174.172-.043.03-.086.06-.12.097l-.178.193-.078.085-.022-.008-.001-.028c-.001-.02-.003-.04.002-.059.034-.123-.01-.217-.11-.296-.013-.01-.024-.022-.037-.036zm-10.744-.103l.011-.03c.176.048.356.058.536.068l.152.01c.008.001.015.008.022.015l.006.006.004.003-.052.063a.46.46 0 0 0-.096.142c-.017.05-.013.106-.009.17l.004.099-.065-.065-.11-.115a1.05 1.05 0 0 0-.28-.25c-.033-.019-.059-.048-.085-.078l-.036-.039z"/><path d="M23.907 18.372l.029.002.011.036c.009.026.017.052.017.078l-.016.514-.005.144c0 .01-.002.021-.005.031l-.002.006c-.008.029-.018.064-.057.058-.022-.003-.045-.033-.056-.056l-.101-.231c-.011-.031-.012-.07-.002-.101l.137-.376.011-.028c.007-.018.017-.036.027-.053l.007-.013.006-.012zm-15.309.155c-.001-.052-.002-.108.052-.155.049.068.073.139.096.209l.01.031.074.2c.025.058.031.112.003.172l-.066.16-.021.054-.004.012c-.01.027-.02.056-.057.048-.022-.005-.042-.036-.053-.059s-.014-.054-.015-.082l-.001-.02-.018-.569zm7.874-10.683c.035-.002.057.01.079.022l.153.076c.068.028.129.007.192-.015l.062-.02c.05-.013.074-.048.098-.083s.044-.064.086-.078c.049.052.023.1-.005.143-.059.093-.149.159-.257.188a.93.93 0 0 0-.262.109.32.32 0 0 1-.07.032c-.044.015-.076-.002-.078-.046l-.009-.311c0-.005.005-.01.011-.017zm-.435.008l.047-.029.011.041c.006.021.01.035.01.05l-.008.229c-.005.075-.034.092-.109.063-.015-.006-.029-.014-.043-.021l-.035-.018-.048-.022-.142-.058c-.112-.035-.21-.088-.279-.179-.039-.051-.04-.064-.009-.14l.021.012c.015.008.029.016.038.027a.35.35 0 0 0 .477.086l.07-.042zM14.506 9.24l-.004.022-.08-.007c-.06-.006-.121-.013-.179-.005a.73.73 0 0 0-.168.05l-.089.033.007-.034c.004-.02.007-.036.015-.048l.201-.299c.013-.02.024-.042.035-.064l.036-.065c.01-.015.037-.029.053-.027s.041.025.042.04c.007.139.063.263.13.384.003.005.001.011-.001.021zm4.078.076l-.018.018-.043-.017-.095-.04a.35.35 0 0 0-.247-.023c-.026.007-.054.007-.088.008l-.059.002.02-.044c.01-.023.018-.041.029-.057a.47.47 0 0 0 .095-.273c0-.021 0-.043.009-.061s.025-.039.041-.041.043.014.052.029l.052.088.05.084.103.156.078.117c.007.011.012.023.016.036zm.052 3.312l.034-.042.015.025.015.027.079.194c.024.063.011.091-.059.105a.25.25 0 0 0-.195.179c-.032.091-.059.099-.136.036l-.016-.014c-.129-.115-.13-.122.01-.22.088-.061.152-.141.205-.229a.44.44 0 0 1 .047-.062zm-4.783.054l.042-.096.035.042.043.056a.74.74 0 0 0 .267.275c.064.036.066.062.016.116-.034.036-.071.072-.111.102-.047.036-.078.025-.099-.03l-.008-.03c-.029-.093-.083-.163-.194-.176-.041-.005-.082-.023-.069-.064a2.3 2.3 0 0 1 .079-.193zm1.618 10.459l-.03.001-.038-.049-.081-.111-.094-.149-.081-.129c-.047-.072-.028-.112.061-.116a1.49 1.49 0 0 1 .189.003c.055.004.087.037.088.09l.006.386c0 .017-.006.034-.012.05l-.008.023zm1.243-.024l-.011.046-.054-.061-.084-.102-.11-.177-.073-.119c-.044-.07-.023-.116.061-.119.062-.003.126-.003.188.005s.09.038.091.098l.002.373a.23.23 0 0 1-.01.054z"/><path d="M15.851 23.604l.01-.018c.07.027.103.08.135.131l.131.215.042.07c.02.031.03.047.035.064.011.041-.008.071-.054.073a1.57 1.57 0 0 1-.21-.006c-.062-.007-.082-.032-.085-.102l-.002-.148-.001-.123-.006-.063-.006-.062c0-.01.005-.02.012-.031zm.148-.607c-.033.052-.067.105-.13.131-.04-.027-.037-.061-.033-.094l.002-.024.003-.104.004-.197c-.001-.079.018-.108.103-.119a.91.91 0 0 1 .177-.004c.081.006.1.05.059.114l-.184.296zm1.126.133l-.034.03-.008-.049c-.005-.027-.008-.047-.008-.068l.004-.343c.001-.079.026-.106.111-.113a1.02 1.02 0 0 1 .166-.001c.086.006.105.049.057.119l-.026.036-.041.059-.074.117-.113.176c-.008.012-.019.021-.035.036zM15.994 6.839l.018.027-.015.036c-.008.021-.015.038-.027.051a.54.54 0 0 1-.244.156l-.101.03-.13.038c-.021.006-.051.003-.069-.007-.008-.005-.007-.041.003-.056l.003-.005c.04-.06.08-.121.129-.174.02-.022.067-.034.1-.032.079.004.135-.018.172-.086.024-.043.071-.058.113-.033.021.012.035.034.048.056zm5.949 9.764l.003.02-.004.023-.005.029c-.023.111-.048.118-.153.061a1.18 1.18 0 0 0-.202-.08c-.087-.028-.103-.063-.041-.125l.171-.16.017-.015c.025-.022.055-.026.076.004l.122.184c.011.019.013.041.015.06zm-4.009.751l-.025.016c-.044-.065-.024-.116.011-.154.152-.167.34-.225.533-.044.055.051.07.114.052.183-.005.02-.026.043-.047.051-.013.005-.039-.012-.055-.024-.009-.007-.016-.017-.022-.027l-.004-.006c-.115-.146-.278-.152-.399-.025-.012.012-.027.022-.044.032zm-.795-10.188l-.011.011-.013.001c-.014.001-.028.002-.041-.002l-.077-.025-.123-.036c-.112-.021-.195-.082-.27-.156-.017-.017-.031-.04-.039-.062-.017-.047.007-.097.052-.114s.092-.009.113.036c.034.073.089.094.17.082.029-.004.077.003.092.023a1.96 1.96 0 0 1 .118.178l.032.051zM10.62 16.64l-.004-.025.007-.024c.006-.021.013-.044.025-.066a1.72 1.72 0 0 1 .074-.113l.016-.024.015-.022c.022-.033.052-.041.082-.013l.187.177c.061.062.045.099-.042.126a1.19 1.19 0 0 0-.202.079c-.098.052-.127.044-.151-.059l-.007-.036z"/><path d="M14.053 17.295c.008-.115.16-.234.3-.235.109-.001.269.097.313.191l.003.005c.002.033-.002.052-.006.07l-.004.021c-.008-.003-.017-.005-.026-.008-.02-.005-.039-.01-.047-.022-.035-.055-.088-.07-.148-.081a.23.23 0 0 0-.227.078l-.026.033-.022.017c-.022.018-.045.038-.062.034-.053-.011-.05-.063-.047-.105zm4.69-7.105l-.032-.008.017-.046c.01-.03.019-.057.036-.077.049-.06.059-.125.06-.196 0-.038.014-.077.035-.117.064.049.101.111.138.172l.028.046c.013.021.029.041.045.061.039.05.079.101.089.173a.2.2 0 0 0-.026.005c-.018.004-.034.008-.047.003a.43.43 0 0 0-.314-.01c-.007.002-.016 0-.03-.005zm-3.75-2.435c.027-.046.052-.088.12-.086l.027.087.056.19c.016.059-.008.102-.07.109a.65.65 0 0 0-.269.091c-.014.009-.033.01-.054.011l-.03.003c-.009-.061.018-.099.045-.136l.017-.025.04-.06.115-.18.002-.004zm2.434-.004l.025-.083c.042-.008.073.022.097.058l.226.345c.011.017.019.037.027.055l.01.025c-.047.036-.081.014-.109-.005a.58.58 0 0 0-.246-.088c-.08-.011-.104-.053-.083-.127l.054-.18zm-3.891 2.435c-.044.015-.093.03-.157.011l.297-.454c.061.012.063.05.062.083a.37.37 0 0 0 .075.254c.013.016.018.038.025.065l.013.047-.082-.01-.151-.014c-.027-.001-.053.008-.081.017zm1.918 13.446l.026-.002.002.018.002.015.001.01.007.089-.007.146-.006.114c-.003.091-.016.106-.117.113-.044.003-.089.006-.132 0-.059-.008-.084-.04-.055-.087l.068-.118a1.28 1.28 0 0 1 .202-.295zm1.028.288c.058-.103.117-.208.212-.303.035.058.031.105.028.15l-.002.03-.002.063-.002.134c.003.102-.019.13-.13.14a.59.59 0 0 1-.133-.002c-.053-.008-.075-.04-.048-.082l.077-.131z"/><path d="M17.087 23.629l.032-.005.014.017.009.011.048.062.026.04.161.266c.041.075.015.11-.073.119h-.012c-.211 0-.21-.022-.209-.179v-.003l-.003-.119-.004-.101c0-.025.003-.05.006-.075l.002-.019.002-.015zm3.828-1.6l.023-.014.069.025c.052.021.105.041.156.04s.099-.025.152-.051l.073-.033.001.023c.001.013.002.024-.002.033l-.238.442-.02-.04c-.011-.022-.02-.038-.021-.056-.005-.1-.061-.176-.117-.252l-.011-.015-.014-.02a.64.64 0 0 1-.035-.056l-.005-.008-.011-.018zm-9.356.011l.073-.031c.023.047-.002.073-.026.097l-.021.024-.018.024a.58.58 0 0 0-.054.081.53.53 0 0 0-.035.089l-.006.018-.007.018-.029.079-.019.054-.237-.444c-.004-.008-.001-.019.002-.032l.005-.021.072.035a.4.4 0 0 0 .153.055c.051.003.095-.02.147-.044zm-.061-4.07l-.025-.01v-.102c0-.153-.071-.199-.189-.254-.024-.011-.057-.008-.088-.005l-.029.003c-.011.001-.023.004-.034.007s-.027.007-.041.007c-.041-.002-.055-.034-.032-.067a.22.22 0 0 1 .308-.059 1.02 1.02 0 0 1 .124.102c.111.101.085.221.048.34-.003.011-.015.019-.027.027zm9.59-.037v.031h-.021c-.079-.095-.096-.199-.05-.298s.144-.166.25-.211c.076-.032.216.032.238.108.004.014-.017.039-.033.053-.007.006-.031.004-.042-.003-.093-.053-.163-.007-.232.038l-.021.014c-.076.048-.087.125-.089.203l-.001.066zm-9.374 6.791l.072.032c-.005.05-.042.079-.079.107-.031.023-.062.047-.075.083a.76.76 0 0 1-.134.22l-.009-.033a.29.29 0 0 1-.014-.072l-.001-.354c.001-.051.035-.074.079-.055l.161.071zm2.961-.951c0-.032 0-.066.047-.082.018.009.027.014.032.021l.033.051.164.263c.041.071.01.113-.075.114-.182.001-.193-.01-.195-.183l-.003-.081-.003-.096v-.007zm6.391 1.387l-.017.021-.038-.078-.082-.152c-.032-.047-.072-.09-.112-.133l-.026-.028-.027-.03.069-.029.191-.077c.01-.004.026.007.041.016s.019.02.019.027l-.006.445c0 .005-.004.011-.012.019z"/><path d="M17.813 23.714l.018-.027c.058.019.058.054.057.086v.005l-.007.271c-.004.069-.024.086-.094.089l-.09.001h-.009c-.087 0-.114-.04-.073-.112l.117-.187.041-.064.041-.062zm.079-.779c0 .038.001.079-.061.113l-.011-.021-.015-.028-.053-.093-.077-.119-.056-.086c-.041-.064-.019-.109.058-.117a.41.41 0 0 1 .053-.001h.013c.124.002.144.024.142.144l.003.108.003.09v.008zm-3.166.1l-.009.003c-.018-.004-.021-.014-.025-.023a.18.18 0 0 1-.015-.056l.001-.282c.001-.052.032-.086.087-.091a.68.68 0 0 1 .133 0c.059.006.086.048.058.097l-.177.288-.034.053c-.003.004-.009.007-.02.01zm.604-4.137c-.127.011-.215-.045-.279-.15h.005c.019-.001.026-.002.031.001a.34.34 0 0 0 .4-.045l.001-.001c.005-.004.01-.009.016-.012l.023-.016c.033-.023.067-.048.105-.022.052.036.021.095-.002.134s-.063.072-.103.085a.7.7 0 0 1-.159.024l-.038.003zm2.163-.147c-.102.186-.276.16-.449.124-.078-.016-.127-.077-.134-.15-.006-.064.033-.091.097-.066a.26.26 0 0 1 .073.046c.118.104.25.105.391.05a.13.13 0 0 1 .022-.005zm-2.002-3.475c-.018.08-.108.141-.198.141-.077 0-.153-.043-.174-.108-.009-.026-.006-.064.01-.085.01-.014.053-.012.08-.008.017.002.034.012.05.021l.009.005c.053.03.101.041.148-.012.008-.008.023-.011.038-.014l.02-.004c.002.007.005.014.008.021.007.015.013.03.01.044zm1.591-.06c.026-.003.041.005.055.013.032.018.062.035.092.035s.059-.015.088-.031l.052-.024c.061-.021.103.014.091.074-.017.08-.13.147-.223.133s-.173-.102-.164-.189zm1.587-2.965c-.061-.041-.086-.093-.11-.144l-.023-.045c-.006-.011.002-.039.013-.046l.023-.014.183-.103c.045-.02.086.027.072.073-.002.008-.007.016-.011.024l-.002.004-.144.251z"/><path d="M15.11 13.593c.038.029.078.058.082.109-.007.039-.039.055-.065.038-.073-.05-.136-.028-.205.007-.035.018-.08.033-.108-.013-.024-.04-.001-.074.031-.101l.004-.003c.026-.022.052-.045.082-.062.052-.029.109-.029.156.009l.022.017zm3.662 1.559l.008.014-.032.036c-.023.027-.047.054-.075.075-.076.057-.081.126-.059.206l.02.08.009.039c-.075.016-.113-.011-.139-.058-.069-.127-.02-.273.116-.338.033-.016.068-.027.104-.038l.048-.015zm-4.768-3.042c-.023.05-.047.101-.106.135l-.016-.013c-.008-.006-.013-.01-.016-.016l-.057-.106-.054-.1c-.017-.031-.035-.063-.005-.093s.073-.019.11.004l.122.07c.031.016.064.039.045.072l-.023.046zm.082 3.273c.023.119-.035.204-.184.245l.015-.048.026-.082c.027-.088.036-.171-.066-.228-.015-.008-.024-.026-.034-.046l-.017-.03c.133-.011.238.072.261.19zm3.302 2.798c.119-.012.226.072.248.202-.087-.069-.18-.098-.286-.057a.24.24 0 0 0-.045.025l-.039.023c-.014.006-.03.009-.047.012l-.021.004-.004-.025c-.004-.018-.008-.037-.001-.051a.23.23 0 0 1 .196-.133zm-.013-4.498a.27.27 0 0 1 .185-.133c.059-.001.18.08.196.135.013.042-.015.077-.063.076-.014 0-.03-.003-.043-.009-.071-.033-.139-.055-.218-.011-.038.021-.071-.016-.058-.057zm-4.639 10.005l.034.01c0 .008.001.016.002.024.002.018.004.036-.004.049l-.024.039c-.03.051-.061.103-.108.135-.106.072-.281.038-.365-.06h.034a.3.3 0 0 1 .056.001c.12.018.217-.007.286-.11.015-.023.037-.042.059-.061l.03-.026zm2.206-5.306l-.027.014c.032-.129.105-.195.218-.212a.23.23 0 0 1 .231.113c.009.015.019.032.019.048s-.007.037-.019.044-.035.002-.05-.004c-.01-.004-.018-.012-.026-.019l-.017-.014c-.08-.055-.227-.069-.305.014a.09.09 0 0 1-.025.016zm4.852 5.313l.033-.009.034.032c.025.023.05.046.069.073.06.088.146.11.249.1.015-.002.031.001.049.003l.015.002.012.001c-.075.092-.233.118-.33.046-.048-.036-.082-.09-.114-.143l-.02-.032c-.008-.012-.005-.031-.001-.049l.003-.025zm-9.726-7.403c.066 0 .137.066.135.127a.16.16 0 0 1-.135.131c-.057 0-.129-.075-.128-.136s.068-.122.127-.122zm12.425-.001c.061-.001.136.071.134.129a.16.16 0 0 1-.137.129c-.062-.003-.13-.076-.126-.136s.069-.121.129-.122zm-.129.446c-.005.06-.061.106-.128.105s-.117-.057-.117-.126c0-.057.044-.113.089-.114.066-.002.161.081.156.136z"/><path d="M16.982 9.319l.015.012-.027.009c-.014.005-.025.009-.036.01-.056.009-.071.042-.066.09l.001.011c.003.027.006.055 0 .081-.012.05-.056.064-.101.037-.079-.047-.095-.145-.025-.204.042-.035.098-.06.151-.08.033-.013.038-.008.087.033zm-6.539 7.403c-.004.07-.057.12-.126.12s-.118-.051-.116-.115c.002-.05.086-.122.146-.124.052-.002.099.057.096.119zm11.548-.427c.003-.064.062-.114.134-.114.065 0 .1.03.101.085.001.078-.068.164-.128.16a.16.16 0 0 1-.107-.131zm-12.151.551c-.073-.001-.13-.06-.128-.131.002-.063.042-.1.104-.096.07.004.143.069.141.124s-.053.104-.116.103z"/><path d="M10.454 16.422c-.057-.005-.117-.091-.114-.162.002-.055.04-.083.106-.079.072.003.126.056.125.122-.001.058-.066.124-.116.119zm5.126-7.089l-.003-.027c.008-.002.016-.005.024-.008.018-.006.036-.012.053-.011a.23.23 0 0 1 .194.123c.022.04.022.082-.007.119-.025.031-.054.064-.101.051s-.053-.054-.052-.094c0-.01.002-.021.004-.031.011-.057-.007-.096-.075-.105-.009-.001-.017-.006-.026-.01l-.007-.004-.004-.002zm7.186 7.287c.055.003.089.041.087.1a.13.13 0 0 1-.135.125c-.061-.002-.112-.051-.113-.108s.09-.121.16-.117zm.055-.41l.007-.005c.085-.006.136.032.153.085a.15.15 0 0 1-.058.148c-.041.021-.105.005-.122-.041a.32.32 0 0 1-.02-.142c.002-.018.024-.034.041-.045zm-7.575-4.97l-.005.009a.9.9 0 0 1-.005-.072c-.002-.062-.005-.121-.043-.18s-.089-.07-.144-.086c-.033-.009-.066-.019-.095-.037.043-.056.1-.054.153-.048a.24.24 0 0 1 .179.221l-.004.039-.013.106c-.002.014-.01.026-.018.039l-.005.009zm-5.534 4.961c.054.002.08.031.08.091 0 .085-.05.152-.115.154-.05.002-.097-.056-.098-.119s.063-.128.133-.126zm10.713 1.145c.039.016.063.048.044.116l-.034-.012c-.022-.008-.041-.014-.058-.025l-.003-.002c-.1-.065-.101-.065-.199-.008l-.003.003-.002.001-.03.005c-.021.003-.043.006-.053-.003-.032-.027-.009-.058.019-.078s.059-.038.09-.056l.012-.007c.009-.005.02-.008.031-.011.056-.013.093.014.13.041a.3.3 0 0 0 .057.035zm-8.283.099l-.033.017-.012-.025c.022-.129.196-.196.298-.133l.017.01a.22.22 0 0 1 .061.045c.015.018.011.045.003.063-.005.01-.038.011-.058.009-.009-.001-.017-.007-.024-.013-.089-.056-.117-.054-.19-.006-.019.012-.04.022-.062.033z"/><path d="M17.352 11.244l-.024.008c-.017-.021-.024-.03-.026-.04l-.009-.063-.013-.081c-.028-.113.053-.172.13-.228l.003-.003c.054-.039.13-.017.181.041-.026.017-.057.025-.088.034-.055.016-.11.031-.142.092-.043.082-.043.157-.013.24zm-2.246-2.407l-.068-.007c.089-.102.135-.117.218-.078.115.054.146.11.117.232l-.042-.043c-.03-.032-.059-.063-.094-.079s-.082-.021-.131-.025z"/><path d="M17.279 8.77c.112-.064.16-.053.24.062l-.066.006a.35.35 0 0 0-.126.023c-.036.017-.063.047-.09.077l-.037.039c-.051-.082-.027-.145.078-.206zm5.342 7.296c-.002.054-.038.075-.133.076-.086.001-.119-.019-.122-.073s.057-.107.125-.108.131.052.13.105zm-12.424-.002c-.002.057-.041.078-.143.077-.081-.001-.112-.019-.113-.069-.001-.057.069-.113.137-.11s.121.05.119.101zm9.601 5.758c-.059.006-.118.004-.154-.075l.032-.01c.019-.006.034-.011.05-.012.053-.003.1-.012.142-.046.01-.008.027-.008.044-.009l.023-.001.003.022c.002.016.005.032 0 .046-.023.059-.078.079-.139.085zm-7.067-.005c-.088-.022-.117-.065-.097-.163l.049.025c.034.017.064.033.096.042s.063.01.096.012l.046.003c-.035.082-.095.105-.189.081zm3.726-15.681c.045.001.083.048.084.107s-.034.096-.08.094c-.053-.001-.062-.04-.07-.078v-.002l-.001-.01c-.007-.068.02-.112.068-.111zm-.285.083l.001.008-.001.01-.002.021c-.009.06-.034.086-.076.082-.052-.005-.082-.051-.071-.108a.14.14 0 0 1 .009-.03c.016-.036.036-.072.086-.064s.051.045.054.081zm-2.502 8.219l.032.033c-.053.042-.1.043-.143.004a.39.39 0 0 1-.071-.091c-.008-.014-.004-.045.008-.054s.04-.004.059 0c.011.003.02.012.028.021l.005.005.081.082zm5.224.049l-.023-.012.037-.045c.025-.031.047-.058.073-.08.02-.017.065-.03.085-.02.038.018.021.055-.002.08l-.02.025c-.029.036-.058.073-.117.066-.01-.001-.02-.007-.033-.014zm-2.766-7.3c.006.095-.017.133-.053.133s-.066-.037-.067-.083c-.001-.055.04-.109.076-.094.02.008.034.03.043.045zm.363.13c-.037.005-.062-.036-.06-.1l.001-.007c.004-.03.008-.066.06-.067.039-.001.069.043.065.092-.003.04-.016.076-.066.082zm-2.633 4.256c-.003-.043.025-.064.103-.064.027.019.048.034.054.053.011.034-.042.076-.086.075s-.068-.022-.07-.063zm4.778-.067c.05.003.072.022.069.062s-.035.069-.082.064-.08-.037-.079-.073.037-.056.092-.053zM15.94 6.577c-.081.009-.111-.018-.107-.06.004-.035.022-.058.063-.059s.094.042.082.078c-.006.017-.024.03-.038.04zm2.877 5.096l.037-.033.027.033c.016.018.029.033.033.049.009.042-.022.062-.065.065-.05.003-.099-.029-.084-.058.01-.02.029-.036.052-.056zM16.72 6.485c.015.072-.013.091-.054.095s-.068-.004-.075-.044.036-.087.08-.08c.019.003.035.017.049.029z"/><path d="M13.684 11.678c.075-.009.121.024.117.055-.005.044-.043.053-.081.053s-.075-.021-.067-.063c.003-.017.019-.033.031-.045zm4.895.197c-.074.011-.121-.021-.109-.053a.11.11 0 0 1 .064-.057c.035-.01.08.034.073.071-.003.015-.017.029-.027.039zm-.235-.376c.036-.007.064.023.067.085-.018.029-.032.05-.051.062s-.062-.034-.066-.079c-.003-.036.012-.061.05-.068zm-4.266.291l.005.004c.011.061-.026.092-.07.092-.034-.001-.056-.016-.057-.049s.037-.08.073-.074c.019.003.036.016.05.027z"/><path d="M14.261 11.531l.035.025c-.012.013-.023.027-.032.04-.019.025-.034.046-.053.049-.046.008-.052-.04-.053-.075s.01-.069.051-.067c.017.001.032.013.052.028zm-.604-.083c-.004-.033.03-.058.094-.056l.045.053-.023.015c-.017.012-.034.024-.053.028-.029.008-.059-.005-.062-.04zm3.333.784c.025-.038.064-.05.134-.038l-.103.13c-.053-.028-.052-.061-.032-.093zm1.888-.748l-.026.03-.082-.078.02-.015c.015-.012.029-.024.046-.027.035-.007.071.011.07.049 0 .013-.012.025-.027.042z"/><path d="M18.595 11.32l.041.023-.039.028c-.021.016-.036.028-.053.031-.035.007-.073-.015-.066-.05.004-.021.041-.045.068-.052.012-.003.027.006.049.019zm-4.513.019l.033.031-.046.017c-.025.01-.043.017-.06.016-.038-.002-.058-.032-.048-.066s.046-.045.079-.031c.014.006.026.018.043.034zm1.483.878c.03.028.026.059-.013.113l-.095-.12c.05-.033.082-.017.108.007zm.741-6.295l-.026.038-.023-.039c-.012-.02-.021-.034-.023-.049-.005-.031.006-.067.049-.065s.054.037.048.068c-.002.014-.012.028-.026.047zm3.194 4.843c-.069 0-.076-.031-.067-.062.006-.019.03-.046.046-.046.042-.001.053.034.046.066-.004.016-.015.029-.026.042zm-6.434-.112l.027-.003.003.005.004.006.005.008c.01.014.02.028.024.044.007.027.001.063-.038.06-.02-.002-.047-.031-.051-.052-.003-.014.005-.03.014-.047l.01-.021zm-.878 7.114l.02.015-.022.014c-.011.007-.019.012-.021.011-.018-.012-.033-.029-.047-.046-.001-.001.023-.025.026-.023.014.008.027.017.044.03zm4.526-10.1c-.047-.012-.054-.034-.029-.087l.017.02c.01.011.017.019.02.027s0 .015-.003.024z"/><path d="M17.72 15.035l.023-.012.02.038-.006.003c-.018-.004-.024-.013-.03-.021l-.006-.008zm-2.372-5.956l.011.02-.024.016c-.009-.014-.013-.02-.011-.022l.021-.012.004-.002zm1.888.029c-.023-.006-.028-.011-.029-.017l.018-.018.003.003.004.003c.014.018.009.023.004.029zm-1.377-1.494l.009-.009.008.01c.007.02.001.024-.004.029h-.013c-.01-.018-.005-.023.001-.029zm2.576 3.543l.004-.004.015.01-.018.016-.002-.002-.002-.003z"/><path fill-rule="evenodd" d="M16.132 32c8.837 0 16-7.163 16-16s-7.163-16-16-16-16 7.163-16 16 7.163 16 16 16zm-.512-5.606h2.512l2.157-.005c.064 0 .132 0 .19-.021a2.89 2.89 0 0 0 .416-.174c.353-.192.584-.472.642-.859a3.04 3.04 0 0 0 .024-.417l.009-1.093.007-.885c.002-.155.032-.306.097-.449a1.6 1.6 0 0 1 .784-.798l.344-.172c.667-.348 1.126-.867 1.403-1.53.219-.524.263-1.072.211-1.628-.059-.634-.277-1.227-.575-1.794a18.45 18.45 0 0 0-.617-1.066c-.28-.456-.57-.907-.863-1.356l-1.096-1.663-.306-.463-4.59-6.931c-.081-.123-.095-.124-.175-.003l-.564.854-1.28 1.934-.479.722-.966 1.46-1.445 2.184L10.295 14l-.51.777c-.102.159-.198.321-.295.483l-.225.371c-.27.434-.531.871-.731 1.339-.224.522-.371 1.058-.398 1.623-.03.639.095 1.241.431 1.803.253.422.589.77 1.024 1.028.105.062.215.115.325.169l.222.111c.333.177.587.423.739.757a1.38 1.38 0 0 1 .12.592l-.006.34-.007.455.009 1.005a4.01 4.01 0 0 0 .026.417c.064.519.394.841.886 1.037.202.08.417.094.634.093l1.258-.005h1.822z"/></svg>