<svg xmlns="http://www.w3.org/2000/svg" width="330" height="54" fill="#fff"  xmlns:v="https://vecta.io/nano"><path d="M156.483 27.084l-2.391 2.182c-3.424 3.145-3.166 8.6 1.292 10.911 4.071 2.118 8.529 2.503 12.987 2.76 3.876.192 7.753.578 11.306-1.605 1.163-.706 2.391-1.412 3.36-2.375.581-.578 1.034-1.605 1.034-2.439l.064-28.496c0-2.824-.84-3.787-3.618-4.364-.387-.064-.71-.193-1.292-.385.258-.257.388-.449.582-.449l11.629-1.027c1.292-.064 2.843 1.605 2.843 2.952v27.854c0 .449-.517.898-.84 1.348-.323-.514-.905-1.027-.969-1.54l-.065-24.389c0-1.091-.387-2.246-.775-3.273-.194-.449-.84-.706-1.228-1.027-.258.449-.646.963-.71 1.412l-.065 12.515v16.302c0 1.412-.388 2.375-1.421 3.466-2.908 3.081-6.203 5.584-10.209 7.124-7.3 2.76-14.73 3.273-22.16.449-2.843-1.091-5.363-2.824-6.914-5.648-1.486-2.696-1.098-5.263.84-7.637 1.745-2.118 3.812-3.787 6.267-5.006.194 0 .324.192.453.385zm100.143-9.113c-.516 2.118-1.227 3.979-1.356 5.969-.13 1.669.323 3.466.775 5.134.646 2.054 2.391 2.888 4.458 3.145.065.193.065.321.129.513-.969.321-1.938 1.091-2.843.963a10.46 10.46 0 0 1-4.264-1.797c-.904-.642-1.292-.963-2.326-.321-3.23 2.118-6.654 3.081-10.466 1.219-2.068-1.027-3.102-2.246-3.102-4.557 0-1.733-.193-3.402.065-5.134.323-2.631-.711-4.172-3.683-4.878v15.339c-.258 0-.516.064-.775.064-.129-.578-.258-1.155-.258-1.669 0-4.3-.13-8.6.064-12.836.065-1.669-.517-2.567-2.067-3.016-.776-.193-1.486-.578-2.197-.899v-.513c.969-.193 1.938-.578 2.907-.642 1.034-.064 1.357-.514 1.357-1.412 0-1.219.065-2.439.129-3.658.259 0 .453 0 .711-.064.065.706.194 1.476.194 2.182.065 3.209 0 3.209 3.36 4.108V4.942c-1.228 1.348-2.132 2.246-3.166 3.337-.065-.385-.194-.642-.065-.706l7.301-7.06c.323-.321.969-.321 1.421-.513.13.449.259.899.259 1.412 0 4.043.323 8.151-.065 12.194-.323 3.594 1.68 5.135 4.329 6.546.775.385 1.551.642 2.584 1.091-1.873 1.091-3.553 1.604-5.427 1.091-1.098-.321-1.421.064-1.421 1.091v5.584c0 1.284.904 2.054 2.067 2.246 1.228.257 2.585.257 3.812.257.194 0 .388-.706.517-1.091.129-.321.194-.899.388-1.027 1.873-.898 1.357-2.503 1.421-3.979.129-2.696.905-5.07 3.295-6.675.646-.321 1.357-.513 1.938-.77zm26.102 20.987c0 .193 0 .449-.064.578-1.163 3.209-.452 5.455 2.455 7.252 2.907 1.861 6.202 2.567 9.562 2.952 6.913.77 13.891.963 20.804.064 2.52-.321 4.975-1.348 7.495-1.99 1.292-.321 1.486-1.219 1.486-2.375v-27.34c0-1.605 1.034-2.503 2.972-2.631 1.55-.064 2.52.77 2.52 2.375l-.065 23.041c0 1.155-.582 2.439-1.292 3.466-2.391 3.787-5.621 6.547-10.144 7.702-6.784 1.733-13.762 2.31-20.675 1.733-5.75-.449-11.177-2.118-15.506-6.226-2.455-2.31-2.778-4.3-1.357-7.124.323-.706.97-1.219 1.486-1.861.065.192.194.257.323.385zM28.945 32.283c.323-1.219.84-2.439.904-3.658l.065-7.252c0-1.797.452-2.182 2.261-2.246h4.975v.834c-.84.064-1.68.192-2.52.128-1.421-.064-2.003.514-1.938 1.925v6.932c-.065 3.209-1.874 4.942-5.169 4.878h-.969c-3.424 0-4.006-.578-4.006-4.043l-.065-7.06c-.065-1.027-.517-1.99-.904-3.209 1.292-.449.904-1.99.904-3.401V4.749c0-1.284-.065-2.311-1.809-2.054-.194 0-.452-.193-1.098-.513.775-.257 1.098-.449 1.486-.449h5.815c1.357 0 1.163.899 1.163 1.733v27.02c0 .578.129 1.155.129 1.733.258 0 .517 0 .775.064zM17.574 19.96c-.581.128-1.163.385-1.68.257-1.551-.321-1.745.513-1.745 1.733v8.729c0 2.695-.388 3.081-3.23 3.081-.582 0-1.228-.064-1.809 0-3.553.449-6.461-.834-9.11-3.466 2.972-.321 5.621 0 8.27 1.669.129-.578.323-.963.323-1.348v-9.37c0-1.091-.194-1.54-1.551-1.348-1.486.257-3.101.064-4.975.064 1.098-1.797 2.455-1.797 3.747-1.797 2.907 0 2.714.449 2.714-2.76V4.364c0-.513-.065-1.027-.129-1.861-.581.321-1.034.385-1.292.642C6.59 3.53 6.202 4.3 5.686 4.3c-1.551.128-3.101 0-4.652-.064-.194 0-.517-.578-.388-.706.323-.578.711-1.284 1.228-1.605s1.292-.257 1.938-.257l8.593-.064c1.292-.064 1.615.449 1.615 1.605l-.065 12.708c-.065 1.861.582 2.76 2.326 3.081.388.064.711.321 1.098.449.194.257.194.385.194.514zm90.775-17.842v27.148c0 1.925-.904 3.402-2.778 4.043-2.455.77-4.91.578-7.495 0 .323-.128.646-.321.969-.385 2.714-.706 3.748-1.925 3.748-4.749V6.226c0-2.888.258-3.209 3.166-3.851l2.132-.385a.49.49 0 0 1 .258.128zm213.855 15.275a.78.78 0 0 1 .194.128c.13 4.493.776 8.985-.71 13.35-.582 1.733-2.132 2.952-4.071 2.888-2.455-.064-4.91-.385-7.365-.77-1.745-.321-2.52-1.412-2.52-3.145 0-3.402-.064-6.803.065-10.205 0-.77.581-1.861 1.227-2.246 2.197-1.219 4.523-2.246 7.236-1.99 1.293.128 2.585 0 3.877 0 0 .257.065.513.065.77-1.034.128-2.003.321-3.037.321-3.877.064-3.877 0-3.877 3.915v8.921c-.064 1.669.776 2.439 2.326 2.631 4.588.642 5.04.257 5.105-4.3l.064-7.894c0-1.091.194-2.054 1.421-2.375zm-244.35-1.99c2.197.128 4.458 0 6.59.513 1.551.385 2.391 1.99 2.455 3.594.129 4.364.065 8.793 0 13.157 0 .385-.646.77-1.034 1.155h-.129c-4.717.513-4.781.449-4.781-4.172v-8.729c.065-2.375-.388-4.3-3.295-4.749l.194-.77zm-3.295 1.477l-.194 12.002c0 1.348.452 2.888-.969 3.787-1.874 1.155-4.07 1.54-6.203.963-.581-.193-1.228-1.412-1.292-2.118-.129-3.787-.065-7.573-.065-11.36 0-1.348-.065-2.567-2.068-3.273.905-.578 1.421-1.219 1.938-1.155.452.064.969.77 1.163 1.348.258.642.388 1.348.388 2.054v11.167c0 .257-.129.578 0 .834.258.449.581.834.904 1.219.323-.385.775-.706.969-1.155s.129-.963.129-1.476v-7.06c0-4.172 1.357-5.52 5.298-5.776zm219.928-.835c2.649-1.091 6.978-.77 8.012.77.711.963 1.227 2.246 1.292 3.402.129 3.979 0 8.023.065 12.002 0 1.284-.453 1.669-1.616 1.605-5.427-.064-4.264.513-4.393-4.172a159.82 159.82 0 0 1 0-7.894c.129-2.503.258-5.006-3.36-5.712zm-2.584.706c-1.098 4.364-.388 8.729-.582 13.029-.129 2.439-.323 3.017-2.713 3.658-1.228.321-2.649.385-3.941.321s-1.874-.898-1.874-2.246V20.345c0-1.412-.065-2.76-2.003-3.658.84-.514 1.422-1.091 1.938-1.027.453.064.905.834 1.099 1.412.258.642.323 1.348.323 2.054l.064 11.36c0 .578.517 1.22.776 1.797.387-.578 1.098-1.155 1.098-1.733.129-2.439.065-4.942.065-7.381.064-4.749.775-5.584 5.75-6.418zm-159.907-.642c-.84 1.155-1.809 1.476-2.843.834-1.809-1.091-3.359-.449-4.716.706-2.262 1.861-4.523 6.546-2.326 10.076 1.292 2.054 2.972 3.658 5.427 4.3 1.034.257 2.067.706 3.037 1.091-.065.257-.13.449-.13.449-4.587.513-9.045.642-12.728-2.952-2.455-2.375-2.713-5.455-.71-8.857 2.519-4.364 9.368-7.252 14.149-6.097.258.064.452.257.84.449zm78.952 17.586c-2.067 0-4.07.128-6.138-.064-3.359-.321-6.138-1.733-7.947-4.621-1.55-2.375-.646-4.685.323-6.867 2.003-4.493 9.95-7.958 14.537-6.418.13.064.259.193.388.385-.452 1.091-1.357 1.22-2.261 1.027-3.618-.834-5.169-.257-6.978 2.824-3.166 5.52-.129 10.461 5.233 12.066.969.321 1.938.706 2.843 1.091v.578zm64.415-3.402c-3.553 1.99-7.107 3.594-11.113 2.182-1.809-.578-3.553-1.54-5.168-2.503-1.422-.834-1.357-1.284-.065-2.246l11.953-8.536c.323-.257.581-.706.84-1.091-.388-.321-.84-.834-1.293-.899-3.101-.321-6.202-.578-9.497-.834 1.486-.321 2.907-1.027 4.329-.963 3.489.128 6.913.578 10.337.963.452.064.84.578 1.292.834-.323.385-.517.899-.969 1.155l-12.211 8.151c-.452.321-.84.642-1.615 1.219 4.393 2.567 8.464 4.043 13.18 2.567zM136.648 16.559c1.034-1.091 2.52-1.284 4.006-.963.71.192 1.679 1.155 1.744 1.797.194 5.134.388 10.333.065 15.468-.194 2.182-2.649.578-4.071.963-.969.321-1.357-.321-1.357-1.284V19.896c-.064-1.091-.258-2.054-.387-3.337zm80.244 0c1.034-1.155 2.649-1.348 4.135-.963.711.192 1.615 1.219 1.615 1.861.194 5.07.129 10.205.129 15.275 0 .321-.71.706-1.098 1.027-.065.064-.194 0-.323 0-4.07.064-4.07.064-4.07-3.915V19.318c0-.77-.194-1.605-.388-2.76zm-118.299-.835l-.194.449c-3.747.642-4.199 3.273-3.876 6.354.129 1.284-.065 2.631.065 3.979l.646 5.969c-2.778.064-6.526-2.054-6.203-5.134.194-1.99 0-3.979.065-5.905 0-3.081.84-4.364 3.812-5.391 1.68-.706 3.618-.834 5.686-.321zM43.869 17.2c-2.067 2.952-3.683 5.969-2.52 9.627 1.228 3.851 4.846 4.364 8.205 5.327-2.649 2.054-7.559 2.246-10.079.642-2.455-1.605-3.683-5.006-2.907-8.151.904-3.851 4.329-7.381 7.301-7.445zm8.4-.898c.194-.128.646-.514 1.163-.642 3.166-.899 6.461 1.412 6.849 4.685.452 3.915-2.003 8.023-5.944 9.884-.517.257-1.098.449-1.874.77.646-1.861 1.421-3.402 1.744-5.006.388-1.99.711-4.043.452-5.969-.258-1.219-1.486-2.311-2.391-3.722zm59.634-13.671c.387.963 1.033 1.861 1.033 2.824v27.02c0 .449-.581.898-.969 1.348-.258-.513-.84-.963-.84-1.476l-.064-28.496c0-.321.129-.706.194-1.027l.646-.193zm21.385 30.037V20.217c.065-1.604.517-2.31 1.745-2.888.064.257.193.513.193.77l-.064 12.002c0 1.54-.646 2.439-1.874 2.567zm79.986 0l.323-2.952v-9.242c0-1.284.323-2.439 1.615-3.273.129.321.259.514.259.706l-.065 12.708c0 1.348-.84 1.99-2.132 2.054z"/></svg>