<svg xmlns="http://www.w3.org/2000/svg" width="33" height="32" fill="#2b2b2b"  xmlns:v="https://vecta.io/nano"><path d="M6.237 19.124c0 1.508 1.29 2.735 2.874 2.735 1.175 0 2.188-.677 2.634-1.641H8.824c-.654 0-1.071-.67-.755-1.217l1.491-2.578a2.81 2.81 0 0 0-.449-.034c-1.585 0-2.874 1.227-2.874 2.735zm16.83 2.731c1.455-.072 2.634-1.193 2.713-2.581.086-1.576-1.232-2.885-2.871-2.882-.194 0-.384.017-.571.055l1.746 2.766c.162.26.075.598-.198.752l-.492.28c-.273.154-.629.072-.79-.188l-1.775-2.817c-.492.489-.794 1.152-.794 1.884 0 1.559 1.376 2.817 3.033 2.732z"/><g fill-rule="evenodd"><path d="M12.038 15.996c.002.007.005.014.008.02l.004.01.002.006c.032.232.092.302.271.328.173.025.35-.06.42-.202.066-.135.015-.3-.127-.411-.2-.156-.47-.176-.675-.069a.69.69 0 0 0-.364.734c.045.226.255.405.513.441 1.941-.169 2.659-.395 1.046-.526.062-.115.188-.206.3-.287l.001-.001.338-.228.317-.213c.108-.077.087-.175-.048-.203l-.089-.019c-.21-.045-.424-.091-.634-.086-.267.007-.509-.028-.752-.155l.158-.213.427-.554c.057-.068.179-.102.278-.12a.93.93 0 0 0 .497-.242c.116-.113.257-.152.417-.127.145.022.281.012.404-.077.148-.107.301-.097.468-.054h.001l.49.102.204.035c.011.002.023.007.042.015l.05.02-.143.067c-.092.045-.175.085-.263.108-.288.074-.501.215-.615.487a.83.83 0 0 1-.185.258.4.4 0 0 1-.406.102c-.148-.043-.275-.111-.309-.281-.029-.147.037-.221.174-.276-.055.228-.007.355.141.393.183.047.39-.053.447-.215.071-.202-.005-.372-.193-.443-.253-.096-.479-.051-.674.124-.157.142-.22.289-.197.494.042.38.555.57.915.447a.76.76 0 0 0 .521-.471l.007-.015a.55.55 0 0 1 .46-.34.59.59 0 0 1 .224.023l.112.037.797.24c.176.03.361.019.545.007l.09-.006.163-.006.122.004.056.003.012.051-.077.029-.047.018-.124.042-.055.016c-.2.056-.4.113-.541.271s-.197.29-.197.29l-.013.022c-.139.237-.365.314-.608.175-.07-.04-.108-.147-.133-.231-.011-.037.05-.092.101-.13-.083.095-.07.186.001.272.09.109.212.07.318.034a.21.21 0 0 0 .152-.249c-.033-.223-.292-.387-.554-.351-.207.029-.37.282-.334.505a.93.93 0 0 0 .17.302c.12.115.395.173.395.173-.253-.019-.377.18-.5.388s-.123.423.016.636c.125.193.291.316.527.362.242.048.519-.118.576-.355.063-.258-.083-.521-.318-.569-.137-.028-.261.011-.325.125-.035.063-.034.163-.007.23.012.029.046.056.085.075.028.014.058.024.085.028s.052-.024.088-.058l.062-.055c.005.015.013.03.021.046l.001.002c.019.037.038.074.029.103a.24.24 0 0 1-.248.172c-.15-.003-.317-.182-.342-.361s.074-.367.237-.39c.118-.017.255.001.365.044a1.28 1.28 0 0 0 .977.015c.137-.053.301-.044.462-.036l.03.002c-.132.195-.262.37-.474.471l-.026.012-.065.03-.063.029-.445.227c-.222.136-.39.319-.384.595-.227.063-.411-.033-.592-.128l-.018-.009c-.273-.142-.553-.198-.863-.118-.284.074-.612.422-.64.698-.023.232.234.641.489.73a2.6 2.6 0 0 0 .392.093l.101.019.079.016-.088.079c-.074.068-.156.145-.253.195-.202.106-.4.028-.573-.09a1.1 1.1 0 0 0-.89-.186.48.48 0 0 1-.093.009c-.033 0-.066-.001-.099-.003h-.003l-.071-.003c-.014 0-.027-.005-.04-.01a.43.43 0 0 1 .022-.143l.002-.008.002-.006c.032-.115.063-.229.119-.331a.83.83 0 0 1 .298-.311c.297-.169.498-.419.7-.669l.034-.042c.076-.094.034-.174-.083-.176l-.035-.001c-.145-.003-.302-.006-.427.046-.237.1-.449.082-.666-.017-.244-.112-.496-.154-.763-.089-.336.081-.56.386-.487.665.086.324.458.533.789.443.141-.038.276-.122.28-.253s-.058-.278-.129-.397c-.056-.092-.337-.064-.421.02-.076.076-.044.202.059.239l.008.003.007.003.044.021.012.006.015.007-.006.045c-.014 0-.031.002-.048.004h-.002c-.038.004-.075.009-.091-.007l-.022-.021c-.065-.063-.139-.135-.147-.209-.03-.257.139-.367.457-.312.097.017.195.047.281.09.246.124.504.142.775.074l.012.039-.085.052-.169.102c-.254.149-.395.377-.507.629-.063.142-.138.279-.214.415s-.198.151-.339.12l-.135-.028-.324-.074c-.273-.074-.516.02-.757.114l-.048.019c-.216.083-.417.047-.663-.023l.032-.044.041-.059.009-.012.189-.249c.036-.04.123-.062.181-.055.428.052.757-.447.769-.715.007-.153-.236-.303-.452-.288-.16.011-.336.21-.287.35.024.068.107.147.177.16.043.008.094-.023.148-.056l.002-.001.072-.041c.017.077-.057.131-.123.18l-.028.021c-.101.077-.22.084-.339.021l-.052-.028c-.195-.106-.392-.212-.634-.184l-.096.013-.094.015-.23.032-.03.003-.005.001c-.093.011-.198.024-.219-.096-.005-.026.137-.101.218-.114.319-.053.457-.161.542-.457.078-.27.244-.419.497-.444-.218.088-.3.176-.288.318s.11.212.239.243c.17.041.343-.037.433-.174.117-.179.193-.358.035-.55-.234-.284-.804-.296-.972-.017-.037.061-.063.127-.085.183l-.025.062-.059-.016-.062-.017-.389-.112c-.02-.007-.036-.084-.022-.116.122-.272.365-.41.652-.466.361-.071.63-.256.861-.516.108-.121.23-.234.356-.338.151-.125.342-.126.523-.098.145.022.287.072.426.12l.009.003c.205.072.412.109.632.078.062-.009.125-.009.188-.009h.036l.049-.001.021.053-.063.046c-.046.034-.091.069-.143.085-.282.088-.473.253-.603.51-.113.225-.289.39-.598.338-.144-.024-.25-.078-.298-.207s-.026-.254.084-.355zm2.251-.048l-.003.003c-.068.081-.141.168-.23.196 0 0-.077.047-.076.094.001.054.108.092.108.092l.016-.004c.313-.078.399-.1.494-.42.016-.055.059-.106.1-.151.097-.107.271-.147.386-.09.025.012.049.037.06.061.002.005-.003.016-.011.026s-.022.024-.03.024-.016-.001-.025-.003c-.021-.005-.042-.015-.049-.028-.058-.105-.13-.061-.194-.015-.08.058-.133.131-.075.232.053.092.385.195.484.152.238-.103.303-.408.128-.597-.166-.179-.383-.186-.607-.156a.41.41 0 0 0-.376.367l-.002.013c-.01.055-.022.116-.056.155l-.042.049zm.712.562c-.06.123-.032.219.121.27.001.019-.002.032-.031.033l-.02-.009-.011-.005-.046-.02c-.057-.024-.114-.049-.161-.084-.18-.137-.373-.129-.579-.07l-.395.1c-.013.003-.029.003-.045.001-.029-.003-.06-.01-.091-.017h-.001l-.076-.014-.399.063c.275.165.609.335.887.207.258-.119.482-.175.696.079.106.126.347.124.482.042.161-.097.275-.327.206-.479a.49.49 0 0 0-.22-.211c-.121-.06-.266.005-.319.115z"/><path d="M16.512 32c8.837 0 16-7.163 16-16s-7.163-16-16-16-16 7.163-16 16 7.163 16 16 16zm-.586-22.141a1.37 1.37 0 0 1 .086-.009c-.091.192-.197.232-.363.156a.59.59 0 0 1-.273-.873c.059-.092.125-.18.191-.268.375-.498 1.002-.488 1.345.034.122.185.218.391.294.6.119.328.274.623.478.873h.338a.88.88 0 0 1 .74.397l.819 1.299 1.347-1.426c.162-.171.395-.27.64-.27h1.628c.01 0 .019 0 .029 0h.001.001c.26.009.49.126.642.306l.091.043.757-.043c.04-.007.082-.003.123.001l.013.001c.01.001.02.007.038.018.012.007.027.016.048.028-.021.034-.041.069-.061.104-.044.075-.088.15-.14.219-.2.264-.418.479-.679.609v.627c0 .455-.384.821-.862.821h-2.961l1.182 1.877c.478-.157.988-.239 1.523-.236 2.501.017 4.545 1.959 4.57 4.338.021 2.448-2.07 4.438-4.642 4.414-2.501-.021-4.538-1.966-4.556-4.345-.011-1.343.618-2.547 1.61-3.357l-.449-.711c-1.39 1.07-2.095 2.663-2.019 4.274.022.468-.37.858-.862.858h-3.025c-.514 1.887-2.314 3.282-4.455 3.282-2.576 0-4.656-2.014-4.599-4.479.057-2.304 2.008-4.188 4.427-4.27a4.82 4.82 0 0 1 1.484.178l.406-.701c-.327-.475-.837-.848-1.717-.848H7.099c-.471 0-.855-.359-.862-.803-.008-.353.227-.656.555-.779.002-.163-.052-.326-.161-.458-.219-.265-.711-.368-1.002-.195-.21.125-.155.314-.1.504l.001.002c.058.199.212.194.367.183a.39.39 0 0 0 .133-.046 1.38 1.38 0 0 1 .078-.035c-.02.21-.107.28-.289.26-.386-.043-.641-.375-.557-.741a4.19 4.19 0 0 1 .089-.312c.184-.587.78-.771 1.283-.385a3.04 3.04 0 0 1 .484.476c.23.279.483.514.769.688h1.226c1.976 0 2.953.578 3.589 1.367h5.522l-.69-1.094h-2.386c-.316 0-.575-.246-.575-.547v-.547c0-.301.259-.547.575-.547h1.32c.204-.196.276-.489.181-.75-.116-.319-.546-.569-.88-.494-.241.053-.254.249-.267.446v.002c-.013.207.134.25.284.286.041.01.088.004.141-.002z"/></g></svg>