<svg xmlns="http://www.w3.org/2000/svg" width="33" height="32" fill="#2b2b2b"  xmlns:v="https://vecta.io/nano"><path d="M10.424 23.094c-.466 0-.844-.378-.844-.844s.378-.844.844-.844.844.378.844.844-.378.844-.844.844z"/><path fill-rule="evenodd" d="M16.893 32c8.836 0 16-7.163 16-16s-7.164-16-16-16-16 7.163-16 16 7.163 16 16 16zm9.131-21.664c-.079-.317-.476-.425-.707-.194l-2.614 2.614-2.386-.398-.398-2.386 2.614-2.614c.233-.233.121-.629-.199-.709a5.06 5.06 0 0 0-4.802 1.333c-1.394 1.394-1.777 3.414-1.197 5.175l-1.085 1.085c.08-.033.168-.046.264-.052h.001.001l.559-.061.23-.033c.013-.002.026-.001.051.002l.061.005c-.045.042-.086.084-.125.124l-.002.002a1.55 1.55 0 0 1-.24.214c-.279.186-.453.419-.473.764a.98.98 0 0 1-.1.354c-.076.159-.216.254-.394.259s-.334-.027-.434-.204c-.086-.154-.043-.26.082-.371.027.274.125.4.297.39.212-.013.396-.198.395-.4 0-.251-.144-.414-.371-.427-.305-.017-.529.113-.671.379a.64.64 0 0 0-.026.623c.187.41.804.439 1.14.174.328-.259.352-.472.379-.713l.002-.019c.028-.249.133-.439.363-.544a.63.63 0 0 1 .247-.054c.017 0 .066 0 .133.001.254.002.781.007.938-.016.199-.029.391-.108.583-.186l.094-.038c.057-.023.114-.045.172-.066.043-.015.087-.027.131-.039l.061-.017.032.053-.072.06-.044.037a1.87 1.87 0 0 1-.116.091l-.053.037c-.191.134-.383.269-.474.496s-.101.394-.101.394l-.005.029c-.059.314-.271.48-.582.412-.089-.02-.17-.126-.228-.21-.025-.037.018-.121.059-.181-.053.136-.005.233.103.304.136.09.252.003.352-.075.108-.085.133-.204.069-.333-.118-.238-.455-.329-.721-.195-.209.106-.288.447-.167.684 0 0 .153.207.294.277.171.085.486.053.486.053-.276.069-.334.336-.387.613a.69.69 0 0 0 .255.706c.206.171.428.249.697.217.05-.006.098-.02.144-.041l.286-.286a.53.53 0 0 0 .051-.276c-.03-.311-.283-.552-.551-.523-.156.017-.274.105-.299.256-.014.083.025.194.079.26.024.029.07.046.119.054.035.006.07.006.1.002s.047-.045.073-.097c.013-.027.028-.056.045-.084.011.014.026.029.04.044l.002.002c.034.034.068.069.069.105a.27.27 0 0 1-.2.281c-.161.05-.406-.09-.499-.281s-.058-.437.106-.521a.81.81 0 0 1 .405-.081c.396.028.736-.068 1.046-.332.126-.108.303-.156.478-.204l.034-.009a2.08 2.08 0 0 1-.164.471l.152-.152c1.762.587 3.778.2 5.181-1.203a5.06 5.06 0 0 0 1.333-4.807zM8.833 20.66l4.555-4.555-.175.582c.307.056.577.008.858-.095.222-.081.467-.106.707-.13l.102-.01c.155-.017.213.085.127.21-.082.119-.17.235-.257.351l-.002.003c-.093.123-.186.245-.272.373l-.001.001c-.089.132-.189.278-.212.428 1.766-.429 1.087.08-.916.961-.288.052-.578-.073-.71-.31s-.171-.643.113-.95c.179-.193.474-.267.745-.164.193.073.309.24.289.415a.45.45 0 0 1-.371.376c-.2.035-.29-.022-.4-.251-.006-.012-.015-.023-.024-.034h-.001c-.005-.006-.011-.013-.016-.02-.079.152-.057.298.043.427s.232.149.394.125c.349-.052.474-.299.511-.591.042-.334.184-.586.451-.785.049-.036.085-.091.12-.146.016-.025.033-.05.05-.073l-.041-.052c-.03.011-.06.021-.091.032-.067.022-.134.045-.196.077a1.41 1.41 0 0 1-.702.138h-.011c-.166-.005-.335-.01-.498.017-.203.034-.406.102-.52.297a3.74 3.74 0 0 0-.252.505c-.148.373-.366.676-.723.884-.284.165-.49.407-.519.754-.003.041.042.121.066.122.151.001.303-.006.456-.014l.071-.003.069-.003a1.91 1.91 0 0 0 .004-.078c.003-.071.006-.154.022-.235.074-.373.685-.563 1.041-.328.241.159.226.386.169.628-.044.186-.199.334-.396.349-.15.011-.28-.033-.345-.186s-.011-.282.19-.443l-.002-.013v-.002c-.259.119-.381.345-.362.674.02.361-.086.531-.406.704-.081.044-.205.178-.19.206.068.126.174.075.269.029l.004-.002.016-.007.016-.007c.079-.036.156-.077.233-.117l.095-.05c.032-.017.065-.033.098-.049.247-.118.496-.069.743-.02l.066.013c.15.029.274-.022.353-.144l.022-.033c.053-.079.111-.165.064-.246a.94.94 0 0 0-.062.071l-.002.002c-.045.056-.088.109-.136.115-.079.01-.198-.049-.248-.116-.104-.139.009-.424.175-.494.224-.094.54-.013.589.161.087.304-.076.979-.551 1.074-.065.013-.149.069-.172.126a2.87 2.87 0 0 0-.108.346l-.027.098-.017.061c.288-.008.516-.04.714-.21l.043-.037h.001c.221-.191.444-.383.763-.398.124-.006.248-.019.372-.033h.003l.152-.016c.033-.003.065-.009.095-.017l-2.92 2.92a2.25 2.25 0 0 1-3.182-3.182zm6.318.045l.409-.409c-.003-.084-.001-.167.012-.248.026-.159.096-.333.2-.454.253-.295.374-.645.495-.997l.02-.059c.046-.131-.029-.206-.154-.167l-.037.012c-.156.048-.324.101-.437.204-.214.196-.447.252-.715.218-.302-.038-.585.005-.846.173-.327.21-.452.631-.269.917.212.332.686.433 1.005.213.135-.093.248-.235.203-.383s-.165-.29-.286-.397c-.094-.084-.383.049-.441.172-.053.112.028.241.152.245a.37.37 0 0 1 .036.003c.012.002.024.004.037.006l.034.005.01.053a.49.49 0 0 0-.049.021l-.002.001c-.038.018-.077.037-.1.025l-.031-.016c-.092-.047-.198-.101-.235-.181-.128-.277.011-.46.369-.512a1.11 1.11 0 0 1 .333 0c.309.051.589-.021.852-.194l.027.039-.066.083-.005.006-.141.175c-.215.257-.28.562-.304.884a5.88 5.88 0 0 1-.073.541c-.001.008-.003.015-.004.022zm2.576-2.576l-1.291 1.291c-.017-.034-.029-.066-.036-.098-.074-.319.146-.825.42-1.009.284-.189.585-.232.907-.184zm-2.379-1.145l-.002.004c-.042.115-.087.238-.171.301 0 0-.064.081-.046.132.021.06.15.064.15.064l.015-.01c.304-.199.387-.254.368-.646a.51.51 0 0 1 .05-.204c.063-.154.234-.261.377-.238.032.005.066.023.086.047.004.005.003.019-.002.033s-.014.034-.023.038-.018.005-.028.006c-.024.002-.05-.002-.062-.014-.101-.097-.161-.022-.211.053-.063.093-.093.194.007.286a.69.69 0 0 0 .572-.003c.215-.2.169-.564-.087-.713-.243-.141-.478-.071-.705.041s-.298.303-.263.544l.002.015c.01.065.021.138-.002.194-.009.022-.017.046-.026.069zm1.197.633c-.182-.003-.247-.1-.229-.259.015-.141.145-.265.296-.242.112.017.239.076.313.158.13.145.094.442-.04.609-.113.14-.369.228-.529.125-.323-.207-.54-.065-.77.16-.249.243-.667.172-1.022.086l.401-.213a.68.68 0 0 1 .087-.011h.001c.035-.003.072-.006.103-.014.018-.004.034-.01.047-.017a4.7 4.7 0 0 0 .383-.252c.196-.139.399-.218.642-.129.063.023.133.03.202.037l.057.006c.013.001.025.003.038.005.03-.011.029-.027.02-.048z"/></svg>