<svg xmlns="http://www.w3.org/2000/svg" width="33" height="32" fill="#2b2b2b"  xmlns:v="https://vecta.io/nano"><path d="M19.339 16.511l.004.009c.056.13.112.259.144.395l.065.307c.023.01.043.025.052.042.016.031.005.089-.011.127.008.099.022.184.036.269.092.176.231.17.393.124.072-.021.168-.04.223-.005.141.089.248.055.354-.054-.252-.131-.328-.38-.165-.561a.8.8 0 0 1 .051.081c.06.102.12.206.27.139.094-.042.121-.265.071-.4l-.108.019c-.078.015-.154.03-.229.025-.2-.015-.281.027-.351.227l-.054.143c-.042.107-.114.125-.211.089-.179-.067-.241-.235-.156-.438.107-.255.312-.383.528-.516.199-.123.369-.193.554.002.008.009.021.012.033.016l.007.002c.115-.142.134-.311.051-.459l-.254-.412a.26.26 0 0 0-.127-.097c-.116-.036-.185-.075-.217-.146l-.126-.006-.083.104-.486.624-.259.351zm1.864-1.366c.142.139.163.237.093.455a.29.29 0 0 0 .045.296c.048.064.09.133.132.202l.105.166a.74.74 0 0 0 .108.115l.044.041.165.159.072.067.063.059-.031-.298-.065-.621-.084-.76c-.011-.096-.033-.184-.066-.264a.41.41 0 0 1-.062.021c-.088.023-.17.071-.267.128l-.158.09a.47.47 0 0 1-.093.143zm.914-2.042l.133-.043-.093-.048-.04.091zm-.432-.293l-.101.322c-.066-.015-.132-.039-.198-.072-.194-.098-.261-.279-.209-.519l.033-.153c-.431.283-.473.657-.271 1.122l-.187-.019a.55.55 0 0 0-.024-.099c-.01-.029-.003-.065.004-.1l.007-.04.007-.044c.016-.086.031-.169-.126-.157-.038.003-.086-.031-.118-.061l-.433-.425c-.094-.097-.148-.199-.099-.352a.36.36 0 0 0-.202-.401c-.121-.034-.209.029-.282.203-.36-.056-.645.119-.787.481l-.135-.085-.062-.037a1.25 1.25 0 0 0 .042-.817c-.082-.32.019-.6.279-.799l.679-.492.368-.262c.078-.057.133-.017.191.026l.011.008c.62.451 1.2.951 1.75 1.487.149.145.207.265.129.48l-.144.422-.057.016-.114.042-.047.018-.007-.079c-.003-.046-.005-.08-.021-.091-.031-.022-.107-.02-.129.006-.032.037-.061.118-.045.159.06.15.171.243.299.311zm-5.227-1.323c-.022-.09-.035-.183-.037-.279-.006-.23-.133-.347-.355-.421l-.039.188-.079.396-.026.14.303-.037a.83.83 0 0 1 .232.013zm-1.261 1.21c-.299.064-.594.138-.879.24-1.064.38-1.383 1.401-1.347 2.298a2.18 2.18 0 0 0 .13-.116c.1-.094.206-.193.331-.238.242-.087.474-.077.677.012a.9.9 0 0 0 .074-.101l.274-.442.409-.639c.212-.296.268-.632.325-.97l.008-.045zm-.759 2.441a.7.7 0 0 1 .051-.074l1.022-1.307c.089-.113.138-.229.129-.377-.008-.13-.001-.265.021-.394l.068-.397.605-.122a.18.18 0 0 1 .112.019l.338.178c-.03.101-.078.204-.142.309-.129.211-.205.457-.279.699l-.032.103-.01.033c-.031.103-.058.193-.172.24-.078.032-.116.109-.04.166.156.116.148.295.109.424a1.92 1.92 0 0 1-.048.137c-.059.154-.116.304-.026.478-.077.118-.08.245-.083.374l-.007.146a1.5 1.5 0 0 0 .067.623l.051.193-.12-.061c-.342-.174-.348-.177-.631.125l-.011-.149-.025-.292c-.048-.39-.233-.595-.61-.707-.07-.021-.146-.085-.182-.149-.046-.081-.097-.154-.154-.218zm2.594 2.143l.001-.365v-.082c0-.07-.005-.141-.011-.211-.008-.107-.016-.214-.006-.32a.78.78 0 0 1 .326-.583.7.7 0 0 1-.016.3.69.69 0 0 0 .132.725c.112.13.154.289.105.442-.016.05-.027.099-.034.147a.98.98 0 0 0-.088.159c-.029.065-.065.127-.1.19l-.047.085-.08.008-.061-.167-.122-.327zm2.468-2.965l-.028.134-.053.312a2.18 2.18 0 0 0-.002.313l.275-.454c.024-.04.007-.144-.029-.174l-.162-.132zm1.364-.082a.39.39 0 0 0-.038.084.43.43 0 0 0-.028-.105l.067.021z"/><path d="M20.825 14.429a1.17 1.17 0 0 0 .091.236l.018.04c-.029-.033-.058-.067-.081-.104s-.029-.082-.036-.13l.008-.042zm-1.075 3.907l.019.089c.009.042.021.081.036.117l.027-.003c.043-.004.084-.029.125-.054l.056-.032-.015-.055-.153-.039-.094-.023zm-.242 1.158l.008.025c.102-.009.187-.051.246-.131-.081.029-.16.064-.239.1l-.015.007zm.836-.512l-.018-.025c-.038-.044-.093-.075-.151-.102l.036-.024c.109-.075.182-.057.282-.03a.55.55 0 0 1-.148.18zm-9.172-9.776c1.025-.236 1.148-1.055.843-1.784-.147-.351-.625-.553-1.108-.5-.317.035-.694.405-.753.761-.013.077.014.194.069.243.196.177.203.239.042.453-.041.055-.058.183-.023.23.101.135.215.26.346.405l.166.184.123-.884c.182.172.209.381.236.588a1.59 1.59 0 0 0 .06.306zm13.867 2.892l.002.037.343.021-.53.123.186-.18z"/><path fill-rule="evenodd" d="M16.239 32c8.837 0 16-7.163 16-16s-7.163-16-16-16-16 7.163-16 16 7.163 16 16 16zm-4.861-10.785l-.114-.007c-.092-.005-.187-.011-.281-.024a.53.53 0 0 0-.42.276l-.09.328-.45 1.619c-.113.396-.193.775.063 1.16.097.146.132.35.142.531.018.319-.232.497-.532.393-.324-.112-.64-.073-.966-.012-.103.019-.211.009-.319 0-.061-.005-.121-.011-.181-.011a.46.46 0 0 0-.186.034c-.041.018-.077.046-.113.075-.02.015-.039.031-.059.044-.161.109-.28.134-.423-.067-.312-.439-.253-.796-.059-1.207.029-.063.177-.117.255-.101.174.037.344.094.514.151l.171.056c.373.12.722-.09.756-.483.025-.293.031-.593-.005-.883-.082-.644.005-1.268.144-1.893.014-.064-.002-.134-.018-.204a1.22 1.22 0 0 1-.018-.091c-.005-.032-.009-.065-.013-.098a1.8 1.8 0 0 0-.042-.243c-.102-.38-.111-.719.211-1.031.088-.085.113-.237.137-.386.009-.055.018-.11.03-.161.116-.482.236-.961.582-1.343l.05-.056c.056-.064.111-.128.178-.177.675-.488.834-1.185.778-1.953-.01-.139-.155-.349-.278-.384-.191-.053-.295-.18-.399-.307-.039-.047-.078-.095-.122-.139-.061-.061-.13-.119-.206-.161-.34-.188-.367-.396-.074-.663l-.192-.144c-.148-.11-.296-.22-.438-.337-.164-.136-.314-.295-.23-.539.086-.251.247-.384.534-.4.227-.012.452-.05.691-.091l.334-.054-.055-.036c-.225-.148-.413-.272-.666-.11-.341.218-.702.176-.991.052a1.58 1.58 0 0 0-.08.139c-.047.088-.087.164-.147.185-.371.132-.381.116-.541-.13l-.007-.011c-.01-.015-.019-.033-.028-.051-.036-.072-.075-.149-.205-.117-.03.007-.074-.04-.119-.088-.021-.022-.042-.045-.063-.063-.202.062-.271.083-.321.061-.026-.012-.047-.035-.079-.071-.048.033-.095.067-.142.102-.114.084-.225.166-.35.215-.052.021-.129-.022-.207-.065-.035-.019-.07-.039-.103-.052.016-.026.032-.053.047-.079.034-.06.068-.12.115-.167.076-.076.161-.143.246-.21l.107-.086-.073-.016.002-.163c.003-.132.006-.265-.008-.395-.007-.064-.044-.126-.081-.187-.015-.025-.03-.049-.042-.074-.003-.006-.012-.01-.02-.013s-.014-.006-.019-.011c-.117-.114-.092-.245-.067-.377.018-.096.036-.192 0-.284-.005-.012.057-.05.124-.09a1.87 1.87 0 0 0 .116-.074 1.11 1.11 0 0 1 .049-.033c.052-.033.105-.067.125-.114.037-.086.064-.178.091-.27.046-.155.092-.309.182-.433l.053-.074c.226-.315.462-.643.87-.752.107-.028.219-.033.333-.038.089-.004.179-.007.265-.023.119-.021.234-.059.347-.097l.147-.047.011-.173c.024-.403.047-.799.308-1.126.305-.382.66-.679 1.184-.757.553-.082 1.065-.011 1.544.254.396.219.706.532.902.951.317.679.357 1.376.106 2.072a2.38 2.38 0 0 1-.773 1.089c-.47.366-1.001.608-1.628.776.036.018.067.036.095.051.054.03.098.054.145.072 1.172.437 2.378.531 3.61.356a12.91 12.91 0 0 0 .344-.054l.187-1.221c.035-.225.145-.33.375-.338.116-.004.233-.001.349.003l.167.004h.123.056c-.022-.43-.232-.589-.638-.501-.068.015-.142.02-.211.012-.224-.024-.296.024-.368.234a3.64 3.64 0 0 1-.117.288l-.056.128c-.117-.05-.191-.213-.175-.389a5.26 5.26 0 0 0 .016-.284l.012-.237c.002-.02.015-.038.029-.056.01-.013.02-.026.026-.04s.015-.032.022-.048c.024-.05.048-.101.052-.153.005-.085-.033-.148-.143-.155-.122-.007-.153-.08-.096-.188.024-.045.05-.09.082-.128.094-.111.138-.229.081-.374-.011-.028.003-.071.017-.102a6.52 6.52 0 0 1 .08-.16c.04-.079.081-.159.117-.24.011-.024.003-.056-.004-.088-.003-.014-.006-.028-.008-.041l-.037-.285c.027.011.047.018.062.024.025.009.039.014.049.023.108.098.165.123.29-.026s.339-.236.531-.287c.172-.046.367-.026.55-.008l.017.002c.351.035.569.265.73.558.056.102.099.162.247.147.292-.029.439.276.319.555l.282.775-.348-.088c-.037.105-.018.217.001.331.028.167.057.338-.088.495.227.089.433.065.64.013.401-.101.782-.254 1.151-.441.194-.098.393-.046.593.139l.398.372 1.066.98c.197.173.416.321.634.47l.16.109c.13.089.171.252.085.45l-.016.037c.042.028.083.067.124.115l-.013-.105-.023-.171c-.087-.586.172-.931.726-.969.241-.017.461.061.683.151.331.133.666.255 1.003.37l.007.002c.198.068.209.071.205.317l.097.044c.074.034.151.069.229.098.125.046.15.13.064.242l-.104.134.018.039c.019-.003.039-.006.058-.009.043-.006.086-.012.128-.024s.078-.024.117-.037c.067-.023.133-.045.201-.054.06-.008.179.034.18.059.004.083-.009.198-.06.247s-.11.069-.174.094a.94.94 0 0 0-.108.047l-.006.003c-.05.027-.114.061-.127.106-.048.171-.164.217-.306.227-.039.003-.079.002-.119.002l-.054-.001c.113.035.24.07.335.026.063-.029.11-.098.158-.167.021-.03.042-.06.064-.087.017.09.011.177.005.264l-.004.068c-.002.03.002.059.006.089.005.035.009.069.005.103-.007.061-.033.169-.058.171-.137.014-.165.117-.191.216-.006.024-.013.048-.02.07-.061.175-.101.212-.271.163-.059-.017-.141-.063-.154-.113-.039-.149-.087-.207-.233-.167-.078.022-.155.053-.232.083-.093.037-.186.074-.282.096l-.135.032c-.207.051-.416.102-.633.063-.019-.003-.04.007-.061.017-.01.005-.02.009-.029.013a3.02 3.02 0 0 0 .347.057c.081.01.161.02.241.035l.128.022c.093.015.143.023.173.052.035.035.04.099.052.24v.001l.011.125.042.467.018.21h.037l.025-.231c.205.034.272.122.221.314-.044.167-.042.323.032.48.021.044.031.099.033.149.001.018 0 .037-.001.056-.003.08-.005.158.099.197.022.008.035.084.032.128-.013.17-.056.329-.206.418-.075.044-.076.102-.067.179l.339 3.006a1.95 1.95 0 0 0 .02.125l.01.058.029-.003.031-.153c.17.054.224.168.177.343l-.001.005c-.012.045-.029.108-.01.136.123.18.12.377.118.583v.17c.052-.016.108-.023.165-.03.145-.018.292-.036.388-.213.014-.026.12-.036.131-.018.059.103.151.131.243.16.039.012.078.024.114.042.116.056.233.113.301.287l-.301-.075-.03.045.37.363-.027.034-.149-.051c-.113-.039-.226-.078-.341-.108-.169-.044-.342-.059-.497.063.042.023.085.033.127.043l.038.01c.019.005.04.009.062.013.056.01.112.02.136.055.079.116.166.114.274.085.016-.005.035-.002.054.001l.01.001c-.059.182-.215.242-.45.188-.392-.091-.719-.31-.998-.611-.042-.045-.069-.105-.097-.165-.017-.038-.035-.076-.056-.111l-.017-.028c-.037-.061-.075-.125-.128-.16-.173-.113-.2-.248-.054-.395.058-.058.076-.11.062-.2l-.582-3.951c-.007-.047-.044-.097-.08-.129-.121-.107-.18-.31-.076-.424s.087-.228.067-.35l-.005-.03-.021-.144c-.01-.069-.019-.138-.032-.206-.021-.114-.045-.228-.069-.341l-.031-.147-.07.013c-.039.007-.07.013-.1.021-.245.069-.282.179-.184.43.034.088.026.213-.004.306-.033.103-.1.204-.175.28-.189.192-.218.428-.185.681.019.143.042.286.066.428l.06.379c.036.258.134.322.356.217.191-.09.313-.001.293.227-.019.217-.045.437-.252.546a1.05 1.05 0 0 0 .325.584c.038.038.093.061.144.082l.007.003c.043.018.087.031.132.043l.037.011.02.006-.146.123c-.023.138.055.174.139.213.074.034.151.07.166.178a1.11 1.11 0 0 1-.105-.027c-.075-.022-.143-.041-.195-.018-.037.017-.053.086-.072.17-.01.042-.02.087-.034.13l.237-.11.035.035c-.016.022-.03.047-.044.072-.032.056-.065.111-.111.137-.096.054-.115.12-.108.221l.034.5.06.827c.023.291.047.582.17.852.022.049.018.12.006.177-.037.186-.065.362.079.52.027.03.022.099.018.158l-.001.017-.001.014a.26.26 0 0 1-.024.084c-.004.01-.008.02-.011.028.225.144.432.083.644.002s.217-.075.326.123l.002.004c.094.171.079.407-.043.56-.082.102-.164.067-.247.031a.41.41 0 0 0-.107-.036c-.134-.017-.272-.024-.406-.009a11.08 11.08 0 0 0-.421.056c-.157.023-.315.046-.473.062-.144.014-.203-.076-.162-.228a.84.84 0 0 1 .121-.259c.062-.088.075-.155.025-.261-.027-.058-.029-.131-.032-.202-.001-.031-.002-.061-.005-.091-.002-.024-.004-.049-.006-.073-.003-.042-.005-.084-.012-.125s-.019-.088-.03-.132c-.023-.086-.045-.171-.034-.251.044-.314.007-.612-.062-.916-.104-.455-.206-.912-.272-1.374-.025-.177-.089-.231-.226-.27-.119-.034-.179.037-.205.128-.093.333-.285.519-.609.562-.151.02-.244.087-.266.265-.008.064-.037.124-.067.184-.013.027-.027.055-.038.082-.015.036-.03.071-.046.106a1.51 1.51 0 0 0-.093.244c-.033.132-.088.227-.2.301-.209.139-.395.328-.424.595-.025.228-.119.331-.305.384-.105.03-.164.097-.177.229-.008.083-.063.174-.121.235a.47.47 0 0 1-.119.082c-.039.021-.077.043-.109.072-.046.043-.093.119-.091.179.004.102.089.103.165.085l.118-.029.19-.045c.188-.043.244-.016.303.171.027.085.045.181.041.27-.011.232-.143.425-.399.274-.127-.075-.25-.14-.403-.071-.038.017-.088.007-.137-.004-.016-.003-.032-.007-.047-.009l-.248-.04-.403-.062c-.015-.002-.03-.003-.046-.005-.076-.006-.151-.013-.18-.114-.038-.13.044-.199.127-.265.047-.037.093-.076.139-.114l.062-.051-.017-.078-.06.006c-.044.004-.088.009-.132.018-.034.008-.068.019-.102.03-.062.021-.124.041-.186.038-.044-.002-.087-.04-.13-.078-.019-.017-.038-.034-.058-.047l.041-.031.117-.09.059-.044.027-.019a.5.5 0 0 1-.026-.023c-.018-.018-.037-.035-.058-.044l-.011-.005c-.091-.04-.177-.079-.194-.207-.004-.03-.049-.066-.082-.078-.113-.041-.142-.139-.168-.248-.018-.077-.047-.155-.086-.221-.079-.133-.089-.281-.1-.429-.007-.095-.014-.19-.039-.281-.003-.012.004-.026.011-.04s.01-.021.012-.032c.006-.033.012-.067.019-.1a1.38 1.38 0 0 0 .035-.258c.001-.15.006-.286.125-.392.037-.033.066-.097.069-.148.011-.208.14-.304.282-.409l.005-.003c.103-.076.195-.168.288-.26l.122-.119c-.119-.017-.209-.054-.251-.108-.119.003-.226.036-.289.184-.216-.089-.22-.248-.224-.413-.002-.091-.004-.185-.042-.269h.11.21c.27.002.455-.266.352-.513l-.034-.08-.317-.729c-.053-.113-.114-.222-.176-.331l-.018-.032-.091.128c.003.048-.012.093-.072.132-.017.011-.025.056-.021.092.238.204.208.38-.076.611-.102.083-.192.193-.252.309-.038.074-.132.154-.246.221-.006.009-.013.018-.019.027-.09.142-.312.214-.453.138a.55.55 0 0 1-.111-.017c-.009-.003-.019-.002-.031-.001a.73.73 0 0 0-.108.119c-.069.089-.137.178-.192.275-.098.172-.024.406.144.527.303.219.398.442.311.732-.074.248-.284.328-.536.396.021.029.039.056.057.082.035.051.066.097.103.136.308.319.288.521-.103.776.023.046.051.092.079.138.065.107.13.214.139.327.008.103-.044.211-.096.318a1.79 1.79 0 0 0-.064.142l-.076-.012c.017.036.036.071.055.106.044.081.087.161.108.247.019.078.015.162.01.25-.002.04-.004.081-.004.123.292.251.26.564-.111.754.017.012.035.023.053.033.037.022.072.042.091.073a2.04 2.04 0 0 0 .053.076c.066.091.135.187.123.268-.017.104-.161.23-.275.267-.127.04-.261.058-.395.076-.098.013-.196.026-.292.048-.105.024-.208.061-.31.098a3.74 3.74 0 0 1-.218.074l-.119.037c-.145.046-.291.092-.438.097s-.242.03-.306.153c-.109.209-.271.247-.461.128-.05-.031-.079-.097-.107-.159l-.021-.045c-.005-.011.001-.027.008-.044s.013-.033.008-.045c-.018-.042-.044-.083-.07-.125-.05-.08-.099-.159-.091-.232.024-.215-.077-.259-.24-.261-.037-.237.221-.468.441-.44a4.69 4.69 0 0 0 .74.039.34.34 0 0 0 .352-.474c-.052-.192-.139-.38-.241-.552-.399-.676-.784-1.356-1.071-2.092-.056-.143-.217-.244-.357-.332a1.65 1.65 0 0 1-.155-.105c-.005.024-.008.057-.011.093-.008.099-.019.229-.087.312s-.186.127-.308.172a2.1 2.1 0 0 0-.161.065c.014.034.034.07.055.108.051.094.108.199.106.303-.002.096-.06.19-.124.295a2.17 2.17 0 0 0-.089.155l.029.023c.187.149.418.333.093.585l.268.571-.044.022.295.19c-.35.145-.66.123-.969.1l-.008-.001c-.022-.002-.049-.037-.062-.063l-.027-.053c-.078-.157-.155-.311-.339-.393-.045-.02-.044-.184-.032-.278a.79.79 0 0 1 .061-.198 1.84 1.84 0 0 0 .033-.085c-.199-.098-.304-.149-.342-.232-.043-.092-.001-.223.086-.501-.434-.05-.467-.33-.365-.648l-.476-.295z"/></svg>