<svg xmlns="http://www.w3.org/2000/svg" width="32" height="32" fill="none"  xmlns:v="https://vecta.io/nano"><path fill-rule="evenodd" d="M32 16c0-8.837-7.163-16-16-16S0 7.163 0 16s7.163 16 16 16 16-7.163 16-16zm-20.234-3.962c-.158.293.054.651.388.651h7.856c.356 0 .584-.381.419-.696-.287-.548-.547-1.045-.848-1.515-.133-.207-.479-.378-.73-.383a226.8 226.8 0 0 0-5.515-.009c-.198.001-.495.043-.575.175-.345.57-.662 1.157-.995 1.777zm12.423 3.172c.343.243.171.787-.25.787H7.924c-.306 0-.427-.387-.173-.558.529-.356.999-.672 1.423-1.044 1.227-1.077 2.596-1.418 4.204-1.34 1.39.068 2.782.057 4.176.046l2.831.002c.462.009.974.18 1.368.431.801.512 1.577 1.063 2.435 1.672l.001.001h.001zm-1.916 4.252c-.405 0-.734-.329-.734-.734v-1.032a1.22 1.22 0 0 0-1.219-1.219 1.22 1.22 0 0 0-1.219 1.219v2.074a1.25 1.25 0 0 0 1.249 1.249h.547a.63.63 0 0 0 .626-.553.63.63 0 0 1 .626-.553h.275a.59.59 0 0 1 .584.496l.089.547c.008.051.058.083.108.07.038-.01.065-.045.065-.084v-4.381c0-.073-.059-.131-.131-.132s-.132.059-.132.132v2.167c0 .405-.329.734-.734.734zm-4.307 1.56a.7.7 0 0 0 .698-.698v-1.584c0-1.261-1.022-2.283-2.283-2.283h-.547a2.28 2.28 0 0 0-2.277 2.277v1.552c0 .401.325.726.726.726s.725-.325.725-.726v-1.618a1.13 1.13 0 0 1 1.13-1.13 1.13 1.13 0 0 1 1.13 1.13v1.656a.7.7 0 0 0 .699.698zm-4.898-.024c0 .013-.011.024-.024.024h-1.737a.62.62 0 0 1-.616-.556.62.62 0 0 0-.616-.556h-.27a.61.61 0 0 0-.606.537l-.056.463a.09.09 0 0 1-.09.079.09.09 0 0 1-.089-.09V16.56c0-.046.035-.084.081-.088.052-.005.096.036.096.088v2.128a.76.76 0 0 0 1.522 0v-1.035a1.2 1.2 0 1 1 2.404 0v3.345zm-8.294.817c.015.065.074.111.141.111H27.08c.082 0 .151-.061.161-.142s-.044-.16-.125-.181l-.208-.058c-.251-.072-.503-.143-.754-.143-6.754-.015-13.507-.015-20.261.002-.262.001-.524.083-.786.166l-.228.07c-.076.022-.123.099-.105.176zm20.561-6.252c-.317-.195-.233-.678.132-.753a.41.41 0 1 1-.132.753zM6.8 14.844c-.294-.096-.586.152-.54.458s.4.456.653.276l.621-.442c.021-.015.016-.048-.009-.056l-.725-.236z" fill="#2b2b2b"/></svg>