<svg xmlns="http://www.w3.org/2000/svg" width="30" height="30" fill="#2b2b2b"  xmlns:v="https://vecta.io/nano"><path d="M15.754 18.037c.723.224 1.015-.004 1.129-.626a13.04 13.04 0 0 1 .509-1.856c.071-.208.275-.397.464-.53a.56.56 0 0 1 .472-.039c.078.035.109.277.086.413-.037.22-.095.436-.152.653l-.082.316-.37 1.541c.746.243 1.084.012 1.222-.625l.247-.929.233-.868c.136-.604-.322-1.206-.943-1.178-.321.014-.638.099-.981.191l-.502.127c-.6-.531-1.435-.459-2.179-.149-.413.172-.842.668-.956 1.1-.103.391.224.488.545.583.119.035.238.071.333.121.022.012.038.034.071.079l.09.12a3.75 3.75 0 0 0-.173.299c-.136.25-.279.513-.5.649-.201.123-.483.113-.766.103l-.367-.002-.018-.271c-.016-.205-.033-.409-.002-.607.024-.15.08-.296.135-.441.066-.172.131-.343.143-.519.007-.104.029-.215.052-.329.076-.379.156-.779-.32-.982-.516-.22-1.18-.163-1.45.349-.387.731-.658 1.525-.928 2.315l-.136.397c-.036.103.03.241.095.379l.081.187.247-.785c.277-.933.549-1.849 1.405-2.591l.034.253c.017.111.028.179.013.24l-.368 1.422c-.232.969.169 1.576 1.147 1.548.502-.015 1.067-.218 1.472-.514.319-.234.533-.727.597-1.136.014-.093-.139-.199-.311-.319-.143-.099-.3-.208-.385-.326-.105-.145-.097-.579-.014-.617.355-.166.731-.289 1.106-.411l.38-.126.206.212-.611 3.179zm-4.285-5.303c-.011-.084-.031-.17-.051-.257-.043-.189-.087-.378-.037-.54a21.07 21.07 0 0 1 .846-2.297c.29-.656 1.178-.915 1.777-.512.2.135.366.515.327.748-.056.335-.162.661-.268.988l-.214.724c-.035.148-.007.311.022.473l.033.22.215-.034c.16-.023.319-.046.463-.105.41-.17.651-.449.754-.92.121-.554.374-1.09.64-1.599.121-.231.391-.499.63-.538.597-.096 1.219-.121 1.824-.079.54.038.834.454.727.942-.192.879-.432 1.759-.789 2.583-.058.134-.353.171-.688.212l-.506.078.248-.742.462-1.493.043-.157c.105-.368.229-.804-.304-.981-.538-.178-1.04-.038-1.269.571l-.407 1.042-.146.366.262.26c.206.201.38.371.498.571.041.07-.26.474-.422.486-.251.019-.508-.04-.765-.099l-.314-.067.026-.167c-.122.044-.244.1-.365.155-.269.123-.538.245-.808.246-.776.004-1.139-.621-.95-1.501l.163-.617.184-.722c.022-.118-.02-.247-.063-.377l-.052-.176a1.89 1.89 0 0 1-.191.091c-.145.063-.29.127-.329.228l-.694 2.035-.173.533c-.029.09-.049.183-.068.276l-.028.13-.245.016z"/><path fill-rule="evenodd" d="M15.12 29.5c8.008 0 14.5-6.492 14.5-14.5S23.128.5 15.12.5.62 6.992.62 15s6.492 14.5 14.5 14.5zm-6.96-9.265V9.476c0-1.691 1.387-2.306 2.32-2.306h10.053c.853 0 1.547.689 1.547 1.537v10.759H10.489c-.357.009-.783.149-.783.768s.425.759.783.768H22.08v1.537h-11.6c-.933 0-2.32-.614-2.32-2.305z"/></svg>